<svg width="199" height="242" viewBox="0 0 199 242" fill="none" xmlns="http://www.w3.org/2000/svg">
<path d="M194.993 160.871C195.076 162.971 194.436 164.879 193.377 166.631C191.369 169.953 190.401 173.55 189.852 177.345C189.168 182.046 187.738 186.559 185.515 190.805C184.445 192.852 183.038 194.6 180.775 195.492C177.715 196.693 175.212 195.752 173.938 192.788C172.767 190.059 172.556 187.231 174.095 184.572C175.652 181.89 176.183 179.178 175.732 176.076C175.179 172.302 177.315 168.752 180.946 167.189C183.365 166.148 184.82 164.545 185.646 162.157C186.436 159.886 187.844 157.943 189.637 156.308C191.98 154.169 193.712 154.663 194.563 157.722C194.844 158.735 194.858 159.819 194.993 160.871Z" fill="white" fill-opacity="0.3"/>
<path d="M184.629 190.342L184.629 190.342C186.798 186.199 188.194 181.795 188.862 177.201L184.629 190.342ZM184.629 190.342C183.616 192.281 182.358 193.793 180.409 194.562M184.629 190.342L180.409 194.562M176.721 175.931L176.722 175.932C177.205 179.258 176.63 182.197 174.96 185.074L176.721 175.931ZM176.721 175.931C176.24 172.645 178.088 169.508 181.341 168.107C184.019 166.955 185.673 165.137 186.591 162.485C187.316 160.4 188.616 158.591 190.311 157.047L190.311 157.047M176.721 175.931L190.311 157.047M190.311 157.047C191.429 156.026 192.084 155.941 192.384 156.027C192.684 156.113 193.194 156.531 193.6 157.989C193.718 158.416 193.784 158.875 193.838 159.386C193.856 159.557 193.873 159.745 193.891 159.941C193.922 160.272 193.954 160.624 193.995 160.952M190.311 157.047L193.995 160.952M193.995 160.952C194.059 162.796 193.498 164.498 192.522 166.114C190.419 169.592 189.422 173.332 188.862 177.201L193.995 160.952ZM180.409 194.562C179.044 195.097 177.922 195.111 177.05 194.771C176.187 194.434 175.414 193.689 174.857 192.394L180.409 194.562ZM174.857 192.393C173.77 189.861 173.625 187.381 174.96 185.074L174.857 192.393Z" stroke="white" stroke-opacity="0.3" stroke-width="2"/>
<path d="M198.357 92.8842C196.208 98.9299 193.153 104.532 189.552 109.825C184.892 116.67 179.723 123.134 174.267 129.343C170.365 133.781 167.685 138.85 165.756 144.353C163.84 149.82 163.893 155.202 166.52 160.53C170.794 169.2 167.979 179.647 159.97 185.299C158.912 186.048 157.765 186.669 156.667 187.358C153.519 189.343 151.919 192.193 151.93 195.931C151.933 196.996 151.954 198.061 151.965 199.126C151.993 202.716 150.832 205.868 148.407 208.506C144.841 212.386 142.459 216.916 140.331 221.726C136.514 230.353 130.162 236.075 120.479 237.424C116.375 237.992 112.431 239.231 108.522 240.566C107.407 240.946 106.299 241.368 105.159 241.656C101.831 242.49 100.963 241.944 100.305 238.493C98.9982 231.627 97.5714 224.818 93.96 218.68C92.8093 216.724 92.4871 214.488 92.3703 212.198C92.0198 205.176 90.5965 198.37 87.8809 191.867C86.9249 189.573 85.8556 187.323 84.3544 185.331C82.2124 182.494 81.7026 179.378 82.3788 175.934C83.5012 170.24 85.0024 164.631 86.9249 159.181C88.5713 154.513 88.1712 150.111 86.4398 145.702C84.6943 141.257 82.2761 137.182 78.8382 133.852C76.0235 131.118 75.3933 128.136 76.7741 124.519C77.9248 121.505 78.3072 118.317 78.2647 115.107C78.2186 111.753 76.806 110.709 73.5097 111.391C72.5856 111.582 71.6792 111.852 70.7481 112.008C67.774 112.509 65.4053 111.515 63.7413 108.98C63.0332 107.894 62.4985 106.687 61.7515 105.632C60.2503 103.509 58.788 103.272 56.6354 104.72C55.6582 105.38 54.7659 106.161 53.7887 106.818C51.5511 108.316 49.0798 108.987 46.396 108.65C39.9557 107.841 33.5473 107.276 27.0185 108.015C22.2352 108.558 18.3123 106.048 15.2143 102.597C7.19843 93.6759 1.96193 83.3878 0.570485 71.3283C0.28724 68.861 0.152698 66.3796 0.00399454 64.53C-0.119925 54.1958 2.62401 45.697 10.3814 39.3531C14.0848 36.3213 16.457 32.4979 17.505 27.8225C18.5566 23.14 20.8579 19.3272 24.9367 16.6008C27.5142 14.8755 29.3234 12.3372 31.0548 9.78117C33.4376 6.27017 34.3227 5.93292 38.0438 7.58014C41.3472 9.04276 44.647 9.12086 48.0459 8.12685C52.8115 6.73168 57.3612 4.7756 61.886 2.75563C64.5768 1.55571 67.2783 0.362896 70.2701 0.0753424C77.2344 -0.595616 81.3237 3.24908 81.0582 10.2391C80.8882 14.6483 81.6459 15.6245 85.8273 15.8517C89.0528 16.0257 91.7967 17.1475 94.0273 19.4657C96.1233 21.6525 98.5946 23.1861 101.512 23.9778C104.592 24.8121 106.189 23.9104 106.21 20.694C106.253 15.0281 109.011 14.4353 113.663 15.9405C115.363 16.4908 117.034 17.1724 118.298 18.4362C122.253 22.3909 126.717 23.3672 131.872 21.1165C132.612 20.7899 133.466 20.6692 134.28 20.584C136.978 20.3142 139.159 21.1768 140.533 23.6512C140.876 24.2689 141.237 24.8831 141.524 25.5292C147.1 38.0679 154.16 49.8576 159.97 62.2793C161.882 66.3689 164.509 70.0219 167.42 73.4584C169.643 76.0783 171.658 78.8296 173.336 81.84C174.724 84.3286 176.522 86.5225 178.48 88.5851C180.534 90.7471 182.98 91.4322 185.891 90.779C188.553 90.1826 191.018 89.0289 193.595 88.1946C195.139 87.6976 196.867 86.732 198.237 88.1627C199.533 89.5188 198.902 91.3506 198.357 92.8842Z" fill="white" fill-opacity="0.3"/>
<path d="M164.812 144.022L164.812 144.022C166.774 138.426 169.512 133.237 173.516 128.683C178.952 122.497 184.094 116.065 188.725 109.262C192.29 104.022 195.301 98.4967 197.415 92.5492C197.695 91.7613 197.939 91.0443 197.99 90.3793C198.039 89.76 197.914 89.2724 197.514 88.8535C197.114 88.4371 196.704 88.3548 196.136 88.4437C195.826 88.4922 195.489 88.5917 195.105 88.7241C194.977 88.7683 194.83 88.8211 194.677 88.8765C194.421 88.9687 194.145 89.0681 193.903 89.146C192.987 89.4424 192.095 89.7768 191.179 90.1203C190.83 90.2509 190.478 90.3829 190.12 90.5146C188.838 90.9857 187.507 91.4417 186.11 91.7548C184.521 92.1113 183.007 92.1133 181.584 91.6977C180.159 91.2814 178.886 90.4639 177.755 89.2738L177.755 89.2736C175.766 87.1787 173.907 84.9164 172.463 82.3271L172.463 82.3269C170.824 79.3874 168.85 76.6897 166.657 74.1054L166.657 74.1046C163.715 70.6308 161.028 66.902 159.064 62.7028M164.812 144.022L159.97 62.2793M164.812 144.022C162.819 149.711 162.864 155.375 165.623 160.973C169.671 169.184 167.016 179.103 159.394 184.482L159.393 184.483M164.812 144.022L159.393 184.483M159.064 62.7028L159.97 62.2793M159.064 62.7028C159.064 62.7028 159.064 62.7029 159.065 62.7029L159.97 62.2793M159.064 62.7028C156.418 57.0444 153.51 51.5164 150.59 45.9643C150.318 45.4475 150.046 44.9306 149.774 44.4133C146.586 38.3465 143.413 32.2382 140.61 25.9355L140.61 25.9349C140.394 25.4492 140.135 24.9874 139.851 24.4802C139.788 24.3683 139.724 24.2542 139.659 24.1371L139.658 24.1366C139.061 23.0615 138.321 22.3868 137.48 21.9949C136.63 21.5986 135.601 21.4572 134.382 21.5787M159.97 62.2793C157.313 56.5986 154.395 51.0501 151.476 45.5016C148.013 38.9176 144.55 32.3337 141.524 25.5292C141.288 24.9966 141.001 24.4858 140.715 23.9768C140.654 23.8682 140.593 23.7598 140.533 23.6512C139.159 21.1768 136.978 20.3142 134.28 20.584M134.382 21.5787C134.383 21.5787 134.383 21.5786 134.384 21.5785L134.28 20.584M134.382 21.5787C134.381 21.5788 134.38 21.5789 134.379 21.579L134.28 20.584M134.382 21.5787C133.572 21.6636 132.859 21.7741 132.276 22.0313L132.273 22.0329C129.545 23.2237 126.93 23.589 124.436 23.0835C121.946 22.5787 119.673 21.2251 117.591 19.1433C116.505 18.0576 115.03 17.4342 113.355 16.8919L131.872 21.1165C132.612 20.7899 133.466 20.6692 134.28 20.584M159.393 184.483C158.732 184.95 158.067 185.346 157.367 185.764C156.97 186 156.561 186.244 156.135 186.511L156.134 186.512M159.393 184.483L156.134 186.512M156.134 186.512C152.7 188.677 150.918 191.846 150.93 195.934V195.935M156.134 186.512L150.93 195.935M150.93 195.935C150.932 196.604 150.941 197.281 150.95 197.951C150.956 198.349 150.961 198.745 150.965 199.136C150.991 202.482 149.917 205.386 147.671 207.829L147.67 207.829M150.93 195.935L147.67 207.829M147.67 207.829C143.994 211.83 141.559 216.478 139.416 221.322C135.715 229.688 129.625 235.14 120.342 236.434M147.67 207.829L120.342 236.434M120.342 236.434C116.137 237.016 112.116 238.282 108.2 239.62C107.918 239.716 107.643 239.812 107.374 239.906C106.532 240.201 105.738 240.479 104.914 240.686C104.104 240.889 103.513 240.99 103.067 240.999C102.633 241.009 102.411 240.93 102.275 240.842C102.137 240.753 101.969 240.577 101.791 240.164C101.609 239.742 101.448 239.147 101.287 238.306C101.287 238.306 101.287 238.306 101.287 238.305L100.305 238.493L120.342 236.434ZM88.8036 191.481C91.5678 198.101 93.0132 205.021 93.369 212.147L61.7515 105.632L62.5674 105.054C62.5676 105.055 62.5678 105.055 62.568 105.055C62.9766 105.632 63.3203 106.241 63.6356 106.81C63.6691 106.87 63.7022 106.93 63.735 106.989C64.0193 107.503 64.2831 107.98 64.5785 108.433C65.3213 109.564 66.1857 110.301 67.1477 110.713C68.1116 111.127 69.2473 111.247 70.5821 111.022L70.5826 111.022C71.0108 110.95 71.441 110.851 71.8964 110.741C71.977 110.721 72.0588 110.701 72.1416 110.681C72.5163 110.59 72.9109 110.494 73.3066 110.411L73.3072 110.411C75.0176 110.058 76.5813 110.067 77.717 110.944C78.8654 111.83 79.2405 113.339 79.2646 115.094L79.2646 115.094C79.3082 118.389 78.9167 121.71 77.7083 124.875C77.0692 126.55 76.9242 127.998 77.2097 129.303C77.495 130.607 78.2324 131.869 79.534 133.133M88.8036 191.481C88.8037 191.482 88.8038 191.482 88.8039 191.482L87.8809 191.867L88.8036 191.481ZM88.8036 191.481C87.8385 189.166 86.7309 186.822 85.153 184.729L85.1525 184.728C83.2078 182.153 82.7299 179.337 83.3599 176.127M83.3599 176.127C84.4737 170.477 85.9626 164.914 87.8679 159.514L86.9249 159.181M83.3599 176.127L82.3788 175.934M83.3599 176.127C83.36 176.127 83.36 176.127 83.3601 176.127L82.3788 175.934M86.9249 159.181L87.868 159.514C89.6087 154.578 89.1725 149.925 87.3706 145.336L86.4398 145.702M86.9249 159.181C85.0024 164.631 83.5012 170.24 82.3788 175.934M86.9249 159.181C88.5713 154.513 88.1712 150.111 86.4398 145.702M86.4398 145.702L87.3706 145.336C85.5867 140.794 83.0986 136.586 79.534 133.133M86.4398 145.702L82.3788 175.934M79.534 133.133C79.5343 133.134 79.5346 133.134 79.5349 133.134L78.8382 133.852L79.534 133.133ZM82.3788 175.934C81.7026 179.378 82.2124 182.494 84.3544 185.331L82.3788 175.934ZM11.0148 40.1268L11.0145 40.1272C3.57036 46.2149 0.888395 54.367 1.00353 64.4841C1.04597 65.0148 1.08687 65.5882 1.12996 66.1926C1.23963 67.7304 1.3636 69.4688 1.56389 71.2137L11.0148 40.1268ZM11.0148 40.1268C14.8898 36.9547 17.3834 32.9366 18.4807 28.0416C19.4847 23.5709 21.6578 19.9954 25.4924 17.4322L25.4929 17.4318M11.0148 40.1268L25.4929 17.4318M25.4929 17.4318C28.2526 15.5846 30.1579 12.8883 31.8824 10.3425M25.4929 17.4318L31.8824 10.3425M31.8824 10.3425C32.4734 9.4716 32.937 8.85044 33.3526 8.41436C33.7618 7.98503 34.0759 7.78781 34.3542 7.6981C34.9268 7.51354 35.734 7.65127 37.6391 8.49456C41.1827 10.0635 44.7279 10.1391 48.3266 9.08665L48.3269 9.08657C53.1632 7.67071 57.7667 5.6897 62.2933 3.66894C65.0054 2.45954 67.5617 1.34027 70.3657 1.07076L70.366 1.07073C73.6546 0.753894 76.0997 1.51518 77.6898 3.01241C79.2795 4.50929 80.1843 6.90142 80.0589 10.2012C80.0158 11.3206 80.0279 12.2864 80.1558 13.0996C80.2849 13.9205 80.5424 14.6574 81.0448 15.2563C82.0451 16.4489 83.7168 16.7385 85.7731 16.8503L85.7735 16.8503C88.7766 17.0123 91.2717 18.0443 93.3065 20.1588C95.5183 22.4661 98.1449 24.1003 101.25 24.9429L101.251 24.943C102.857 25.3782 104.399 25.461 105.562 24.6876C106.768 23.8859 107.199 22.4235 107.21 20.7015L31.8824 10.3425ZM110.468 16.2487C111.27 16.308 112.229 16.5276 113.355 16.8919L107.21 20.7006C107.231 17.9539 107.915 16.9106 108.672 16.514C109.09 16.2954 109.667 16.1895 110.468 16.2487ZM53.2309 105.988C51.1745 107.365 48.9428 107.962 46.5207 107.658C40.0645 106.846 33.5584 106.268 26.9061 107.021L26.9057 107.021C22.5828 107.512 18.9545 105.266 15.9584 101.929L15.9581 101.929C8.05892 93.1374 2.92821 83.037 1.56396 71.2143L53.2309 105.988ZM76.7741 124.519C77.9248 121.505 78.3072 118.317 78.2647 115.107C78.2186 111.753 76.806 110.709 73.5097 111.391L76.7741 124.519Z" stroke="white" stroke-opacity="0.3" stroke-width="2"/>
</svg>
