<svg width="239" height="235" viewBox="0 0 239 235" fill="none" xmlns="http://www.w3.org/2000/svg">
<mask id="path-1-inside-1_2922_6840" fill="white">
<path d="M11.7155 99.8084C12.6185 97.5424 11.7468 93.6271 9.94706 91.9683C9.41403 91.477 8.83083 90.9981 8.24449 90.6163C7.81807 90.3377 7.4324 90.0435 7.0875 89.7337C4.00845 86.9951 3.97709 83.18 4.137 79.3022C4.14641 79.0393 4.15582 78.7826 4.14955 78.5323C4.14328 78.1129 4.09311 77.7091 3.9426 77.3148C3.89244 77.1739 3.82659 77.0331 3.74507 76.8954C3.14619 74.3384 2.06758 71.9629 0.778896 69.7157C0.691103 69.5623 0.612715 69.4121 0.540599 69.2619C-0.572499 66.9521 0.145528 64.9679 1.67251 63.1307C3.32491 61.1433 5.54484 60.8366 7.93095 61.5345C8.72736 61.7661 9.47047 62.1792 10.2951 62.3326C12.0196 62.655 13.4902 62.2763 14.0577 60.4516C14.6064 58.6958 13.7441 57.4658 12.2328 56.5832C10.687 55.6818 8.26644 56.4486 7.47316 54.1608C6.75514 52.1014 8.77439 51.031 9.31997 49.4129C9.93139 47.5883 9.51437 45.917 8.88727 44.2457C7.7146 41.1316 6.48235 38.0362 5.21561 34.9628C3.37194 30.4778 4.25615 26.4154 6.752 22.5157C7.62994 21.1449 8.60508 19.9149 10.5334 20.6911C12.6154 18.7162 12.9509 17.2984 11.8848 14.9167C11.5023 14.0654 11.0727 13.236 10.7059 12.3784C10.6494 12.2407 10.8125 12.0091 10.9191 11.6867C12.283 11.4583 13.5121 12.1374 14.7318 12.5975C19.7267 14.4847 24.3076 14.0434 28.575 10.6351C31.0677 8.6446 34.0652 7.66812 37.1725 7.04842C39.5273 6.57896 41.8977 6.16896 44.2368 5.63064C45.585 5.32079 47.2625 5.48041 47.7611 3.59629C47.8771 3.15187 48.4321 2.96095 48.8083 3.11744C50.3886 3.77782 51.3387 2.7982 52.4047 1.92187C54.3707 0.31004 56.6941 -0.284615 59.168 0.125384C63.8022 0.895306 68.4271 1.73721 72.9673 2.97973C73.4689 3.11431 73.9706 3.28958 74.4378 3.51492C76.0777 4.31301 76.3567 4.84507 75.3126 6.35988C74.3155 7.80896 74.9677 7.99048 76.1404 8.81361C78.0311 10.1438 79.7838 9.7901 81.7999 9.63048C85.3273 9.3488 88.9363 9.12346 92.4324 9.54285C97.7564 10.1813 103.065 10.0217 108.383 10.0123C111.048 10.0092 113.076 10.8949 115.158 12.5944C117.689 14.66 120.677 16.1717 124.248 15.0231C127.202 14.0747 130.434 13.8807 132.943 11.7306C133.209 11.5021 133.739 11.5115 134.141 11.5271C140.415 11.7931 146.57 12.8228 152.631 14.4441C154.343 14.9041 156.083 15.2641 157.795 15.7304C161.031 16.6067 164.204 16.3689 167.355 15.3329C171.465 13.9871 175.507 14.2218 179.652 15.4644C185.556 17.2327 191.614 18.2968 197.772 18.8789C201.845 19.2608 205.84 19.2576 209.922 18.9228C215.228 18.4908 220.595 18.8727 225.681 20.6566C230.35 22.2966 234.417 24.8787 237.787 28.6626C239.706 30.819 239.383 32.772 236.564 33.9675C233.492 35.2726 230.312 36.3868 227.384 37.958C225.223 39.1191 222.966 39.9767 220.699 40.756C218.153 41.6323 217.821 44.1549 216.372 45.82C215.783 46.5022 216.648 47.4161 217.284 47.9263C219.849 49.9794 221.718 52.5709 223.562 55.2499C224.342 56.3798 224.828 57.2561 224.49 58.6113C224.189 59.8131 224.352 61.112 223.875 62.2982C223.59 63.0086 223.22 63.6252 222.333 63.6283C221.514 63.6314 221.113 63.259 220.771 62.439C219.498 59.4 217.413 58.5362 214.763 56.3015C212.026 53.9918 207.756 52.1014 208.634 47.0844C208.881 45.6666 208.699 44.1706 208.656 42.7121C208.618 41.4915 208.834 40.1269 206.884 40.0612C205.692 40.0205 206.542 38.5464 205.655 38.0112C204.407 38.2584 203.284 39.6418 201.657 38.7748C201.08 38.465 200.644 39.3413 200.29 39.8327C198.497 42.3084 196.107 43.9139 193.125 44.5211C191.338 44.8873 189.968 46.5367 188.306 46.521C186.657 46.5085 185.237 44.9624 183.427 44.6838C181.888 44.446 180.417 43.795 178.881 43.5258C176.435 43.0971 175.567 43.6855 174.507 46.1235C174.391 46.3927 174.237 46.8277 174.046 46.8559C171.563 47.2534 172.444 48.9685 172.873 50.2079C173.77 52.8025 175.074 54.8024 178.317 55.3783C182.092 56.0449 185.716 57.5096 188.773 60.0604C191.84 62.6205 193.48 65.8192 193.64 69.8159C193.727 72.0317 193.022 74.4479 195.06 76.2444C194.897 78.4509 195.985 80.2505 196.973 82.0783C197.311 82.7074 197.415 83.5931 198.17 83.8372C199.343 84.219 199.186 84.9952 198.954 85.8371C198.481 87.5554 198.91 89.1672 199.635 90.6883C200.19 91.8557 200.566 93.2015 202.57 92.6162C203.654 92.297 205.73 94.4909 206.009 95.7866C206.141 96.3907 206.21 97.0417 206.141 97.652C205.667 101.796 205.464 105.955 205.492 110.127C205.501 111.789 204.608 113.135 203.538 114.29C200.221 117.88 196.107 120.352 191.627 122.174C189.407 123.078 188.407 122.077 188.918 119.783C189.325 117.945 190.432 116.584 191.931 115.545C193.922 114.158 195.59 112.431 197.176 110.637C199.995 107.451 200.456 103.883 199.105 99.8366C198.578 98.2592 196.295 97.8304 196.565 96.832C197.001 95.2295 196.656 94.0371 196.154 92.6882C195.791 91.7117 195.543 90.6914 195.179 89.718C194.364 87.5397 192.755 86.8042 190.601 87.74C189.498 88.222 188.381 88.2314 187.24 88.3284C184.236 88.5882 183.004 90.0404 183.923 92.9198C185.121 96.6755 186.372 100.472 188.482 103.849C189.607 105.652 189.742 107.564 189.745 109.526C189.749 110.825 189.049 111.908 188.115 112.806C187.137 113.748 185.983 114.149 184.669 113.705C183.374 113.27 183.136 112.108 182.988 110.941C182.474 106.828 180.659 103.43 177.517 100.7C175.786 99.2012 174.027 98.1246 171.572 98.8382C170.49 99.1543 169.33 99.0009 168.17 98.7318C166.414 98.328 165.079 99.1417 164.458 100.725C164.263 101.22 164.031 101.862 164.398 102.225C166.051 103.865 166.75 106.381 169.133 107.342C169.509 107.495 169.951 107.93 170.221 107.833C172.469 107.044 172.967 108.575 173.356 110.155C173.616 111.226 174.35 111.977 174.88 112.863C178.683 119.204 180.295 125.92 178.439 133.244C176.918 139.237 173.541 143.45 167.345 145.184C163.015 146.398 158.613 147.274 154.245 148.31C153.226 148.551 152.21 148.752 151.264 149.221C150.367 149.666 149.671 150.141 149.925 151.362C150.172 152.545 149.498 153.578 149.141 154.661C148.448 156.773 148.727 157.731 150.542 158.901C151.43 159.474 152.314 159.994 152.885 160.908H152.888C153.436 161.196 154.158 161.349 154.502 161.793C155.565 163.17 156.829 164.097 158.563 164.056C158.779 165.026 158.08 165.533 158.105 166.322C158.253 170.823 156.177 174.591 153.813 178.181C151.844 181.173 147.793 181.912 144.629 179.987C142.566 178.729 140.835 177.06 139.295 175.195C138.436 174.153 137.721 173.23 136.483 175.073C135.962 175.846 136.298 174.156 135.348 174.156C135.586 177.445 135.589 180.719 137.947 183.411C137.978 186.14 140.035 187.833 141.195 189.993C141.732 190.991 142.312 191.958 142.914 192.913C144.685 195.736 145.67 198.772 145.268 202.12C144.936 204.89 143.657 205.444 141.597 203.585C138.947 201.197 137.144 198.089 135.059 195.226C134.056 193.845 133.733 191.902 131.645 191.404C130.974 191.241 131.008 190.349 131.153 189.748C131.532 188.149 131.074 186.653 130.757 185.12C130.052 181.711 130.159 178.278 130.616 174.854C130.783 173.608 131.033 172.372 130.852 171.123C130.732 170.306 130.692 169.011 130.215 168.792C128.215 167.862 127.823 166.044 126.979 164.341C126.446 163.268 125.101 162.642 123.809 163.865C123.521 164.138 123.079 164.26 122.693 164.416C120.275 165.415 118.924 164.654 118.513 162.028C118.388 161.208 118.476 160.354 118.347 159.534C118.081 157.797 117.99 155.96 116.256 154.864C115.648 154.479 115.579 153.866 115.591 153.218C115.619 151.963 115.058 151.265 113.747 151.202C113.054 151.168 112.725 150.711 112.409 150.091C110.916 147.162 108.348 146.357 105.498 147.872C104.288 148.514 103.143 149.312 102.366 150.432C100.121 153.675 96.9287 155.875 93.9029 158.247C91.7614 159.928 89.6857 161.653 87.8044 163.621C86.3683 165.12 85.4716 166.907 85.3587 168.917C85.0953 173.505 83.6843 177.899 83.2611 182.453C83.1607 183.539 82.7531 184.534 81.6243 184.913C80.4234 185.317 79.6364 184.494 78.9341 183.727C75.5509 180.031 73.4344 175.69 72.1614 170.851C70.3554 163.997 68.3016 157.23 64.6802 151.03C63.2159 148.523 62.2094 145.803 60.1933 143.566C58.7102 141.916 57.2929 140.32 55.2956 139.297C54.1198 138.693 53.1729 136.981 51.5707 138.633C51.4672 138.74 50.9185 138.605 50.7366 138.42C49.1908 136.843 47.3534 137.294 45.4502 137.425C42.4182 137.632 39.4426 136.974 36.4952 136.251C35.1219 135.913 33.7674 135.231 32.2749 136.154C31.6948 136.514 30.6068 136.305 30.4093 135.538C29.8386 133.309 28.321 134.082 27.0167 134.358C26.446 134.48 25.8816 135.168 25.3329 134.58C23.8341 132.981 21.6863 133.037 19.8489 132.539C15.2304 131.294 11.8879 128.646 9.34819 124.693"/>
</mask>
<path d="M11.7155 99.8084C12.6185 97.5424 11.7468 93.6271 9.94706 91.9683C9.41403 91.477 8.83083 90.9981 8.24449 90.6163C7.81807 90.3377 7.4324 90.0435 7.0875 89.7337C4.00845 86.9951 3.97709 83.18 4.137 79.3022C4.14641 79.0393 4.15582 78.7826 4.14955 78.5323C4.14328 78.1129 4.09311 77.7091 3.9426 77.3148C3.89244 77.1739 3.82659 77.0331 3.74507 76.8954C3.14619 74.3384 2.06758 71.9629 0.778896 69.7157C0.691103 69.5623 0.612715 69.4121 0.540599 69.2619C-0.572499 66.9521 0.145528 64.9679 1.67251 63.1307C3.32491 61.1433 5.54484 60.8366 7.93095 61.5345C8.72736 61.7661 9.47047 62.1792 10.2951 62.3326C12.0196 62.655 13.4902 62.2763 14.0577 60.4516C14.6064 58.6958 13.7441 57.4658 12.2328 56.5832C10.687 55.6818 8.26644 56.4486 7.47316 54.1608C6.75514 52.1014 8.77439 51.031 9.31997 49.4129C9.93139 47.5883 9.51437 45.917 8.88727 44.2457C7.7146 41.1316 6.48235 38.0362 5.21561 34.9628C3.37194 30.4778 4.25615 26.4154 6.752 22.5157C7.62994 21.1449 8.60508 19.9149 10.5334 20.6911C12.6154 18.7162 12.9509 17.2984 11.8848 14.9167C11.5023 14.0654 11.0727 13.236 10.7059 12.3784C10.6494 12.2407 10.8125 12.0091 10.9191 11.6867C12.283 11.4583 13.5121 12.1374 14.7318 12.5975C19.7267 14.4847 24.3076 14.0434 28.575 10.6351C31.0677 8.6446 34.0652 7.66812 37.1725 7.04842C39.5273 6.57896 41.8977 6.16896 44.2368 5.63064C45.585 5.32079 47.2625 5.48041 47.7611 3.59629C47.8771 3.15187 48.4321 2.96095 48.8083 3.11744C50.3886 3.77782 51.3387 2.7982 52.4047 1.92187C54.3707 0.31004 56.6941 -0.284615 59.168 0.125384C63.8022 0.895306 68.4271 1.73721 72.9673 2.97973C73.4689 3.11431 73.9706 3.28958 74.4378 3.51492C76.0777 4.31301 76.3567 4.84507 75.3126 6.35988C74.3155 7.80896 74.9677 7.99048 76.1404 8.81361C78.0311 10.1438 79.7838 9.7901 81.7999 9.63048C85.3273 9.3488 88.9363 9.12346 92.4324 9.54285C97.7564 10.1813 103.065 10.0217 108.383 10.0123C111.048 10.0092 113.076 10.8949 115.158 12.5944C117.689 14.66 120.677 16.1717 124.248 15.0231C127.202 14.0747 130.434 13.8807 132.943 11.7306C133.209 11.5021 133.739 11.5115 134.141 11.5271C140.415 11.7931 146.57 12.8228 152.631 14.4441C154.343 14.9041 156.083 15.2641 157.795 15.7304C161.031 16.6067 164.204 16.3689 167.355 15.3329C171.465 13.9871 175.507 14.2218 179.652 15.4644C185.556 17.2327 191.614 18.2968 197.772 18.8789C201.845 19.2608 205.84 19.2576 209.922 18.9228C215.228 18.4908 220.595 18.8727 225.681 20.6566C230.35 22.2966 234.417 24.8787 237.787 28.6626C239.706 30.819 239.383 32.772 236.564 33.9675C233.492 35.2726 230.312 36.3868 227.384 37.958C225.223 39.1191 222.966 39.9767 220.699 40.756C218.153 41.6323 217.821 44.1549 216.372 45.82C215.783 46.5022 216.648 47.4161 217.284 47.9263C219.849 49.9794 221.718 52.5709 223.562 55.2499C224.342 56.3798 224.828 57.2561 224.49 58.6113C224.189 59.8131 224.352 61.112 223.875 62.2982C223.59 63.0086 223.22 63.6252 222.333 63.6283C221.514 63.6314 221.113 63.259 220.771 62.439C219.498 59.4 217.413 58.5362 214.763 56.3015C212.026 53.9918 207.756 52.1014 208.634 47.0844C208.881 45.6666 208.699 44.1706 208.656 42.7121C208.618 41.4915 208.834 40.1269 206.884 40.0612C205.692 40.0205 206.542 38.5464 205.655 38.0112C204.407 38.2584 203.284 39.6418 201.657 38.7748C201.08 38.465 200.644 39.3413 200.29 39.8327C198.497 42.3084 196.107 43.9139 193.125 44.5211C191.338 44.8873 189.968 46.5367 188.306 46.521C186.657 46.5085 185.237 44.9624 183.427 44.6838C181.888 44.446 180.417 43.795 178.881 43.5258C176.435 43.0971 175.567 43.6855 174.507 46.1235C174.391 46.3927 174.237 46.8277 174.046 46.8559C171.563 47.2534 172.444 48.9685 172.873 50.2079C173.77 52.8025 175.074 54.8024 178.317 55.3783C182.092 56.0449 185.716 57.5096 188.773 60.0604C191.84 62.6205 193.48 65.8192 193.64 69.8159C193.727 72.0317 193.022 74.4479 195.06 76.2444C194.897 78.4509 195.985 80.2505 196.973 82.0783C197.311 82.7074 197.415 83.5931 198.17 83.8372C199.343 84.219 199.186 84.9952 198.954 85.8371C198.481 87.5554 198.91 89.1672 199.635 90.6883C200.19 91.8557 200.566 93.2015 202.57 92.6162C203.654 92.297 205.73 94.4909 206.009 95.7866C206.141 96.3907 206.21 97.0417 206.141 97.652C205.667 101.796 205.464 105.955 205.492 110.127C205.501 111.789 204.608 113.135 203.538 114.29C200.221 117.88 196.107 120.352 191.627 122.174C189.407 123.078 188.407 122.077 188.918 119.783C189.325 117.945 190.432 116.584 191.931 115.545C193.922 114.158 195.59 112.431 197.176 110.637C199.995 107.451 200.456 103.883 199.105 99.8366C198.578 98.2592 196.295 97.8304 196.565 96.832C197.001 95.2295 196.656 94.0371 196.154 92.6882C195.791 91.7117 195.543 90.6914 195.179 89.718C194.364 87.5397 192.755 86.8042 190.601 87.74C189.498 88.222 188.381 88.2314 187.24 88.3284C184.236 88.5882 183.004 90.0404 183.923 92.9198C185.121 96.6755 186.372 100.472 188.482 103.849C189.607 105.652 189.742 107.564 189.745 109.526C189.749 110.825 189.049 111.908 188.115 112.806C187.137 113.748 185.983 114.149 184.669 113.705C183.374 113.27 183.136 112.108 182.988 110.941C182.474 106.828 180.659 103.43 177.517 100.7C175.786 99.2012 174.027 98.1246 171.572 98.8382C170.49 99.1543 169.33 99.0009 168.17 98.7318C166.414 98.328 165.079 99.1417 164.458 100.725C164.263 101.22 164.031 101.862 164.398 102.225C166.051 103.865 166.75 106.381 169.133 107.342C169.509 107.495 169.951 107.93 170.221 107.833C172.469 107.044 172.967 108.575 173.356 110.155C173.616 111.226 174.35 111.977 174.88 112.863C178.683 119.204 180.295 125.92 178.439 133.244C176.918 139.237 173.541 143.45 167.345 145.184C163.015 146.398 158.613 147.274 154.245 148.31C153.226 148.551 152.21 148.752 151.264 149.221C150.367 149.666 149.671 150.141 149.925 151.362C150.172 152.545 149.498 153.578 149.141 154.661C148.448 156.773 148.727 157.731 150.542 158.901C151.43 159.474 152.314 159.994 152.885 160.908H152.888C153.436 161.196 154.158 161.349 154.502 161.793C155.565 163.17 156.829 164.097 158.563 164.056C158.779 165.026 158.08 165.533 158.105 166.322C158.253 170.823 156.177 174.591 153.813 178.181C151.844 181.173 147.793 181.912 144.629 179.987C142.566 178.729 140.835 177.06 139.295 175.195C138.436 174.153 137.721 173.23 136.483 175.073C135.962 175.846 136.298 174.156 135.348 174.156C135.586 177.445 135.589 180.719 137.947 183.411C137.978 186.14 140.035 187.833 141.195 189.993C141.732 190.991 142.312 191.958 142.914 192.913C144.685 195.736 145.67 198.772 145.268 202.12C144.936 204.89 143.657 205.444 141.597 203.585C138.947 201.197 137.144 198.089 135.059 195.226C134.056 193.845 133.733 191.902 131.645 191.404C130.974 191.241 131.008 190.349 131.153 189.748C131.532 188.149 131.074 186.653 130.757 185.12C130.052 181.711 130.159 178.278 130.616 174.854C130.783 173.608 131.033 172.372 130.852 171.123C130.732 170.306 130.692 169.011 130.215 168.792C128.215 167.862 127.823 166.044 126.979 164.341C126.446 163.268 125.101 162.642 123.809 163.865C123.521 164.138 123.079 164.26 122.693 164.416C120.275 165.415 118.924 164.654 118.513 162.028C118.388 161.208 118.476 160.354 118.347 159.534C118.081 157.797 117.99 155.96 116.256 154.864C115.648 154.479 115.579 153.866 115.591 153.218C115.619 151.963 115.058 151.265 113.747 151.202C113.054 151.168 112.725 150.711 112.409 150.091C110.916 147.162 108.348 146.357 105.498 147.872C104.288 148.514 103.143 149.312 102.366 150.432C100.121 153.675 96.9287 155.875 93.9029 158.247C91.7614 159.928 89.6857 161.653 87.8044 163.621C86.3683 165.12 85.4716 166.907 85.3587 168.917C85.0953 173.505 83.6843 177.899 83.2611 182.453C83.1607 183.539 82.7531 184.534 81.6243 184.913C80.4234 185.317 79.6364 184.494 78.9341 183.727C75.5509 180.031 73.4344 175.69 72.1614 170.851C70.3554 163.997 68.3016 157.23 64.6802 151.03C63.2159 148.523 62.2094 145.803 60.1933 143.566C58.7102 141.916 57.2929 140.32 55.2956 139.297C54.1198 138.693 53.1729 136.981 51.5707 138.633C51.4672 138.74 50.9185 138.605 50.7366 138.42C49.1908 136.843 47.3534 137.294 45.4502 137.425C42.4182 137.632 39.4426 136.974 36.4952 136.251C35.1219 135.913 33.7674 135.231 32.2749 136.154C31.6948 136.514 30.6068 136.305 30.4093 135.538C29.8386 133.309 28.321 134.082 27.0167 134.358C26.446 134.48 25.8816 135.168 25.3329 134.58C23.8341 132.981 21.6863 133.037 19.8489 132.539C15.2304 131.294 11.8879 128.646 9.34819 124.693" fill="white" fill-opacity="0.3"/>
<path d="M9.94706 91.9683L8.59148 93.4388L8.59163 93.439L9.94706 91.9683ZM8.24449 90.6163L7.15073 92.2907L7.15309 92.2922L8.24449 90.6163ZM7.0875 89.7337L8.42409 88.2458L8.41666 88.2392L7.0875 89.7337ZM4.137 79.3022L6.13534 79.3846L6.13573 79.3737L4.137 79.3022ZM4.14955 78.5323L2.14977 78.5622L2.14992 78.5722L2.15017 78.5823L4.14955 78.5323ZM3.9426 77.3148L2.05856 77.9859L2.06608 78.007L2.07406 78.0279L3.9426 77.3148ZM3.74507 76.8954L1.79776 77.3515L1.86773 77.6502L2.02403 77.9142L3.74507 76.8954ZM0.778896 69.7157L-0.956809 70.7094L-0.956062 70.7107L0.778896 69.7157ZM0.540599 69.2619L2.34362 68.3964L2.3423 68.3936L0.540599 69.2619ZM1.67251 63.1307L0.134636 61.852L0.134425 61.8523L1.67251 63.1307ZM7.93095 61.5345L7.36947 63.4541L7.37247 63.4549L7.93095 61.5345ZM10.2951 62.3326L10.6626 60.3666L10.6608 60.3663L10.2951 62.3326ZM14.0577 60.4516L12.1487 59.855L12.1479 59.8576L14.0577 60.4516ZM12.2328 56.5832L13.2414 54.8562L13.2403 54.8555L12.2328 56.5832ZM7.47316 54.1608L9.3628 53.5056L9.36167 53.5023L7.47316 54.1608ZM9.31997 49.4129L11.2151 50.0519L11.2163 50.0484L9.31997 49.4129ZM8.88727 44.2457L10.7598 43.5431L10.759 43.5409L8.88727 44.2457ZM5.21561 34.9628L3.36581 35.7232L3.36651 35.7249L5.21561 34.9628ZM6.752 22.5157L5.06779 21.4371L5.06747 21.4376L6.752 22.5157ZM10.5334 20.6911L9.7866 22.5464L10.978 23.026L11.9098 22.1421L10.5334 20.6911ZM11.8848 14.9167L13.7103 14.0996L13.7091 14.0969L11.8848 14.9167ZM10.7059 12.3784L8.85524 13.1369L8.86104 13.151L8.86704 13.165L10.7059 12.3784ZM10.9191 11.6867L10.5887 9.71422L9.39895 9.9135L9.02021 11.0588L10.9191 11.6867ZM14.7318 12.5975L15.4387 10.7266L15.4377 10.7262L14.7318 12.5975ZM28.575 10.6351L27.327 9.07228L27.3269 9.0724L28.575 10.6351ZM37.1725 7.04842L36.7815 5.08702L36.7813 5.08705L37.1725 7.04842ZM44.2368 5.63064L43.7888 3.68145L43.7882 3.68159L44.2368 5.63064ZM47.7611 3.59629L49.6945 4.10789L49.6962 4.10145L47.7611 3.59629ZM48.8083 3.11744L49.5795 1.27208L49.5763 1.27079L48.8083 3.11744ZM52.4047 1.92187L51.1367 0.375235L51.1347 0.37687L52.4047 1.92187ZM59.168 0.125384L59.4957 -1.84757L59.495 -1.8477L59.168 0.125384ZM72.9673 2.97973L72.4393 4.90882L72.4491 4.91143L72.9673 2.97973ZM74.4378 3.51492L75.313 1.71658L75.3067 1.71352L74.4378 3.51492ZM75.3126 6.35988L73.6659 5.22483L73.665 5.22617L75.3126 6.35988ZM76.1404 8.81361L77.2912 7.17786L77.2894 7.17663L76.1404 8.81361ZM81.7999 9.63048L81.9578 11.6242L81.9591 11.6241L81.7999 9.63048ZM92.4324 9.54285L92.1942 11.5286L92.1942 11.5286L92.4324 9.54285ZM108.383 10.0123L108.38 8.01231L108.379 8.01231L108.383 10.0123ZM115.158 12.5944L116.423 11.0451L116.423 11.045L115.158 12.5944ZM124.248 15.0231L123.637 13.1188L123.636 13.1191L124.248 15.0231ZM132.943 11.7306L134.244 13.249L134.245 13.249L132.943 11.7306ZM134.141 11.5271L134.225 9.5289L134.219 9.52864L134.141 11.5271ZM152.631 14.4441L153.15 12.5126L153.147 12.512L152.631 14.4441ZM157.795 15.7304L157.269 17.6601L157.272 17.6608L157.795 15.7304ZM167.355 15.3329L166.733 13.4322L166.73 13.433L167.355 15.3329ZM179.652 15.4644L179.078 17.3801L179.078 17.3803L179.652 15.4644ZM197.772 18.8789L197.584 20.8701L197.586 20.8702L197.772 18.8789ZM209.922 18.9228L209.76 16.9293L209.759 16.9294L209.922 18.9228ZM225.681 20.6566L226.344 18.7697L226.343 18.7694L225.681 20.6566ZM237.787 28.6626L239.281 27.333L239.281 27.3323L237.787 28.6626ZM236.564 33.9675L235.784 32.1263L235.783 32.1267L236.564 33.9675ZM227.384 37.958L226.438 36.1956L226.437 36.1963L227.384 37.958ZM220.699 40.756L220.049 38.8646L220.048 38.8649L220.699 40.756ZM216.372 45.82L214.863 44.5072L214.859 44.5124L216.372 45.82ZM217.284 47.9263L216.034 49.4869L216.035 49.4876L217.284 47.9263ZM223.562 55.2499L221.914 56.3837L221.916 56.3869L223.562 55.2499ZM224.49 58.6113L226.43 59.0972L226.43 59.0962L224.49 58.6113ZM223.875 62.2982L222.019 61.5525L222.019 61.5528L223.875 62.2982ZM222.333 63.6283L222.325 61.6283L222.325 61.6283L222.333 63.6283ZM220.771 62.439L222.617 61.6696L222.616 61.6663L220.771 62.439ZM214.763 56.3015L213.474 57.8301L213.474 57.8304L214.763 56.3015ZM208.634 47.0844L210.604 47.4291L210.604 47.4286L208.634 47.0844ZM208.656 42.7121L210.655 42.6519L210.655 42.6505L208.656 42.7121ZM206.884 40.0612L206.816 42.06L206.817 42.0601L206.884 40.0612ZM205.655 38.0112L206.688 36.2986L206.025 35.8989L205.266 36.0493L205.655 38.0112ZM201.657 38.7748L200.711 40.5368L200.717 40.54L201.657 38.7748ZM200.29 39.8327L201.91 41.0061L201.912 41.0025L200.29 39.8327ZM193.125 44.5211L192.726 42.5613L192.724 42.5618L193.125 44.5211ZM188.306 46.521L188.325 44.5211L188.321 44.5211L188.306 46.521ZM183.427 44.6838L183.122 46.6604L183.123 46.6606L183.427 44.6838ZM178.881 43.5258L178.536 45.4958L178.536 45.4958L178.881 43.5258ZM174.507 46.1235L172.673 45.3262L172.67 45.3319L174.507 46.1235ZM174.046 46.8559L173.755 44.8773L173.742 44.8791L173.73 44.881L174.046 46.8559ZM172.873 50.2079L174.764 49.5546L174.763 49.5529L172.873 50.2079ZM178.317 55.3783L177.967 57.3474L177.969 57.3478L178.317 55.3783ZM188.773 60.0604L190.055 58.5251L190.055 58.5247L188.773 60.0604ZM193.64 69.8159L195.638 69.7367L195.638 69.7359L193.64 69.8159ZM195.06 76.2444L197.055 76.3918L197.128 75.401L196.383 74.7441L195.06 76.2444ZM196.973 82.0783L198.734 81.1303L198.732 81.1275L196.973 82.0783ZM198.17 83.8372L198.79 81.9355L198.785 81.9341L198.17 83.8372ZM198.954 85.8371L197.026 85.3057L197.026 85.3058L198.954 85.8371ZM199.635 90.6883L201.441 89.8296L201.44 89.8284L199.635 90.6883ZM202.57 92.6162L203.13 94.536L203.134 94.5349L202.57 92.6162ZM206.009 95.7866L204.054 96.2077L204.055 96.2127L206.009 95.7866ZM206.141 97.652L208.128 97.879L208.128 97.8766L206.141 97.652ZM205.492 110.127L207.492 110.116L207.492 110.114L205.492 110.127ZM203.538 114.29L202.071 112.931L202.07 112.932L203.538 114.29ZM191.627 122.174L190.873 120.321L190.872 120.322L191.627 122.174ZM188.918 119.783L190.87 120.217L190.87 120.216L188.918 119.783ZM191.931 115.545L193.07 117.188L193.074 117.186L191.931 115.545ZM197.176 110.637L195.679 109.312L195.679 109.312L197.176 110.637ZM199.105 99.8366L201.002 99.2031L199.105 99.8366ZM196.565 96.832L194.635 96.3071L194.634 96.3105L196.565 96.832ZM196.154 92.6882L198.029 91.991L198.029 91.9901L196.154 92.6882ZM195.179 89.718L197.053 89.018L197.052 89.017L195.179 89.718ZM190.601 87.74L189.804 85.9056L189.801 85.9072L190.601 87.74ZM187.24 88.3284L187.071 86.3356L187.068 86.3359L187.24 88.3284ZM183.923 92.9198L185.828 92.3121L185.828 92.3119L183.923 92.9198ZM188.482 103.849L190.178 102.79L190.178 102.789L188.482 103.849ZM189.745 109.526L187.745 109.53V109.531L189.745 109.526ZM188.115 112.806L186.729 111.364L186.728 111.366L188.115 112.806ZM184.669 113.705L185.31 111.81L185.306 111.809L184.669 113.705ZM182.988 110.941L181.004 111.189L181.004 111.191L182.988 110.941ZM177.517 100.7L178.829 99.1905L178.826 99.1886L177.517 100.7ZM171.572 98.8382L171.014 96.9176L171.011 96.9184L171.572 98.8382ZM168.17 98.7318L168.622 96.7835L168.618 96.7826L168.17 98.7318ZM164.458 100.725L166.319 101.457L166.32 101.455L164.458 100.725ZM164.398 102.225L165.807 100.805L165.805 100.803L164.398 102.225ZM169.133 107.342L169.888 105.49L169.881 105.487L169.133 107.342ZM170.221 107.833L169.559 105.946L169.551 105.949L169.544 105.951L170.221 107.833ZM173.356 110.155L175.3 109.683L175.298 109.678L173.356 110.155ZM174.88 112.863L173.164 113.889L173.165 113.891L174.88 112.863ZM178.439 133.244L180.377 133.736L180.378 133.735L178.439 133.244ZM167.345 145.184L166.806 143.258L166.805 143.258L167.345 145.184ZM154.245 148.31L154.706 150.257L154.707 150.256L154.245 148.31ZM151.264 149.221L152.152 151.013L152.152 151.013L151.264 149.221ZM149.925 151.362L147.967 151.769L147.967 151.772L149.925 151.362ZM149.141 154.661L147.242 154.034L147.24 154.037L149.141 154.661ZM150.542 158.901L151.627 157.221L151.626 157.221L150.542 158.901ZM152.885 160.908L151.188 161.967L151.776 162.908H152.885V160.908ZM152.888 160.908L153.817 159.137L153.381 158.908H152.888V160.908ZM154.502 161.793L156.086 160.571L156.083 160.567L154.502 161.793ZM158.563 164.056L160.515 163.621L160.158 162.018L158.516 162.057L158.563 164.056ZM158.105 166.322L156.106 166.386L156.106 166.388L158.105 166.322ZM153.813 178.181L152.142 177.081L152.142 177.081L153.813 178.181ZM144.629 179.987L143.588 181.694L143.589 181.695L144.629 179.987ZM139.295 175.195L137.752 176.467L137.753 176.468L139.295 175.195ZM136.483 175.073L138.142 176.19L138.143 176.188L136.483 175.073ZM135.348 174.156V172.156H133.198L133.353 174.3L135.348 174.156ZM137.947 183.411L139.947 183.388L139.938 182.649L139.452 182.093L137.947 183.411ZM141.195 189.993L142.957 189.046L142.957 189.046L141.195 189.993ZM142.914 192.913L144.608 191.85L144.605 191.846L142.914 192.913ZM145.268 202.12L147.254 202.359L147.254 202.358L145.268 202.12ZM141.597 203.585L142.937 202.1L142.936 202.1L141.597 203.585ZM135.059 195.226L133.442 196.402L133.442 196.403L135.059 195.226ZM131.645 191.404L131.173 193.348L131.181 193.35L131.645 191.404ZM131.153 189.748L133.097 190.215L133.099 190.21L131.153 189.748ZM130.757 185.12L132.716 184.715L132.716 184.714L130.757 185.12ZM130.616 174.854L132.599 175.119L132.599 175.118L130.616 174.854ZM130.852 171.123L132.831 170.835L132.831 170.835L130.852 171.123ZM130.215 168.792L129.372 170.605L129.38 170.609L130.215 168.792ZM126.979 164.341L128.771 163.453L128.771 163.452L126.979 164.341ZM123.809 163.865L125.182 165.32L125.185 165.317L123.809 163.865ZM122.693 164.416L121.941 162.563L121.93 162.568L122.693 164.416ZM118.513 162.028L116.536 162.331L116.537 162.337L118.513 162.028ZM118.347 159.534L116.37 159.837L116.371 159.843L118.347 159.534ZM116.256 154.864L115.186 156.554L115.188 156.555L116.256 154.864ZM115.591 153.218L113.592 153.173L113.591 153.179L115.591 153.218ZM113.747 151.202L113.648 153.2L113.652 153.2L113.747 151.202ZM112.409 150.091L110.627 150.999L110.628 151.001L112.409 150.091ZM105.498 147.872L106.435 149.639L106.437 149.638L105.498 147.872ZM102.366 150.432L100.723 149.292L100.721 149.294L102.366 150.432ZM93.9029 158.247L92.6689 156.673L92.6682 156.674L93.9029 158.247ZM87.8044 163.621L89.2487 165.005L89.2503 165.003L87.8044 163.621ZM85.3587 168.917L87.3554 169.031L87.3556 169.029L85.3587 168.917ZM83.2611 182.453L81.2696 182.268L81.2695 182.269L83.2611 182.453ZM81.6243 184.913L80.9882 183.017L80.987 183.017L81.6243 184.913ZM78.9341 183.727L77.4588 185.077L77.4593 185.078L78.9341 183.727ZM72.1614 170.851L74.0956 170.342L74.0954 170.341L72.1614 170.851ZM64.6802 151.03L62.9532 152.039L62.9532 152.039L64.6802 151.03ZM60.1933 143.566L58.7061 144.903L58.7074 144.904L60.1933 143.566ZM55.2956 139.297L54.3817 141.076L54.3836 141.077L55.2956 139.297ZM51.5707 138.633L53.0046 140.027L53.0066 140.025L51.5707 138.633ZM50.7366 138.42L49.3082 139.82L49.3117 139.824L50.7366 138.42ZM45.4502 137.425L45.5861 139.42L45.588 139.42L45.4502 137.425ZM36.4952 136.251L36.0173 138.193L36.0188 138.194L36.4952 136.251ZM32.2749 136.154L31.2227 134.453L31.2204 134.455L32.2749 136.154ZM30.4093 135.538L28.4718 136.034L28.4725 136.037L30.4093 135.538ZM27.0167 134.358L26.6035 132.401L26.5983 132.402L27.0167 134.358ZM25.3329 134.58L26.7956 133.216L26.7922 133.212L25.3329 134.58ZM19.8489 132.539L20.3718 130.609L20.3697 130.608L19.8489 132.539ZM13.5734 100.549C14.2259 98.9113 14.1779 96.9219 13.7962 95.2224C13.4147 93.5236 12.6066 91.6996 11.3025 90.4977L8.59163 93.439C9.08734 93.8959 9.61494 94.8589 9.89343 96.0989C10.1718 97.3382 10.108 98.4395 9.85758 99.068L13.5734 100.549ZM11.3026 90.4978C10.7181 89.959 10.0453 89.4023 9.3359 88.9403L7.15309 92.2922C7.61633 92.5939 8.10994 92.9949 8.59148 93.4388L11.3026 90.4978ZM9.33826 88.9418C8.98916 88.7138 8.68593 88.4811 8.42408 88.2459L5.75092 91.2215C6.17888 91.6059 6.64698 91.9616 7.15073 92.2907L9.33826 88.9418ZM8.41666 88.2392C6.12492 86.2009 5.97169 83.3522 6.13531 79.3846L2.1387 79.2198C1.9825 83.0077 1.89198 87.7893 5.75833 91.2281L8.41666 88.2392ZM6.13573 79.3737C6.14465 79.1242 6.15699 78.8046 6.14892 78.4822L2.15017 78.5823C2.15464 78.7607 2.14817 78.9543 2.13828 79.2307L6.13573 79.3737ZM6.14932 78.5023C6.14099 77.9453 6.07345 77.2889 5.81115 76.6016L2.07406 78.0279C2.11276 78.1293 2.14556 78.2804 2.14977 78.5622L6.14932 78.5023ZM5.82665 76.6437C5.73242 76.3792 5.61145 76.1221 5.46611 75.8765L2.02403 77.9142C2.04173 77.9441 2.05245 77.9687 2.05856 77.9859L5.82665 76.6437ZM5.69237 76.4393C5.03515 73.6332 3.86262 71.0727 2.51385 68.7208L-0.956062 70.7107C0.272546 72.8531 1.25723 75.0435 1.79776 77.3515L5.69237 76.4393ZM2.5146 68.7221C2.45192 68.6126 2.39586 68.5052 2.34362 68.3964L-1.26242 70.1274C-1.17043 70.319 -1.06971 70.5121 -0.956808 70.7094L2.5146 68.7221ZM2.3423 68.3936C1.97244 67.6261 1.94097 67.0143 2.0665 66.4636C2.20321 65.8639 2.56241 65.1889 3.2106 64.4091L0.134425 61.8523C-0.744371 62.9096 -1.50767 64.1454 -1.83345 65.5746C-2.1704 67.0527 -2.00434 68.5879 -1.2611 70.1301L2.3423 68.3936ZM3.21038 64.4093C3.76829 63.7383 4.35653 63.4135 4.96458 63.277C5.60546 63.1332 6.40173 63.171 7.36947 63.4541L8.49242 59.6149C7.07405 59.2001 5.56731 59.0423 4.0886 59.3741C2.57705 59.7134 1.22913 60.5356 0.134636 61.852L3.21038 64.4093ZM7.37247 63.4549C7.65971 63.5385 7.92245 63.6495 8.37607 63.8263C8.77986 63.9837 9.31997 64.1855 9.92943 64.2989L10.6608 60.3663C10.4456 60.3263 10.2018 60.2449 9.82881 60.0995C9.50561 59.9735 8.99859 59.7621 8.48942 59.6141L7.37247 63.4549ZM9.92761 64.2985C10.9891 64.497 12.2383 64.5363 13.4031 64.0334C14.6626 63.4895 15.5343 62.4383 15.9674 61.0456L12.1479 59.8576C12.0734 60.0974 11.9935 60.213 11.9506 60.2634C11.9119 60.3088 11.8738 60.3368 11.8174 60.3611C11.674 60.423 11.3256 60.4906 10.6626 60.3666L9.92761 64.2985ZM15.9666 61.0482C16.3833 59.7148 16.2956 58.4121 15.6871 57.2574C15.1134 56.169 14.1778 55.403 13.2414 54.8562L11.2242 58.3103C11.7992 58.6461 12.0504 58.9363 12.1485 59.1225C12.2117 59.2424 12.2808 59.4326 12.1487 59.855L15.9666 61.0482ZM13.2403 54.8555C12.5644 54.4614 11.8631 54.2886 11.3378 54.1844C11.0743 54.1321 10.8022 54.0879 10.5918 54.0521C10.3645 54.0135 10.1835 53.9807 10.0202 53.9431C9.68723 53.8663 9.56062 53.7967 9.51105 53.7606C9.49952 53.7523 9.43605 53.7168 9.3628 53.5056L5.58353 54.816C5.90692 55.7487 6.4435 56.4753 7.15725 56.9948C7.83296 57.4866 8.55684 57.7106 9.12143 57.8408C9.40689 57.9066 9.68645 57.9556 9.92163 57.9956C10.1737 58.0384 10.3661 58.0696 10.5593 58.1079C10.9474 58.1849 11.1283 58.2543 11.2254 58.3109L13.2403 54.8555ZM9.36167 53.5023C9.29951 53.3241 9.26324 53.2177 9.5885 52.7282C9.83655 52.3549 9.95326 52.2395 10.3328 51.7031C10.6237 51.292 10.9854 50.7334 11.2151 50.0519L7.42479 48.7739C7.38178 48.9015 7.28641 49.0834 7.0677 49.3925C6.93766 49.5763 6.49213 50.1605 6.25693 50.5145C5.61568 51.4795 4.92879 52.9381 5.58466 54.8192L9.36167 53.5023ZM11.2163 50.0484C12.0545 47.5471 11.4276 45.3229 10.7598 43.5431L7.01474 44.9483C7.60112 46.5111 7.80829 47.6294 7.4236 48.7775L11.2163 50.0484ZM10.759 43.5409C9.57758 40.4036 8.3375 37.2888 7.06471 34.2007L3.36651 35.7249C4.6272 38.7837 5.85162 41.8595 7.01558 44.9505L10.759 43.5409ZM7.06541 34.2024C5.53014 30.4676 6.19676 27.0934 8.43653 23.5938L5.06747 21.4376C2.31554 25.7374 1.21375 30.4881 3.36581 35.7232L7.06541 34.2024ZM8.43621 23.5944C8.64403 23.2699 8.81712 23.0185 8.98264 22.8185C9.14754 22.6193 9.26231 22.5243 9.32954 22.4811C9.37996 22.4487 9.39289 22.451 9.3987 22.4506C9.41407 22.4495 9.5299 22.4431 9.7866 22.5464L11.2802 18.8357C9.77437 18.2296 8.3597 18.3501 7.16807 19.1154C6.16295 19.7609 5.49567 20.769 5.06779 21.4371L8.43621 23.5944ZM11.9098 22.1421C13.0492 21.0613 13.9924 19.8812 14.3368 18.4131C14.6907 16.9043 14.326 15.4751 13.7103 14.0996L10.0593 15.7337C10.5097 16.7399 10.5103 17.2105 10.4425 17.4997C10.3651 17.8297 10.0996 18.346 9.157 19.24L11.9098 22.1421ZM13.7091 14.0969C13.233 13.0374 12.9335 12.5007 12.5447 11.5918L8.86704 13.165C9.21193 13.9712 9.77153 15.0933 10.0605 15.7364L13.7091 14.0969ZM12.5565 11.62C12.7487 12.0891 12.693 12.489 12.6632 12.6413C12.6335 12.7931 12.5906 12.8881 12.6034 12.8566C12.606 12.8502 12.6113 12.8377 12.6246 12.807C12.6355 12.7819 12.655 12.7373 12.6736 12.6934C12.7128 12.6013 12.7667 12.4697 12.8179 12.3147L9.02021 11.0588C8.99252 11.1425 9.01314 11.0675 8.89921 11.347C8.86502 11.4309 8.78522 11.6299 8.73752 11.8739C8.68972 12.1184 8.63474 12.5988 8.85524 13.1369L12.5565 11.62ZM11.2495 13.6593C11.5022 13.6169 11.8094 13.6435 12.278 13.7913C12.865 13.9764 13.2 14.1572 14.026 14.4688L15.4377 10.7262C15.044 10.5777 14.1545 10.1889 13.481 9.9765C12.6892 9.72679 11.6999 9.52808 10.5887 9.71422L11.2495 13.6593ZM14.0249 14.4684C16.7604 15.502 19.4891 15.9371 22.1849 15.5853C24.8915 15.2322 27.4388 14.1022 29.8231 12.1979L27.3269 9.0724C25.4438 10.5764 23.567 11.3711 21.6675 11.619C19.7573 11.8682 17.698 11.5803 15.4387 10.7266L14.0249 14.4684ZM29.823 12.198C31.9526 10.4974 34.587 9.60344 37.5637 9.0098L36.7813 5.08705C33.5434 5.7328 30.1828 6.79183 27.327 9.07228L29.823 12.198ZM37.5636 9.00982C39.8488 8.55421 42.3106 8.12621 44.6853 7.57969L43.7882 3.68159C41.4848 4.21171 39.2057 4.60371 36.7815 5.08702L37.5636 9.00982ZM44.6847 7.57983C44.9391 7.52138 45.176 7.49165 45.6092 7.42075C45.9827 7.35961 46.4874 7.26853 46.9957 7.08535C47.523 6.8953 48.1082 6.58834 48.6217 6.06159C49.1419 5.52805 49.4939 4.86603 49.6945 4.10789L45.8276 3.08469C45.7789 3.26862 45.7343 3.29319 45.7576 3.26931C45.7743 3.25222 45.7623 3.27799 45.6395 3.32228C45.4975 3.37345 45.2988 3.41832 44.9631 3.47327C44.6869 3.51847 44.2086 3.58498 43.7888 3.68145L44.6847 7.57983ZM49.6962 4.10145C49.5638 4.60878 49.2024 4.87482 48.9585 4.97679C48.7368 5.06943 48.4113 5.11838 48.0403 4.96409L49.5763 1.27079C48.8291 0.960007 48.0379 1.02618 47.4157 1.28626C46.7712 1.55567 46.0744 2.13938 45.8259 3.09114L49.6962 4.10145ZM48.0372 4.96279C49.3886 5.52756 50.616 5.40075 51.6625 4.90007C52.5153 4.49206 53.2841 3.78802 53.6748 3.46687L51.1347 0.37687C50.8058 0.647264 50.627 0.806433 50.3886 0.991598C50.1767 1.15616 50.0367 1.24368 49.9362 1.29178C49.8491 1.33344 49.8159 1.33372 49.8098 1.33395C49.8057 1.33411 49.7388 1.33868 49.5795 1.27209L48.0372 4.96279ZM53.6728 3.4685C55.1844 2.22917 56.9239 1.78076 58.841 2.09847L59.495 -1.8477C56.4642 -2.34999 53.557 -1.60909 51.1367 0.375237L53.6728 3.4685ZM58.8402 2.09834C63.4624 2.86626 68.0031 3.69473 72.4393 4.90879L73.4952 1.05067C68.851 -0.220302 64.1421 -1.07564 59.4957 -1.84757L58.8402 2.09834ZM72.4491 4.91143C72.8572 5.02093 73.2371 5.15628 73.5689 5.31632L75.3067 1.71352C74.7041 1.42287 74.0806 1.20769 73.4855 1.04803L72.4491 4.91143ZM73.5626 5.31325C73.7407 5.39992 73.8797 5.47307 73.9886 5.53599C74.0987 5.59957 74.1604 5.64266 74.1903 5.66576C74.2205 5.68907 74.1975 5.67613 74.1539 5.62216C74.1065 5.56334 74.0388 5.46068 73.9891 5.31529C73.9649 5.24436 73.9479 5.17166 73.9381 5.09941C73.9284 5.0275 73.9267 4.96255 73.9294 4.90715C73.9347 4.79819 73.9563 4.73638 73.9564 4.736C73.9568 4.73499 73.9532 4.74543 73.9426 4.76851C73.932 4.79154 73.9158 4.82419 73.8919 4.86746C73.843 4.95581 73.7707 5.07271 73.6659 5.22483L76.9593 7.49492C77.2583 7.06108 77.5552 6.56945 77.7376 6.04105C77.9315 5.47908 78.0303 4.77132 77.7743 4.02197C77.5285 3.30262 77.0472 2.81823 76.6359 2.50047C76.2306 2.18733 75.7582 1.93325 75.313 1.71659L73.5626 5.31325ZM73.665 5.22617C73.3708 5.65363 73.0692 6.16474 72.9207 6.73559C72.7472 7.40305 72.7915 8.12864 73.169 8.8008C73.4808 9.35604 73.9366 9.70998 74.1881 9.89564C74.3961 10.0493 74.8306 10.3378 74.9913 10.4506L77.2894 7.17663C77.1246 7.06093 76.9678 6.9558 76.847 6.87414C76.7168 6.78617 76.6314 6.72751 76.5641 6.67783C76.4969 6.62822 76.4852 6.6146 76.4993 6.62837C76.5151 6.64386 76.585 6.71456 76.6566 6.84215C76.7346 6.98088 76.7957 7.1536 76.816 7.34561C76.8356 7.53017 76.8108 7.67004 76.792 7.74211C76.7749 7.80805 76.762 7.82096 76.7894 7.76808C76.816 7.71675 76.8676 7.62818 76.9602 7.49358L73.665 5.22617ZM74.9896 10.4494C77.5984 12.2847 80.2148 11.7622 81.9578 11.6242L81.6421 7.63672C79.3528 7.81796 78.4637 8.00278 77.2912 7.17786L74.9896 10.4494ZM81.9591 11.6241C85.4892 11.3422 88.9179 11.1356 92.1942 11.5286L92.6706 7.55708C88.9547 7.11132 85.1655 7.35536 81.6407 7.63683L81.9591 11.6241ZM92.1942 11.5286C97.673 12.1856 103.149 12.0216 108.386 12.0123L108.379 8.01231C102.981 8.02184 97.8399 8.177 92.6705 7.55707L92.1942 11.5286ZM108.385 12.0123C110.498 12.0098 112.092 12.6734 113.894 14.1437L116.423 11.045C114.06 9.11637 111.598 8.00853 108.38 8.01231L108.385 12.0123ZM113.894 14.1437C116.612 16.3626 120.317 18.3883 124.861 16.927L123.636 13.1191C121.037 13.9551 118.766 12.9574 116.423 11.0451L113.894 14.1437ZM124.86 16.9273C125.523 16.7142 126.218 16.5388 126.975 16.3537C127.712 16.1736 128.525 15.9808 129.324 15.7472C130.938 15.2751 132.682 14.5884 134.244 13.249L131.641 10.2121C130.695 11.0228 129.568 11.5082 128.201 11.9078C127.51 12.1101 126.804 12.2779 126.025 12.4681C125.267 12.6533 124.45 12.8578 123.637 13.1188L124.86 16.9273ZM134.245 13.249C134.061 13.4067 133.892 13.4731 133.816 13.4984C133.738 13.5242 133.697 13.5268 133.714 13.5248C133.729 13.5232 133.765 13.5204 133.831 13.5202C133.896 13.5199 133.969 13.5219 134.063 13.5256L134.219 9.52864C134.021 9.52093 133.651 9.50677 133.268 9.54979C132.939 9.58676 132.241 9.69785 131.641 10.2121L134.245 13.249ZM134.056 13.5253C140.166 13.7844 146.176 14.7877 152.114 16.3761L153.147 12.512C146.964 10.858 140.663 9.8019 134.225 9.52891L134.056 13.5253ZM152.112 16.3755C153 16.6143 153.892 16.8261 154.749 17.0303C155.615 17.237 156.448 17.4365 157.269 17.6601L158.32 13.8007C157.429 13.5579 156.536 13.3444 155.677 13.1394C154.807 12.9321 153.973 12.7339 153.15 12.5126L152.112 16.3755ZM157.272 17.6608C160.945 18.6556 164.521 18.3699 167.979 17.2329L166.73 13.433C163.886 14.3679 161.116 14.5578 158.318 13.7999L157.272 17.6608ZM167.977 17.2336C171.612 16.0436 175.225 16.2252 179.078 17.3801L180.227 13.5486C175.789 12.2185 171.319 11.9306 166.733 13.4322L167.977 17.2336ZM179.078 17.3803C185.131 19.1932 191.322 20.2781 197.584 20.8701L197.96 16.8878C191.907 16.3155 185.981 15.2722 180.226 13.5484L179.078 17.3803ZM197.586 20.8702C201.784 21.2638 205.896 21.2598 210.086 20.9161L209.759 16.9294C205.784 17.2555 201.907 17.2578 197.959 16.8877L197.586 20.8702ZM210.085 20.9162C215.193 20.5003 220.266 20.8764 225.019 22.5439L226.343 18.7694C220.925 16.8689 215.263 16.4814 209.76 16.9293L210.085 20.9162ZM225.018 22.5436C229.396 24.0814 233.168 26.4836 236.294 29.9929L239.281 27.3323C235.665 23.2738 231.304 20.5119 226.344 18.7697L225.018 22.5436ZM236.293 29.9921C236.663 30.4072 236.851 30.7325 236.937 30.9552C237.018 31.1641 236.998 31.2497 236.996 31.2587C236.995 31.2651 236.981 31.3479 236.822 31.5021C236.65 31.6687 236.332 31.8937 235.784 32.1263L237.345 35.8088C239.017 35.0997 240.518 33.9276 240.909 32.092C241.296 30.2747 240.42 28.6129 239.281 27.333L236.293 29.9921ZM235.783 32.1267C232.873 33.3625 229.471 34.5686 226.438 36.1956L228.329 39.7204C231.154 38.2051 234.11 37.1828 237.346 35.8084L235.783 32.1267ZM226.437 36.1963C224.42 37.2803 222.283 38.0964 220.049 38.8646L221.349 42.6474C223.648 41.857 226.027 40.9579 228.331 39.7196L226.437 36.1963ZM220.048 38.8649C218.153 39.5172 217.119 40.8076 216.42 41.9455C216.109 42.4507 215.778 43.0813 215.561 43.463C215.307 43.9113 215.093 44.2432 214.863 44.5072L217.881 47.1327C218.375 46.5642 218.746 45.9564 219.041 45.4361C219.374 44.849 219.556 44.482 219.828 44.0389C220.294 43.2802 220.699 42.8711 221.35 42.6471L220.048 38.8649ZM214.859 44.5124C214.373 45.0739 214.148 45.7591 214.178 46.4514C214.205 47.0809 214.436 47.5976 214.645 47.9522C215.051 48.6426 215.65 49.1798 216.034 49.4869L218.535 46.3657C218.427 46.2793 218.321 46.1846 218.233 46.0925C218.139 45.9952 218.1 45.9359 218.092 45.9231C218.078 45.9002 218.164 46.0287 218.174 46.2789C218.18 46.4144 218.163 46.5732 218.106 46.738C218.049 46.9032 217.966 47.0338 217.885 47.1275L214.859 44.5124ZM216.035 49.4876C218.344 51.3365 220.068 53.701 221.914 56.3837L225.209 54.1161C223.368 51.4407 221.354 48.6223 218.534 46.3649L216.035 49.4876ZM221.916 56.3869C222.303 56.9463 222.47 57.244 222.548 57.4792C222.601 57.6383 222.629 57.808 222.549 58.1265L226.43 59.0962C226.689 58.0594 226.643 57.1134 226.343 56.213C226.068 55.3888 225.601 54.6834 225.207 54.113L221.916 56.3869ZM222.55 58.1254C222.351 58.9201 222.304 59.7605 222.256 60.2802C222.202 60.883 222.14 61.2513 222.019 61.5525L225.731 63.0438C226.087 62.1589 226.182 61.2846 226.24 60.641C226.306 59.9142 226.328 59.5043 226.43 59.0972L222.55 58.1254ZM222.019 61.5528C221.964 61.6903 221.924 61.7735 221.895 61.8253C221.867 61.8759 221.866 61.8643 221.903 61.8268C221.946 61.7827 222.023 61.7219 222.129 61.6771C222.234 61.6325 222.311 61.6284 222.325 61.6283L222.34 65.6283C223.321 65.6248 224.146 65.2518 224.756 64.6302C225.287 64.0902 225.57 63.4459 225.731 63.0435L222.019 61.5528ZM222.325 61.6283C222.27 61.6285 222.294 61.6219 222.365 61.643C222.445 61.667 222.536 61.712 222.618 61.7773C222.694 61.8378 222.723 61.885 222.717 61.8745C222.707 61.8595 222.672 61.8016 222.617 61.6696L218.925 63.2084C219.146 63.7396 219.494 64.4028 220.128 64.9074C220.819 65.4575 221.606 65.6311 222.34 65.6283L222.325 61.6283ZM222.616 61.6663C221.834 59.7995 220.78 58.5835 219.592 57.5561C219.025 57.0658 218.419 56.6114 217.844 56.1782C217.254 55.7339 216.668 55.2913 216.053 54.7727L213.474 57.8304C214.184 58.4291 214.852 58.9325 215.438 59.3736C216.038 59.8258 216.53 60.1963 216.975 60.5812C217.81 61.3041 218.435 62.0395 218.926 63.2117L222.616 61.6663ZM216.053 54.773C215.312 54.1475 214.434 53.5238 213.73 52.9942C212.977 52.428 212.329 51.9033 211.803 51.3412C210.836 50.3088 210.295 49.192 210.604 47.4291L206.664 46.7396C206.094 49.9937 207.249 52.3306 208.883 54.0752C209.657 54.9015 210.535 55.5961 211.325 56.1907C212.164 56.8219 212.846 57.3006 213.474 57.8301L216.053 54.773ZM210.604 47.4286C210.898 45.7433 210.691 43.8539 210.655 42.6519L206.656 42.7723C206.708 44.4872 206.864 45.5899 206.663 46.7402L210.604 47.4286ZM210.655 42.6505C210.651 42.5431 210.648 41.9598 210.634 41.6893C210.615 41.3162 210.564 40.7785 210.352 40.2312C210.121 39.6345 209.705 39.0448 209.024 38.6269C208.382 38.2324 207.657 38.0861 206.951 38.0623L206.817 42.0601C207.086 42.0691 207.066 42.118 206.932 42.036C206.862 41.9928 206.789 41.9303 206.726 41.852C206.666 41.7764 206.635 41.7104 206.622 41.6759C206.604 41.6306 206.628 41.6669 206.64 41.8951C206.645 42.0001 206.647 42.1175 206.649 42.2698C206.65 42.4096 206.651 42.5939 206.656 42.7737L210.655 42.6505ZM206.952 38.0624C207.008 38.0642 207.183 38.0784 207.404 38.1867C207.645 38.3044 207.842 38.4851 207.977 38.6878C208.098 38.8689 208.138 39.0194 208.148 39.0592C208.157 39.0958 208.154 39.0978 208.144 39.0076C208.14 38.9691 208.12 38.7633 208.103 38.6305C208.082 38.4661 208.046 38.2345 207.971 37.9809C207.807 37.4315 207.448 36.7572 206.688 36.2986L204.622 39.7238C204.305 39.5328 204.173 39.2435 204.137 39.1222C204.133 39.1086 204.128 39.0736 204.167 39.4357C204.187 39.6196 204.242 40.2981 204.651 40.9101C205.194 41.7232 206.042 42.0336 206.816 42.06L206.952 38.0624ZM205.266 36.0493C204.684 36.1647 204.184 36.3973 203.848 36.5628C203.435 36.7668 203.272 36.8629 203.025 36.9664C202.827 37.0494 202.747 37.0565 202.727 37.0571C202.72 37.0574 202.715 37.0571 202.705 37.0548C202.694 37.0522 202.66 37.0428 202.597 37.0097L200.717 40.54C202.25 41.3566 203.611 41.0582 204.572 40.6553C204.965 40.4904 205.418 40.2485 205.617 40.1506C205.893 40.0144 206.002 39.9813 206.044 39.973L205.266 36.0493ZM202.603 37.0129C201.951 36.6624 201.223 36.6227 200.568 36.8602C200.011 37.0622 199.634 37.4181 199.427 37.6396C199.206 37.8764 199.031 38.126 198.919 38.2909C198.765 38.5163 198.741 38.562 198.668 38.663L201.912 41.0025C201.979 40.9095 202.042 40.8163 202.091 40.7434C202.146 40.6609 202.182 40.605 202.225 40.5422C202.265 40.4837 202.295 40.4411 202.32 40.4085C202.345 40.3754 202.356 40.3642 202.353 40.367C202.352 40.3687 202.322 40.401 202.263 40.4451C202.204 40.489 202.094 40.5618 201.932 40.6204C201.763 40.6819 201.549 40.7231 201.308 40.7063C201.067 40.6895 200.864 40.6189 200.711 40.5368L202.603 37.0129ZM198.67 38.6594C197.154 40.7531 195.189 42.0599 192.726 42.5613L193.525 46.4809C197.026 45.768 199.84 43.8636 201.91 41.0061L198.67 38.6594ZM192.724 42.5618C191.427 42.8276 190.307 43.5559 189.653 43.9414C188.833 44.4246 188.527 44.523 188.325 44.5211L188.287 48.5209C189.747 48.5347 190.957 47.8162 191.685 47.3871C192.578 46.8602 193.037 46.5808 193.527 46.4804L192.724 42.5618ZM188.321 44.5211C188.066 44.5191 187.721 44.3959 186.873 43.9403C186.18 43.5681 185.046 42.9095 183.732 42.7071L183.123 46.6606C183.618 46.7367 184.099 46.9905 184.98 47.4641C185.707 47.8543 186.897 48.5104 188.291 48.521L188.321 44.5211ZM183.733 42.7073C183.12 42.6127 182.495 42.4316 181.729 42.2013C181.006 41.984 180.134 41.7149 179.226 41.5558L178.536 45.4958C179.164 45.6059 179.796 45.7969 180.577 46.0319C181.315 46.2538 182.195 46.5172 183.122 46.6604L183.733 42.7073ZM179.226 41.5559C177.885 41.3208 176.437 41.2498 175.136 42.0405C173.902 42.7904 173.215 44.0787 172.673 45.3262L176.341 46.9208C176.859 45.7303 177.136 45.5054 177.213 45.4587C177.223 45.4529 177.431 45.3021 178.536 45.4958L179.226 41.5559ZM172.67 45.3319C172.65 45.3793 172.63 45.4273 172.615 45.4634C172.598 45.5033 172.586 45.5337 172.573 45.5633C172.561 45.5922 172.551 45.6132 172.544 45.6292C172.537 45.6454 172.534 45.6508 172.535 45.6485C172.536 45.6469 172.545 45.6283 172.565 45.5987C172.583 45.5708 172.621 45.5146 172.682 45.4456C172.74 45.3792 172.847 45.2695 173.008 45.162C173.174 45.052 173.425 44.9257 173.755 44.8773L174.337 48.8346C175.074 48.7261 175.515 48.2799 175.683 48.0893C175.878 47.8678 176.005 47.6434 176.074 47.5117C176.199 47.2747 176.335 46.9344 176.344 46.9152L172.67 45.3319ZM173.73 44.881C172.902 45.0136 172.066 45.2969 171.41 45.8925C170.696 46.5413 170.413 47.3588 170.371 48.1013C170.332 48.7727 170.486 49.3853 170.613 49.8012C170.728 50.1756 170.923 50.6874 170.984 50.8628L174.763 49.5529C174.703 49.3801 174.629 49.182 174.579 49.042C174.521 48.8843 174.476 48.7531 174.439 48.6331C174.402 48.5133 174.382 48.4276 174.372 48.3678C174.361 48.3072 174.366 48.2996 174.364 48.3311C174.362 48.3669 174.351 48.4548 174.302 48.567C174.25 48.6854 174.176 48.7841 174.099 48.8536C173.963 48.9771 173.949 48.8969 174.362 48.8308L173.73 44.881ZM170.983 50.8612C171.469 52.2675 172.133 53.7243 173.259 54.9207C174.425 56.1601 175.964 56.9917 177.967 57.3474L178.666 53.4091C177.427 53.1889 176.693 52.7327 176.172 52.1795C175.611 51.5832 175.174 50.7428 174.764 49.5546L170.983 50.8612ZM177.969 57.3478C181.467 57.9655 184.751 59.3086 187.492 61.596L190.055 58.5247C186.682 55.7107 182.717 54.1243 178.664 53.4087L177.969 57.3478ZM187.492 61.5957C190.142 63.8086 191.505 66.4864 191.641 69.8958L195.638 69.7359C195.455 65.1519 193.538 61.4325 190.055 58.5251L187.492 61.5957ZM191.641 69.895C191.659 70.3515 191.637 70.8233 191.614 71.425C191.592 71.9889 191.57 72.6633 191.625 73.3485C191.742 74.7961 192.216 76.4034 193.738 77.7447L196.383 74.7441C195.866 74.2889 195.674 73.7898 195.612 73.0263C195.578 72.606 195.589 72.1485 195.611 71.58C195.631 71.0493 195.664 70.3882 195.638 69.7367L191.641 69.895ZM193.065 76.097C192.85 79.0094 194.32 81.3753 195.213 83.0291L198.732 81.1275C197.651 79.1257 196.944 77.8923 197.055 76.3918L193.065 76.097ZM195.212 83.0262C195.233 83.0657 195.264 83.135 195.336 83.3178C195.393 83.4632 195.495 83.7295 195.621 83.9851C195.885 84.5231 196.428 85.376 197.556 85.7403L198.785 81.9341C198.942 81.9846 199.073 82.0768 199.16 82.1678C199.23 82.2417 199.242 82.2839 199.21 82.2191C199.173 82.1441 199.138 82.0557 199.057 81.8505C198.991 81.6827 198.882 81.4054 198.734 81.1303L195.212 83.0262ZM197.551 85.7389C197.652 85.7718 197.571 85.7647 197.441 85.6406C197.373 85.5763 197.305 85.4921 197.248 85.3896C197.191 85.2878 197.157 85.1891 197.138 85.1053C197.103 84.9505 197.125 84.8694 197.116 84.932C197.106 84.9966 197.083 85.0994 197.026 85.3057L200.882 86.3685C200.975 86.0342 201.247 85.1397 201.04 84.224C200.762 82.9912 199.828 82.2735 198.79 81.9355L197.551 85.7389ZM197.026 85.3058C196.37 87.6881 197.01 89.8277 197.829 91.5481L201.44 89.8284C200.811 88.5067 200.592 87.4227 200.882 86.3684L197.026 85.3058ZM197.828 91.547C197.906 91.7093 198.113 92.1786 198.267 92.4791C198.45 92.8355 198.726 93.3102 199.153 93.7317C199.61 94.1837 200.211 94.5461 200.969 94.6906C201.694 94.8288 202.425 94.7419 203.13 94.536L202.009 90.6964C201.712 90.7831 201.645 90.7474 201.718 90.7614C201.825 90.7817 201.922 90.8445 201.965 90.8873C201.978 90.8996 201.93 90.8555 201.824 90.6495C201.774 90.5523 201.722 90.4413 201.657 90.2994C201.598 90.1703 201.519 89.9939 201.441 89.8296L197.828 91.547ZM203.134 94.5349C202.669 94.6717 202.425 94.4775 202.61 94.5727C202.733 94.6361 202.944 94.7835 203.197 95.0295C203.442 95.2673 203.667 95.5406 203.833 95.7955C204.017 96.0751 204.057 96.2202 204.054 96.2077L207.964 95.3656C207.822 94.7053 207.498 94.0901 207.18 93.6039C206.845 93.0931 206.431 92.5948 205.986 92.1621C205.55 91.7376 205.021 91.3153 204.441 91.0166C203.923 90.7498 203.012 90.4011 202.005 90.6975L203.134 94.5349ZM204.055 96.2127C204.158 96.6849 204.19 97.1043 204.154 97.4274L208.128 97.8766C208.23 96.9791 208.124 96.0965 207.963 95.3606L204.055 96.2127ZM204.154 97.4249C203.671 101.655 203.463 105.895 203.492 110.141L207.492 110.114C207.464 106.016 207.664 101.937 208.128 97.879L204.154 97.4249ZM203.492 110.139C203.497 111.029 203.03 111.895 202.071 112.931L205.006 115.649C206.185 114.375 207.506 112.549 207.492 110.116L203.492 110.139ZM202.07 112.932C199.006 116.247 195.168 118.575 190.873 120.321L192.38 124.026C197.046 122.129 201.436 119.512 205.007 115.647L202.07 112.932ZM190.872 120.322C190.677 120.401 190.522 120.449 190.405 120.475C190.288 120.502 190.225 120.504 190.208 120.504C190.192 120.504 190.235 120.502 190.315 120.53C190.355 120.544 190.402 120.565 190.453 120.594C190.503 120.624 190.552 120.66 190.598 120.702C190.643 120.743 190.681 120.787 190.711 120.829C190.741 120.87 190.762 120.907 190.775 120.936C190.801 120.992 190.799 121.011 190.794 120.973C190.788 120.934 190.782 120.853 190.791 120.721C190.801 120.59 190.824 120.423 190.87 120.217L186.965 119.348C186.681 120.626 186.585 122.452 187.898 123.653C189.274 124.911 191.119 124.54 192.381 124.026L190.872 120.322ZM190.87 120.216C191.144 118.983 191.879 118.015 193.07 117.188L190.791 113.901C188.985 115.153 187.507 116.907 186.965 119.349L190.87 120.216ZM193.074 117.186C195.265 115.66 197.06 113.788 198.674 111.963L195.679 109.312C194.12 111.074 192.579 112.656 190.788 113.904L193.074 117.186ZM198.674 111.963C200.304 110.12 201.311 108.094 201.677 105.888C202.042 103.697 201.755 101.457 201.002 99.2031L197.208 100.47C197.807 102.263 197.965 103.831 197.732 105.232C197.501 106.618 196.867 107.968 195.679 109.312L198.674 111.963ZM201.002 99.2031C200.498 97.6942 199.193 96.8413 198.696 96.4879C198.536 96.374 198.431 96.2987 198.344 96.2304C198.256 96.1615 198.243 96.143 198.262 96.1646C198.322 96.2313 198.674 96.6958 198.496 97.3535L194.634 96.3105C194.322 97.4673 194.857 98.3599 195.286 98.8371C195.651 99.2433 196.139 99.5771 196.376 99.7464C197.086 100.251 197.185 100.402 197.208 100.47L201.002 99.2031ZM198.495 97.3569C199.1 95.1321 198.569 93.4442 198.029 91.991L194.28 93.3853C194.743 94.63 194.902 95.327 194.635 96.3071L198.495 97.3569ZM198.029 91.9901C197.871 91.5667 197.735 91.1247 197.579 90.6159C197.429 90.1265 197.259 89.5704 197.053 89.018L193.306 90.4181C193.463 90.839 193.599 91.2798 193.755 91.7879C193.904 92.2768 194.074 92.8331 194.28 93.3863L198.029 91.9901ZM197.052 89.017C196.527 87.613 195.623 86.3559 194.196 85.7297C192.757 85.0986 191.212 85.2942 189.804 85.9056L191.398 89.5744C192.145 89.25 192.481 89.3455 192.589 89.3928C192.708 89.4449 193.016 89.6448 193.306 90.419L197.052 89.017ZM189.801 85.9072C189.083 86.2207 188.414 86.2214 187.071 86.3356L187.41 90.3212C188.349 90.2413 189.912 90.2232 191.402 89.5729L189.801 85.9072ZM187.068 86.3359C185.366 86.483 183.594 87.002 182.513 88.4389C181.381 89.9425 181.469 91.8083 182.017 93.5277L185.828 92.3119C185.458 91.1519 185.703 90.8519 185.708 90.8446C185.764 90.7706 186.111 90.4336 187.412 90.321L187.068 86.3359ZM182.017 93.5275C183.208 97.26 184.524 101.289 186.786 104.909L190.178 102.789C188.219 99.6548 187.033 96.091 185.828 92.3121L182.017 93.5275ZM186.785 104.908C187.594 106.204 187.742 107.624 187.745 109.53L191.745 109.523C191.742 107.504 191.62 105.099 190.178 102.79L186.785 104.908ZM187.745 109.531C187.747 110.053 187.475 110.647 186.729 111.364L189.501 114.248C190.623 113.169 191.75 111.597 191.745 109.521L187.745 109.531ZM186.728 111.366C186.158 111.914 185.761 111.962 185.31 111.81L184.028 115.599C186.205 116.335 188.115 115.583 189.502 114.247L186.728 111.366ZM185.306 111.809C185.227 111.782 185.216 111.764 185.227 111.775C185.236 111.783 185.223 111.776 185.195 111.719C185.164 111.655 185.123 111.545 185.082 111.363C185.04 111.179 185.007 110.964 184.973 110.69L181.004 111.191C181.078 111.775 181.201 112.657 181.602 113.476C182.052 114.398 182.828 115.196 184.032 115.6L185.306 111.809ZM184.973 110.693C184.397 106.089 182.341 102.242 178.829 99.1905L176.205 102.21C178.977 104.617 180.551 107.568 181.004 111.189L184.973 110.693ZM178.826 99.1886C176.97 97.5807 174.494 95.9062 171.014 96.9176L172.13 100.759C173.56 100.343 174.602 100.822 176.208 102.212L178.826 99.1886ZM171.011 96.9184C170.447 97.0832 169.713 97.0366 168.622 96.7835L167.718 100.68C168.948 100.965 170.533 101.225 172.133 100.758L171.011 96.9184ZM168.618 96.7826C167.331 96.4867 166.041 96.61 164.916 97.2354C163.804 97.8537 163.041 98.8586 162.596 99.9955L166.32 101.455C166.495 101.009 166.71 100.815 166.86 100.731C166.998 100.655 167.253 100.573 167.722 100.681L168.618 96.7826ZM162.596 99.9937C162.507 100.221 162.309 100.716 162.236 101.254C162.162 101.799 162.161 102.824 162.991 103.646L165.805 100.803C166.016 101.012 166.13 101.259 166.176 101.467C166.218 101.652 166.202 101.776 166.199 101.794C166.196 101.816 166.197 101.799 166.219 101.727C166.242 101.657 166.273 101.575 166.319 101.457L162.596 99.9937ZM162.989 103.644C163.655 104.305 164.017 105.01 164.862 106.198C165.613 107.253 166.659 108.501 168.385 109.197L169.881 105.487C169.224 105.222 168.728 104.731 168.121 103.878C167.608 103.157 166.794 101.784 165.807 100.805L162.989 103.644ZM168.378 109.194C168.313 109.167 168.297 109.152 168.373 109.199C168.407 109.219 168.441 109.241 168.495 109.276C168.544 109.307 168.611 109.35 168.681 109.392C168.803 109.466 169.042 109.607 169.335 109.709C169.611 109.804 170.21 109.963 170.898 109.715L169.544 105.951C169.823 105.851 170.076 105.838 170.262 105.852C170.442 105.865 170.575 105.905 170.645 105.929C170.717 105.954 170.761 105.977 170.77 105.981C170.781 105.987 170.777 105.986 170.753 105.97C170.727 105.955 170.697 105.936 170.647 105.904C170.603 105.876 170.539 105.835 170.474 105.795C170.353 105.72 170.14 105.593 169.888 105.49L168.378 109.194ZM170.883 109.72C171.248 109.592 171.355 109.626 171.298 109.617C171.263 109.612 171.208 109.597 171.146 109.563C171.086 109.531 171.048 109.496 171.031 109.478C171.01 109.457 171.064 109.507 171.153 109.736C171.24 109.961 171.319 110.246 171.414 110.633L175.298 109.678C175.128 108.985 174.816 107.662 173.941 106.733C173.432 106.194 172.752 105.795 171.911 105.665C171.116 105.541 170.318 105.68 169.559 105.946L170.883 109.72ZM171.413 110.628C171.62 111.481 172.006 112.157 172.342 112.672C172.505 112.92 172.681 113.169 172.814 113.359C172.957 113.565 173.069 113.731 173.164 113.889L176.596 111.836C176.426 111.552 176.248 111.291 176.096 111.074C175.934 110.84 175.811 110.668 175.692 110.485C175.463 110.135 175.352 109.9 175.3 109.683L171.413 110.628ZM173.165 113.891C176.761 119.886 178.197 126.058 176.5 132.752L180.378 133.735C182.393 125.782 180.606 118.521 176.595 111.834L173.165 113.891ZM176.5 132.752C175.798 135.518 174.699 137.754 173.156 139.477C171.624 141.186 169.573 142.484 166.806 143.258L167.884 147.11C171.314 146.15 174.049 144.474 176.135 142.146C178.209 139.83 179.558 136.963 180.377 133.736L176.5 132.752ZM166.805 143.258C162.523 144.459 158.25 145.305 153.784 146.364L154.707 150.256C158.976 149.244 163.507 148.337 167.886 147.109L166.805 143.258ZM153.785 146.364C152.878 146.578 151.58 146.832 150.375 147.429L152.152 151.013C152.841 150.671 153.574 150.524 154.706 150.257L153.785 146.364ZM150.375 147.429C149.929 147.65 149.147 148.049 148.584 148.773C147.908 149.641 147.742 150.69 147.967 151.769L151.883 150.954C151.861 150.852 151.881 150.868 151.864 150.958C151.855 151.003 151.839 151.054 151.815 151.106C151.791 151.158 151.764 151.199 151.741 151.228C151.699 151.283 151.683 151.28 151.757 151.23C151.792 151.207 151.841 151.177 151.909 151.139C151.977 151.102 152.056 151.061 152.152 151.013L150.375 147.429ZM147.967 151.772C147.987 151.867 147.993 152.028 147.864 152.411C147.797 152.61 147.713 152.816 147.598 153.097C147.492 153.355 147.356 153.686 147.242 154.034L151.04 155.288C151.104 155.094 151.186 154.889 151.3 154.613C151.404 154.358 151.54 154.029 151.655 153.687C151.891 152.987 152.11 152.04 151.882 150.952L147.967 151.772ZM147.24 154.037C146.867 155.177 146.583 156.465 146.998 157.75C147.425 159.07 148.434 159.922 149.459 160.582L151.626 157.221C151.246 156.976 151.034 156.797 150.916 156.671C150.861 156.612 150.833 156.573 150.82 156.552C150.809 156.533 150.805 156.523 150.804 156.519C150.799 156.504 150.722 156.257 151.041 155.284L147.24 154.037ZM149.458 160.582C150.478 161.24 150.905 161.514 151.188 161.967L154.581 159.848C153.722 158.473 152.382 157.708 151.627 157.221L149.458 160.582ZM152.885 162.908H152.888V158.908H152.885V162.908ZM151.958 162.679C152.182 162.796 152.401 162.888 152.562 162.954C152.75 163.032 152.847 163.069 152.959 163.119C153.059 163.164 153.09 163.184 153.089 163.183C153.084 163.18 153.009 163.131 152.922 163.02L156.083 160.567C155.587 159.929 154.924 159.615 154.584 159.464C154.047 159.226 154.044 159.256 153.817 159.137L151.958 162.679ZM152.919 163.015C154.182 164.652 155.984 166.117 158.61 166.056L158.516 162.057C157.674 162.077 156.949 161.689 156.086 160.571L152.919 163.015ZM156.611 164.491C156.583 164.368 156.652 164.266 156.56 164.487C156.531 164.557 156.39 164.871 156.302 165.132C156.195 165.449 156.09 165.876 156.106 166.386L160.104 166.259C160.109 166.411 160.016 166.592 160.252 166.027C160.449 165.555 160.759 164.714 160.515 163.621L156.611 164.491ZM156.106 166.388C156.232 170.217 154.482 173.528 152.142 177.081L155.483 179.281C157.872 175.654 160.273 171.428 160.104 166.257L156.106 166.388ZM152.142 177.081C150.827 179.079 148.012 179.704 145.668 178.278L143.589 181.695C147.573 184.119 152.86 183.267 155.483 179.28L152.142 177.081ZM145.67 178.279C143.853 177.171 142.285 175.675 140.838 173.922L137.753 176.468C139.385 178.445 141.278 180.286 143.588 181.694L145.67 178.279ZM140.839 173.923C140.65 173.694 140.37 173.347 140.072 173.053C139.784 172.769 139.292 172.339 138.6 172.134C137.787 171.894 136.972 172.037 136.277 172.464C135.67 172.836 135.202 173.393 134.823 173.958L138.143 176.188C138.254 176.024 138.334 175.926 138.383 175.874C138.433 175.82 138.431 175.835 138.371 175.872C138.305 175.912 138.174 175.977 137.987 176.005C137.794 176.033 137.612 176.014 137.463 175.969C137.325 175.929 137.243 175.875 137.222 175.861C137.201 175.847 137.214 175.852 137.263 175.901C137.312 175.949 137.375 176.017 137.461 176.118C137.549 176.22 137.638 176.328 137.752 176.467L140.839 173.923ZM134.824 173.956C134.824 173.956 134.829 173.949 134.839 173.936C134.848 173.923 134.866 173.901 134.891 173.872C134.93 173.827 135.043 173.703 135.229 173.581C135.418 173.458 135.79 173.267 136.3 173.276C136.848 173.285 137.273 173.519 137.54 173.754C137.775 173.96 137.896 174.17 137.941 174.253C137.992 174.349 138.018 174.421 138.023 174.434C138.025 174.44 138.031 174.458 137.989 174.318C137.941 174.164 137.796 173.663 137.45 173.204C137.259 172.951 136.983 172.675 136.598 172.467C136.205 172.255 135.777 172.156 135.348 172.156V176.156C135.157 176.156 134.925 176.11 134.698 175.987C134.478 175.868 134.336 175.719 134.255 175.611C134.131 175.446 134.111 175.318 134.164 175.491C134.171 175.514 134.221 175.682 134.268 175.811C134.295 175.886 134.344 176.012 134.42 176.152C134.489 176.281 134.636 176.527 134.899 176.758C135.194 177.018 135.65 177.265 136.233 177.275C136.777 177.284 137.186 177.081 137.418 176.93C137.819 176.667 138.058 176.315 138.142 176.19L134.824 173.956ZM133.353 174.3C133.573 177.339 133.547 181.423 136.443 184.729L139.452 182.093C137.632 180.016 137.599 177.552 137.343 174.011L133.353 174.3ZM135.947 183.434C135.969 185.337 136.711 186.819 137.464 187.995C137.828 188.562 138.242 189.127 138.569 189.59C138.917 190.083 139.204 190.512 139.434 190.939L142.957 189.046C142.607 188.394 142.202 187.801 141.837 187.284C141.451 186.737 141.131 186.303 140.832 185.836C140.259 184.943 139.956 184.214 139.947 183.388L135.947 183.434ZM139.433 190.939C139.999 191.992 140.605 193.001 141.222 193.98L144.605 191.846C144.019 190.915 143.464 189.99 142.957 189.046L139.433 190.939ZM141.22 193.976C142.821 196.528 143.615 199.108 143.283 201.882L147.254 202.358C147.724 198.435 146.549 194.944 144.608 191.85L141.22 193.976ZM143.283 201.882C143.249 202.159 143.207 202.383 143.162 202.559C143.117 202.737 143.073 202.848 143.043 202.911C142.979 203.044 143.03 202.857 143.325 202.737C143.465 202.68 143.594 202.667 143.682 202.672C143.762 202.676 143.784 202.693 143.737 202.674C143.689 202.654 143.595 202.609 143.453 202.513C143.312 202.417 143.14 202.283 142.937 202.1L140.257 205.07C140.865 205.619 141.532 206.099 142.249 206.387C142.985 206.682 143.907 206.819 144.836 206.441C145.75 206.068 146.312 205.34 146.646 204.648C146.976 203.963 147.157 203.17 147.254 202.359L143.283 201.882ZM142.936 202.1C140.493 199.898 138.927 197.139 136.676 194.048L133.442 196.403C135.362 199.039 137.402 202.496 140.258 205.071L142.936 202.1ZM136.677 194.05C136.518 193.83 136.367 193.562 136.162 193.178C135.979 192.832 135.73 192.348 135.437 191.896C134.798 190.909 133.816 189.866 132.108 189.459L131.181 193.35C131.562 193.44 131.786 193.617 132.081 194.072C132.255 194.341 132.406 194.632 132.63 195.054C132.834 195.438 133.099 195.931 133.442 196.402L136.677 194.05ZM132.116 189.46C132.396 189.528 132.665 189.7 132.852 189.944C133.014 190.155 133.053 190.339 133.061 190.387C133.071 190.44 133.064 190.445 133.068 190.39C133.072 190.341 133.082 190.279 133.097 190.215L129.208 189.282C129.105 189.712 128.998 190.391 129.124 191.094C129.261 191.852 129.78 193.01 131.173 193.348L132.116 189.46ZM133.099 190.21C133.608 188.061 132.979 185.986 132.716 184.715L128.799 185.524C129.17 187.32 129.456 188.237 129.207 189.287L133.099 190.21ZM132.716 184.714C132.072 181.605 132.158 178.417 132.599 175.119L128.634 174.589C128.159 178.139 128.031 181.817 128.799 185.525L132.716 184.714ZM132.599 175.118C132.739 174.067 133.064 172.44 132.831 170.835L128.872 171.411C129.002 172.304 128.826 173.149 128.634 174.589L132.599 175.118ZM132.831 170.835C132.808 170.683 132.718 169.818 132.633 169.366C132.58 169.083 132.493 168.7 132.329 168.327C132.185 167.999 131.832 167.334 131.05 166.974L129.38 170.609C129.099 170.48 128.919 170.302 128.82 170.18C128.724 170.061 128.68 169.967 128.668 169.94C128.65 169.897 128.67 169.93 128.701 170.1C128.73 170.255 128.755 170.443 128.782 170.677C128.807 170.885 128.837 171.17 128.872 171.412L132.831 170.835ZM131.058 166.978C130.524 166.73 130.201 166.384 129.894 165.854C129.726 165.565 129.573 165.235 129.39 164.819C129.22 164.431 129.009 163.933 128.771 163.453L125.187 165.229C125.371 165.601 125.526 165.968 125.728 166.429C125.919 166.862 126.146 167.364 126.432 167.858C127.032 168.895 127.905 169.924 129.372 170.605L131.058 166.978ZM128.771 163.452C128.291 162.486 127.39 161.601 126.153 161.299C124.823 160.974 123.488 161.415 122.434 162.413L125.185 165.317C125.252 165.253 125.302 165.218 125.331 165.201C125.36 165.183 125.369 165.182 125.359 165.185C125.349 165.188 125.326 165.193 125.295 165.194C125.264 165.195 125.233 165.192 125.205 165.185C125.148 165.171 125.128 165.151 125.136 165.157C125.139 165.16 125.147 165.168 125.157 165.181C125.168 165.195 125.178 165.211 125.188 165.23L128.771 163.452ZM122.436 162.411C122.495 162.356 122.539 162.329 122.548 162.324C122.555 162.319 122.543 162.327 122.495 162.348C122.445 162.37 122.383 162.394 122.285 162.43C122.201 162.462 122.068 162.511 121.941 162.563L123.445 166.269C123.511 166.243 123.578 166.218 123.694 166.174C123.796 166.136 123.936 166.083 124.08 166.02C124.357 165.901 124.788 165.692 125.182 165.32L122.436 162.411ZM121.93 162.568C120.915 162.987 120.72 162.775 120.84 162.843C120.952 162.907 120.664 162.833 120.489 161.719L116.537 162.337C116.774 163.849 117.366 165.468 118.861 166.319C120.364 167.175 122.054 166.844 123.456 166.265L121.93 162.568ZM120.49 161.726C120.45 161.465 120.441 161.177 120.431 160.734C120.422 160.337 120.411 159.786 120.323 159.224L116.371 159.843C116.412 160.101 116.422 160.388 116.432 160.828C116.441 161.222 116.451 161.771 116.536 162.331L120.49 161.726ZM120.324 159.23C120.114 157.863 119.998 154.862 117.324 153.173L115.188 156.555C115.58 156.803 115.794 157.111 115.956 157.594C116.157 158.194 116.214 158.817 116.37 159.837L120.324 159.23ZM117.325 153.174C117.367 153.2 117.43 153.252 117.49 153.331C117.549 153.41 117.58 153.481 117.593 153.522C117.604 153.558 117.6 153.561 117.596 153.511C117.591 153.46 117.588 153.382 117.591 153.257L113.591 153.179C113.578 153.892 113.599 155.549 115.186 156.554L117.325 153.174ZM117.591 153.263C117.611 152.363 117.431 151.297 116.668 150.436C115.889 149.557 114.821 149.251 113.843 149.205L113.652 153.2C113.732 153.204 113.786 153.212 113.82 153.218C113.854 153.225 113.863 153.229 113.855 153.226C113.845 153.222 113.819 153.211 113.784 153.187C113.748 153.162 113.71 153.129 113.675 153.089C113.639 153.05 113.614 153.011 113.597 152.979C113.581 152.948 113.576 152.929 113.576 152.93C113.576 152.93 113.581 152.949 113.586 152.99C113.59 153.032 113.593 153.092 113.592 153.173L117.591 153.263ZM113.847 149.205C113.89 149.207 113.976 149.219 114.081 149.264C114.186 149.309 114.262 149.367 114.307 149.409C114.346 149.446 114.35 149.46 114.323 149.419C114.295 149.376 114.253 149.305 114.189 149.181L110.628 151.001C110.803 151.344 111.093 151.877 111.567 152.323C112.112 152.836 112.815 153.158 113.648 153.2L113.847 149.205ZM114.191 149.183C113.269 147.374 111.889 145.99 110.07 145.41C108.249 144.829 106.332 145.164 104.559 146.106L106.437 149.638C107.514 149.066 108.306 149.046 108.855 149.221C109.405 149.396 110.056 149.879 110.627 150.999L114.191 149.183ZM104.561 146.105C103.232 146.809 101.765 147.791 100.723 149.292L104.009 151.573C104.522 150.833 105.343 150.218 106.435 149.639L104.561 146.105ZM100.721 149.294C98.6955 152.22 95.8372 154.189 92.6689 156.673L95.1369 159.821C98.0201 157.561 101.546 155.13 104.01 151.571L100.721 149.294ZM92.6682 156.674C90.5043 158.372 88.3395 160.166 86.3585 162.239L89.2503 165.003C91.0319 163.139 93.0185 161.484 95.1377 159.821L92.6682 156.674ZM86.3601 162.238C84.6575 164.015 83.5062 166.235 83.3618 168.805L87.3556 169.029C87.437 167.58 88.0791 166.226 89.2487 165.005L86.3601 162.238ZM83.362 168.802C83.239 170.944 82.8466 173.068 82.4071 175.314C81.9753 177.52 81.4927 179.869 81.2696 182.268L85.2525 182.638C85.4528 180.483 85.8873 178.358 86.3326 176.082C86.7703 173.845 87.215 171.477 87.3554 169.031L83.362 168.802ZM81.2695 182.269C81.235 182.643 81.1586 182.843 81.1071 182.93C81.0862 182.965 81.0733 182.976 81.0705 182.978C81.0689 182.979 81.0492 182.996 80.9882 183.017L82.2605 186.809C84.5051 186.056 85.123 184.04 85.2526 182.637L81.2695 182.269ZM80.987 183.017C80.9545 183.028 80.9843 183.014 81.0493 183.022C81.1077 183.029 81.1269 183.047 81.0929 183.027C81.0513 183.003 80.9726 182.948 80.847 182.831C80.7193 182.711 80.586 182.569 80.4089 182.376L77.4593 185.078C77.7791 185.427 78.3484 186.061 79.0916 186.491C79.9526 186.988 81.044 187.218 82.2617 186.809L80.987 183.017ZM80.4094 182.376C77.2851 178.963 75.3027 174.93 74.0956 170.342L70.2272 171.36C71.5662 176.449 73.8167 181.098 77.4588 185.077L80.4094 182.376ZM74.0954 170.341C72.2827 163.462 70.1743 156.471 66.4071 150.021L62.9532 152.039C66.429 157.99 68.4281 164.532 70.2274 171.361L74.0954 170.341ZM66.4071 150.021C65.685 148.785 65.1697 147.667 64.4039 146.247C63.6876 144.92 62.8435 143.519 61.6792 142.227L58.7074 144.904C59.5592 145.85 60.2263 146.928 60.8834 148.146C61.491 149.273 62.211 150.768 62.9532 152.039L66.4071 150.021ZM61.6805 142.228C60.2438 140.631 58.5891 138.737 56.2077 137.517L54.3836 141.077C55.9968 141.903 57.1766 143.202 58.7061 144.903L61.6805 142.228ZM56.2095 137.518C56.1189 137.471 55.9938 137.381 55.6795 137.134C55.4351 136.942 54.9993 136.59 54.4995 136.336C53.9519 136.057 53.191 135.821 52.2941 135.989C51.4237 136.153 50.7132 136.644 50.1348 137.241L53.0066 140.025C53.2293 139.796 53.238 139.882 53.0325 139.92C52.8005 139.964 52.6502 139.883 52.6866 139.901C52.7708 139.944 52.8924 140.031 53.2063 140.278C53.4503 140.47 53.8845 140.82 54.3817 141.076L56.2095 137.518ZM50.1368 137.239C50.4904 136.875 50.8787 136.758 51.04 136.719C51.226 136.674 51.371 136.67 51.4379 136.671C51.5749 136.672 51.6556 136.692 51.6704 136.696C51.6949 136.702 51.7291 136.713 51.7792 136.736C51.8034 136.747 51.9724 136.825 52.1616 137.017L49.3117 139.824C49.5918 140.108 49.8976 140.272 50.0791 140.357C50.2864 140.454 50.4983 140.526 50.6957 140.576C50.8833 140.623 51.132 140.669 51.4066 140.671C51.5424 140.672 51.7487 140.663 51.9852 140.605C52.197 140.554 52.625 140.418 53.0046 140.027L50.1368 137.239ZM52.1651 137.02C50.9855 135.817 49.6482 135.385 48.3799 135.288C47.2974 135.205 46.023 135.381 45.3124 135.43L45.588 139.42C46.7806 139.338 47.3766 139.223 48.075 139.276C48.5877 139.315 48.942 139.446 49.3082 139.82L52.1651 137.02ZM45.3143 135.43C42.6278 135.613 39.9285 135.034 36.9717 134.309L36.0188 138.194C38.9567 138.914 42.2086 139.651 45.5861 139.42L45.3143 135.43ZM36.9732 134.309C36.6728 134.235 36.4198 134.155 36.0103 134.039C35.6444 133.936 35.1939 133.817 34.7066 133.749C33.6663 133.604 32.4569 133.69 31.2227 134.453L33.3271 137.855C33.5853 137.695 33.7995 137.661 34.1529 137.711C34.3625 137.74 34.6013 137.798 34.9223 137.888C35.1997 137.967 35.631 138.098 36.0173 138.193L36.9732 134.309ZM31.2204 134.455C31.3796 134.356 31.5072 134.334 31.5642 134.328C31.6258 134.322 31.6806 134.327 31.7374 134.343C31.8177 134.365 32.2128 134.521 32.346 135.039L28.4725 136.037C28.8033 137.321 29.8411 137.966 30.6598 138.195C31.4512 138.416 32.469 138.388 33.3294 137.854L31.2204 134.455ZM32.3467 135.042C32.1496 134.272 31.8124 133.521 31.2173 132.942C30.5837 132.325 29.835 132.072 29.1533 132.016C28.5313 131.964 27.9574 132.075 27.5717 132.163C27.3706 132.209 27.1696 132.261 27.0145 132.301C26.8461 132.345 26.7185 132.377 26.6035 132.401L27.4299 136.315C27.641 136.27 27.8461 136.218 28.0126 136.175C28.1923 136.129 28.3283 136.093 28.4619 136.063C28.7454 135.998 28.8312 136.003 28.8229 136.002C28.8036 136 28.7402 135.993 28.6546 135.957C28.5643 135.919 28.4851 135.865 28.4264 135.807C28.3171 135.701 28.3836 135.69 28.4718 136.034L32.3467 135.042ZM26.5983 132.402C26.3755 132.45 26.1855 132.518 26.0398 132.578C25.8949 132.638 25.7683 132.701 25.679 132.746C25.6338 132.769 25.5897 132.793 25.5565 132.81C25.5202 132.829 25.4941 132.843 25.4698 132.855C25.4197 132.88 25.408 132.885 25.4156 132.882C25.4239 132.878 25.4796 132.856 25.57 132.838C25.6644 132.82 25.8066 132.804 25.98 132.824C26.1592 132.845 26.3333 132.9 26.4888 132.984C26.6393 133.065 26.7392 133.156 26.7956 133.216L23.8702 135.944C24.2782 136.382 24.8336 136.717 25.5145 136.797C26.1326 136.87 26.6371 136.703 26.9175 136.589C27.1668 136.488 27.4558 136.33 27.501 136.307C27.6282 136.242 27.5695 136.285 27.435 136.314L26.5983 132.402ZM26.7922 133.212C25.6825 132.028 24.3637 131.508 23.2212 131.211C22.663 131.066 22.1029 130.964 21.6352 130.877C21.1408 130.785 20.7406 130.709 20.3718 130.609L19.3261 134.47C19.876 134.619 20.4333 134.722 20.9052 134.81C21.4038 134.902 21.8189 134.979 22.2146 135.082C22.98 135.281 23.4846 135.533 23.8736 135.948L26.7922 133.212ZM20.3697 130.608C16.2766 129.505 13.3292 127.189 11.0308 123.612L7.66556 125.774C10.4467 130.103 14.1842 133.083 19.3281 134.47L20.3697 130.608Z" fill="white" fill-opacity="0.3" mask="url(#path-1-inside-1_2922_6840)"/>
<path d="M180.503 198.831C180.481 198.919 180.503 199.013 180.503 199.104C180.362 202.628 179.766 206.096 179.108 209.548C178.719 211.579 177.525 213.235 176.035 214.546C174.515 215.882 172.665 216.54 170.511 216.195C166.666 215.579 164.133 213.288 162.578 209.926C161.574 207.751 161.803 205.535 163.443 203.585C164.666 202.133 165.958 200.803 167.557 199.711C170.526 197.686 173.364 195.47 175.853 192.857C176.176 192.519 176.549 192.237 177.026 192.581C179.168 194.118 181.262 195.683 180.503 198.831Z" fill="white" fill-opacity="0.3"/>
<path d="M176.61 193.513C176.599 193.524 176.588 193.535 176.577 193.547C174.022 196.229 171.123 198.489 168.121 200.537C166.628 201.556 165.403 202.81 164.208 204.229L176.61 193.513ZM176.61 193.513C177.632 194.25 178.484 194.905 179.038 195.682C179.572 196.431 179.84 197.313 179.532 198.594C179.485 198.787 179.492 198.953 179.497 199.026C179.498 199.051 179.501 199.089 179.503 199.103C179.362 202.534 178.781 205.926 178.126 209.36L176.61 193.513ZM178.126 209.36C177.791 211.107 176.755 212.579 175.374 213.795C174.053 214.956 172.497 215.5 170.669 215.208C167.207 214.653 164.925 212.619 163.485 209.507C162.641 207.675 162.825 205.875 164.208 204.229L178.126 209.36Z" stroke="white" stroke-opacity="0.3" stroke-width="2"/>
<path d="M179.129 234.076C177.467 233.932 175.809 233.716 174.169 233.409C172.099 233.024 170.055 232.745 167.967 233.306C167.493 233.431 166.81 233.462 166.456 233.212C163.502 231.131 160.084 230.423 156.654 229.688C155.76 229.497 155.453 228.661 155.086 227.882C153.776 225.109 151.609 224.007 148.376 224.433C147.815 224.508 147.37 224.405 146.906 224.132C142.372 221.478 138.208 218.439 135.784 213.563C135.555 213.103 135.295 212.54 134.887 212.302C132.617 210.969 131.843 208.687 130.752 206.499C129.645 204.277 128.087 202.271 127.146 199.936C126.657 198.716 126.005 197.52 126.39 196.152C127.547 195.914 128.168 196.584 128.676 197.188C130.281 199.104 133.037 199.676 134.157 202.283C134.599 203.319 136.095 204.089 137.518 204.365C139.08 204.668 140.18 205.673 140.5 207.222C140.776 208.562 141.616 209.422 142.5 210.305C145.598 213.404 148.655 216.549 151.819 219.582C154.782 222.424 158.416 224.33 161.975 226.279C166.465 228.739 171.356 230.292 176.176 231.985C177.028 232.282 177.916 232.817 178.875 232.248C180.004 231.578 180.531 232.373 180.662 233.202C180.86 234.442 179.747 234.129 179.129 234.076Z" fill="white" fill-opacity="0.3"/>
<path d="M166.456 233.212C166.81 233.462 167.493 233.431 167.967 233.306C170.055 232.745 172.099 233.024 174.169 233.409C175.809 233.716 177.467 233.932 179.129 234.076L166.456 233.212ZM166.456 233.212C163.552 231.166 160.2 230.448 156.829 229.725C156.771 229.713 156.712 229.7 156.654 229.688M166.456 233.212L156.654 229.688M174.461 232.446C174.267 232.379 174.072 232.311 173.878 232.244C169.713 230.801 165.45 229.324 161.494 227.156L161.975 226.279L161.494 227.156C161.269 227.033 161.042 226.909 160.815 226.785C157.493 224.97 154.009 223.067 151.127 220.304C151.127 220.304 151.127 220.303 151.127 220.303L151.819 219.582C149.559 217.415 147.354 215.191 145.149 212.968C144.267 212.079 143.385 211.19 142.5 210.305L174.461 232.446ZM174.461 232.446C174.425 232.44 174.389 232.433 174.353 232.426L174.352 232.426C172.272 232.039 170.033 231.717 167.71 232.339C167.557 232.379 167.365 232.405 167.195 232.4C167.112 232.398 167.053 232.388 167.017 232.38C167.013 232.379 167.009 232.378 167.006 232.377C163.94 230.225 160.422 229.472 157.111 228.763C157.029 228.745 156.946 228.728 156.864 228.71L156.863 228.71C156.727 228.681 156.622 228.615 156.488 228.427C156.353 228.237 156.252 228.018 156.106 227.703C156.071 227.627 156.033 227.545 155.991 227.456L155.99 227.454C155.264 225.918 154.257 224.76 152.908 224.068C151.567 223.38 149.998 223.211 148.246 223.441L148.244 223.442C147.916 223.485 147.694 223.436 147.412 223.27L147.411 223.269C142.917 220.639 138.969 217.723 136.68 213.118L136.679 213.118C136.667 213.093 136.654 213.067 136.64 213.039C136.54 212.836 136.405 212.563 136.247 212.314C136.07 212.034 135.799 211.676 135.391 211.438L134.887 212.302M174.461 232.446L139.52 207.424M139.52 207.424C139.289 206.304 138.528 205.58 137.327 205.346L137.518 204.365L137.328 205.347C136.519 205.19 135.68 204.892 134.963 204.472C134.264 204.062 133.577 203.471 133.238 202.677C132.793 201.643 132.022 200.981 131.032 200.3C130.862 200.183 130.68 200.063 130.491 199.938C129.647 199.379 128.66 198.726 127.91 197.831C127.66 197.534 127.478 197.343 127.284 197.225C127.302 197.418 127.343 197.617 127.402 197.827C127.513 198.219 127.665 198.58 127.841 199.001C127.915 199.176 127.993 199.361 128.074 199.563C128.512 200.651 129.101 201.678 129.743 202.744C129.847 202.917 129.954 203.092 130.061 203.268C130.601 204.158 131.166 205.087 131.647 206.053C131.837 206.436 132.014 206.806 132.184 207.163C133.061 209.003 133.766 210.484 135.394 211.44L134.887 212.302M139.52 207.424C139.863 209.085 140.916 210.136 141.781 211L141.793 211.012C141.793 211.012 141.793 211.012 141.793 211.012L139.52 207.424ZM134.887 212.302C135.27 212.525 135.523 213.036 135.742 213.479C135.756 213.507 135.77 213.535 135.784 213.563M134.887 212.302C132.973 211.177 132.122 209.378 131.248 207.53C131.086 207.187 130.923 206.842 130.752 206.499C130.291 205.574 129.752 204.687 129.212 203.798L135.784 213.563M135.784 213.563C138.208 218.439 142.372 221.478 146.906 224.132C147.37 224.405 147.815 224.508 148.376 224.433C151.609 224.007 153.776 225.109 155.086 227.882C155.119 227.951 155.151 228.02 155.182 228.089C155.512 228.804 155.839 229.514 156.654 229.688M135.784 213.563L156.654 229.688M179.401 233.099C179.476 233.055 179.532 233.031 179.572 233.016C179.575 233.023 179.579 233.03 179.582 233.037C179.595 233.063 179.607 233.093 179.618 233.126C179.583 233.122 179.545 233.117 179.505 233.112L179.496 233.111C179.466 233.107 179.434 233.103 179.401 233.099ZM179.685 233.484C179.685 233.484 179.685 233.483 179.685 233.481L179.685 233.484ZM167.033 232.395L167.032 232.394L167.033 232.395Z" stroke="white" stroke-opacity="0.3" stroke-width="2"/>
</svg>
