<svg width="186" height="152" viewBox="0 0 186 152" fill="none" xmlns="http://www.w3.org/2000/svg">
<path d="M119.661 1L121.049 1.05018L122.068 3.94092L124.827 7.88442L125.144 9.77257L130.995 11.5772L132.767 13.1145L134.889 13.3819L135.859 14.0336L136.762 15.1364L139.085 20.5169L140.857 21.202L141.726 22.6056L143.431 26.8833L145.236 29.8576H145.855L146.373 29.0722L147.727 29.9913L149.833 29.8075L152.742 27.9861L152.675 26.6159L153.293 26.1982L154.129 26.8498L156.001 25.8138L160.882 25.5632L163.741 29.5735L167.786 30.0414L169.959 31.963L171.848 32.6147L173.018 34.3358L175.458 34.6031L176.378 35.9232L176.478 40.0839L175.843 42.44L177.13 48.3218L176.461 50.9953L177.197 57.4285L179.035 60.5031L181.192 61.4221L181.927 64.3296L180.473 65.9337L180.289 67.0533L181.041 67.9389L180.791 69.2423L184 73.169L183.482 73.921L182.078 74.0881L181.76 75.2744L182.395 77.9313L181.325 78.9171L178.317 78.4326L174.188 79.385L171.647 77.9981L169.959 77.8979L168.521 78.1652L166.632 79.3015L165.596 80.7385L165.579 85.4673L166.164 86.6203L168.772 88.1743L168.354 90.7977L169.491 91.4828L170.176 90.9648L173.436 90.3465L174.673 90.5805L175.04 92.0008L174.823 94.3903L172.784 100.172L172.533 102.277L172.667 104.516L173.386 106.588L169.625 107.708L167.986 108.794L164.66 113.389L160.448 114.325L154.597 114.642L151.488 116.146L146.323 121.56L144.618 122.613L142.194 123.265L138.467 123.315L134.873 125.069L129.641 129.982L125.127 132.421L124.86 132.906L125.445 133.858L124.977 135.83L119.661 140.509L115.366 143.015L114.513 142.781L114.747 140.409L112.724 138.738L107.409 141.244L105.169 141.862L98.583 142.982L95.5408 142.197L94.1701 142.548L92.0639 144.736L81.7504 144.486L79.8782 144.904L77.6717 146.992L75.4318 147.26L73.777 141.278L72.5735 140.041L70.0494 139.389L69.3808 137.769L68.2775 137.518L66.9403 137.635L64.4496 140.576L62.6611 141.812L55.7743 144.87L54.2698 147.393L52.6819 148.162L46.8815 147.276L43.5718 148.73L40.4126 148.797L38.4234 150L34.9465 149.632L33.4589 148.296L29.28 148.747L28.1432 149.532L26.4215 149.783L24.2318 148.596L22.1089 148.112L21.8247 147.677L22.2761 145.956L21.6242 145.488L19.3007 148.814L17.4787 149.649L14.2525 148.296L12.7649 148.797L9.30473 148.68L9.57219 148.229L8.13467 144.486L3.3707 139.673L2.9528 138.754L3.13665 137.735L4.15633 135.563L3.55454 134.143L3.5044 132.054L3.08651 131.753L3.62142 129.28L2 128.311L2.53491 126.991L2.20058 125.888L2.81905 124.418L2.61847 123.883L3.73844 121.894L3.25367 121.343L3.3707 118.536L4.85836 115.277L5.09241 112.336L4.85836 109.947L4.15633 108.226L3.62142 107.658L2.06688 107.407L2.55159 105.502L4.6912 103.297L6.34608 100.072L6.69709 100.255L6.9144 98.6011L5.92819 98.4507L8.58597 96.2283L11.8455 91.5496L12.6646 88.993L12.3971 84.2642L15.1719 82.0418L18.2643 77.2796L20.0696 75.6922L22.4433 72.25L27.8591 66.151L33.9603 68.3567L37.4205 68.6741L41.8668 67.9389L50.1578 68.7243L53.4508 69.8772L54.5039 71.8155L55.4232 75.9428L58.8834 77.9146L59.3681 79.101L63.1793 79.9866L63.1291 81.3902L63.9649 82.0251L65.6699 81.3568L67.8931 83.3118L68.6119 83.4455L69.4978 82.0753L70.0995 83.0945L70.5843 82.9609L71.8714 81.2732L72.7239 81.0894L74.2785 81.8914L75.2981 81.34L80.6304 80.538L82.5026 81.6408L83.7228 83.646L87.0325 84.7488L91.6293 82.7938L93.7355 84.3144L94.588 84.4815L96.4434 83.7796L94.3874 80.9557L93.351 80.7218L92.1809 76.8117L95.1229 73.2024L95.3903 72.0662L96.9282 70.1112L97.3293 67.588L99.6863 63.3604L102.461 60.9041L104.835 59.4838L105.085 56.192L106.155 56.3591L106.958 57.4954L107.041 56.1586L106.79 55.0725L104.216 52.9002L100.372 50.7781L98.1819 50.3771L95.6411 48.138L92.9499 44.4284L90.9774 39.5659L90.7601 38.0286L91.2448 35.5723L96.1425 34.0016L97.4798 31.8293L99.3519 31.0272L102.127 31.044L102.511 30.4591L102.461 27.8859L103.497 27.0169L107.459 26.9501L108.328 25.9141L110.234 25.0452L111.17 23.6583L112.791 22.4886L115.031 19.2804L115.767 19.6146L116.151 19.2637L116.586 17.1249L116.235 15.2701L114.446 12.5297L114.864 11.2932L114.446 10.5078L116.77 8.70318V7.50008L117.321 6.81498L116.552 4.99363L116.92 3.10543L118.441 1.38434L119.661 1Z" fill="#CCCCCC" fill-opacity="0.3" stroke="white" stroke-opacity="0.3" stroke-width="2"/>
</svg>
