<svg width="242" height="176" viewBox="0 0 242 176" fill="none" xmlns="http://www.w3.org/2000/svg">
<mask id="path-1-inside-1_2922_6780" fill="white">
<path d="M241.452 102.252C239.676 106.631 235.016 108.224 230.417 106.003C229.498 105.559 228.651 104.967 227.707 104.59C224.859 103.441 222.337 104.146 220.265 106.289C218.249 108.382 217.233 110.847 218.54 113.721C219.382 115.574 220.408 117.345 221.347 119.157C222.69 121.755 223.7 124.44 223.404 127.446C223.246 128.543 222.797 129.345 222.179 129.973C221.23 130.942 219.893 131.519 218.622 132.198C211.634 135.924 211.2 137.465 215.34 144.213C216.442 146.015 216.871 147.868 215.391 149.353C215.176 149.567 214.947 149.787 214.712 149.991C213.456 151.058 211.905 151.757 210.225 150.001C206.208 150.093 202.309 149.792 198.644 147.791C196.219 146.469 193.453 146.959 190.799 147.066C187.119 145.321 183.413 143.611 179.754 141.814C176.145 140.048 173.761 137.399 173.766 133.106C173.771 130.595 172.837 128.819 170.061 128.523C166.814 128.176 165.421 129.702 166.054 132.958C166.718 136.404 166.314 136.945 162.971 136.414C159.072 135.801 155.448 134.582 152.411 131.774C149.537 129.11 149.037 129.227 146.893 132.239C144.831 135.148 142.876 138.139 140.982 141.156C139.405 143.667 139.242 146.239 141.023 148.802C141.998 150.205 143.06 151.711 141.717 153.436C140.329 155.207 138.354 155.697 136.23 155.432C135.245 155.309 134.301 154.825 133.347 154.467C129.85 153.171 127.007 154.294 124.639 156.907C122.74 158.995 122.669 160.618 124.45 162.787C125.634 164.226 127.155 165.39 128.314 166.845C130.065 169.045 129.968 171.398 128.288 173.342C126.538 175.364 124.241 175.915 121.949 174.042C116.044 169.218 109.837 164.512 107.857 156.509C107.086 153.406 105.463 150.986 102.926 149.016C99.843 146.617 96.9439 143.983 93.9631 141.452C91.1047 139.027 88.0116 137.021 84.5204 135.883C83.0759 137.297 84.0049 138.313 84.6174 139.237C87.787 143.988 91.7019 147.914 97.0307 150.251C98.5772 150.93 100.19 151.517 101.425 152.768C104.585 155.983 105.228 161.981 100.527 164.619C97.9545 166.064 95.9843 168.055 94.4224 170.607C92.4573 173.827 90.7168 173.996 87.9198 171.576C87.2817 171.025 86.7101 170.377 86.2099 169.698C83.8109 166.452 84.3366 164.997 88.2515 164.094C90.0737 163.675 91.9214 163.384 93.7487 162.996C94.5858 162.818 95.4841 162.517 95.7495 161.634C96.0353 160.659 95.2034 160.092 94.5347 159.592C93.3199 158.668 92.049 157.805 90.8036 156.917C86.5008 153.86 82.4022 150.558 78.7629 146.714C77.2317 145.101 75.4758 143.795 73.521 142.707C70.7698 141.176 68.0748 140.992 65.2676 142.488C61.3068 144.606 57.2643 146.188 52.594 145.004C50.9555 144.591 49.46 145.275 49.2099 147.194C48.8169 150.261 46.9437 152.022 44.3048 153.191C41.125 154.605 40.0276 156.989 39.9255 160.485C39.6856 168.58 34.1629 173.603 26.1239 173.526C23.2298 173.501 20.346 173.419 17.4775 173.94C12.0977 174.92 7.40189 173.021 3.03274 170.208C0.15911 168.356 -0.172659 166.794 1.82306 163.859C3.72691 161.062 4.12503 158.341 2.93576 155.207C1.83327 152.293 1.70567 149.21 2.114 146.148C2.62441 142.314 4.27305 140.758 8.12668 140.574C11.8629 140.395 15.6042 140.589 19.2997 141.294C21.1371 141.646 22.9797 141.957 24.8479 141.421C29.9979 139.956 31.4883 136.256 28.6147 131.769C26.5016 128.467 23.9546 125.491 21.2647 122.648C19.4834 120.77 18.973 118.84 21.178 116.947C22.5612 115.763 22.6888 114.584 21.9436 112.914C21.4128 111.73 21.571 110.25 21.3107 108.923C20.2337 103.508 15.5073 101.645 11.0565 104.855C6.89658 107.856 2.38962 106.56 0.506192 101.798C-0.478908 99.3068 -0.0603679 97.1069 2.06296 95.3766C3.50743 94.1976 5.04378 93.1257 6.50867 91.9671C10.9186 88.4809 13.8637 84.0097 15.4511 78.6248C15.8799 77.1599 16.1912 75.6338 16.8139 74.2506C17.8807 71.8771 19.4987 71.3463 21.7752 72.5866C23.8985 73.7453 25.4655 75.5828 26.9354 77.456C29.9877 81.3453 32.5959 85.5205 34.7601 89.9764C37.0059 94.6008 39.8642 98.8168 43.5341 102.425C47.0049 105.84 48.7097 105.743 51.7977 101.946C53.9925 99.2456 56.4221 96.8875 59.801 95.8819C63.7414 94.708 66.0026 92.5234 65.3901 88.1236C65.3339 87.7255 65.7371 87.261 65.9158 86.8476C67.7992 86.72 68.7537 88.1032 69.9225 88.9913C73.4138 91.6404 77.3133 92.3448 81.5089 91.4975C89.4051 89.8948 96.1476 86.1636 101.614 80.1969C104.131 77.4458 105.601 74.2863 105.269 70.4735C104.927 66.5484 101.67 64.4812 98.0311 65.8287C95.479 66.7679 94.351 68.3961 95.3412 70.9686C96.8826 74.9856 97.1378 78.6554 93.8252 81.7792C89.9104 85.4746 85.1839 87.1641 79.7991 86.378C75.8587 85.8012 72.3062 84.0965 69.2386 81.5699C66.564 79.3598 63.7976 78.5176 60.2859 79.2628C56.8713 79.9825 55.2737 78.9004 53.7832 75.7971C51.6242 71.3055 51.7926 66.7373 54.3753 62.6029C63.3229 48.2909 74.256 35.8521 89.1958 27.5068C95.1268 24.1993 101.558 23.1019 108.408 23.9237C121.286 25.4703 133.597 29.5995 146.306 31.8811C149.813 32.5089 152.288 34.9538 154.835 37.2251C159.204 41.1298 162.655 41.2829 166.871 37.2915C168.882 35.3876 170.408 34.4025 172.924 36.337C175.313 38.1694 178.253 38.0673 180.703 36.7811C188.625 32.6263 196.995 32.8764 205.499 33.5859C207.459 33.7492 209.516 33.9789 211.705 33.1826C210.205 30.5897 207.025 31.1563 204.993 29.0279C212.981 27.7876 220.393 28.4919 227.513 31.5799C229.509 32.4476 231.535 33.4889 232.571 35.6428C225.272 42.1047 223.287 48.9391 226.446 57.953C228.416 63.5625 230.621 69.0954 232.974 74.5568C234.934 79.0893 234.832 82.9276 231.06 86.5975C228.508 89.0781 228.988 89.9356 232.602 90.5634C233.771 90.7625 234.991 90.7931 236.113 91.1453C240.615 92.5438 243.193 97.9695 241.452 102.252Z"/>
</mask>
<path d="M241.452 102.252C239.676 106.631 235.016 108.224 230.417 106.003C229.498 105.559 228.651 104.967 227.707 104.59C224.859 103.441 222.337 104.146 220.265 106.289C218.249 108.382 217.233 110.847 218.54 113.721C219.382 115.574 220.408 117.345 221.347 119.157C222.69 121.755 223.7 124.44 223.404 127.446C223.246 128.543 222.797 129.345 222.179 129.973C221.23 130.942 219.893 131.519 218.622 132.198C211.634 135.924 211.2 137.465 215.34 144.213C216.442 146.015 216.871 147.868 215.391 149.353C215.176 149.567 214.947 149.787 214.712 149.991C213.456 151.058 211.905 151.757 210.225 150.001C206.208 150.093 202.309 149.792 198.644 147.791C196.219 146.469 193.453 146.959 190.799 147.066C187.119 145.321 183.413 143.611 179.754 141.814C176.145 140.048 173.761 137.399 173.766 133.106C173.771 130.595 172.837 128.819 170.061 128.523C166.814 128.176 165.421 129.702 166.054 132.958C166.718 136.404 166.314 136.945 162.971 136.414C159.072 135.801 155.448 134.582 152.411 131.774C149.537 129.11 149.037 129.227 146.893 132.239C144.831 135.148 142.876 138.139 140.982 141.156C139.405 143.667 139.242 146.239 141.023 148.802C141.998 150.205 143.06 151.711 141.717 153.436C140.329 155.207 138.354 155.697 136.23 155.432C135.245 155.309 134.301 154.825 133.347 154.467C129.85 153.171 127.007 154.294 124.639 156.907C122.74 158.995 122.669 160.618 124.45 162.787C125.634 164.226 127.155 165.39 128.314 166.845C130.065 169.045 129.968 171.398 128.288 173.342C126.538 175.364 124.241 175.915 121.949 174.042C116.044 169.218 109.837 164.512 107.857 156.509C107.086 153.406 105.463 150.986 102.926 149.016C99.843 146.617 96.9439 143.983 93.9631 141.452C91.1047 139.027 88.0116 137.021 84.5204 135.883C83.0759 137.297 84.0049 138.313 84.6174 139.237C87.787 143.988 91.7019 147.914 97.0307 150.251C98.5772 150.93 100.19 151.517 101.425 152.768C104.585 155.983 105.228 161.981 100.527 164.619C97.9545 166.064 95.9843 168.055 94.4224 170.607C92.4573 173.827 90.7168 173.996 87.9198 171.576C87.2817 171.025 86.7101 170.377 86.2099 169.698C83.8109 166.452 84.3366 164.997 88.2515 164.094C90.0737 163.675 91.9214 163.384 93.7487 162.996C94.5858 162.818 95.4841 162.517 95.7495 161.634C96.0353 160.659 95.2034 160.092 94.5347 159.592C93.3199 158.668 92.049 157.805 90.8036 156.917C86.5008 153.86 82.4022 150.558 78.7629 146.714C77.2317 145.101 75.4758 143.795 73.521 142.707C70.7698 141.176 68.0748 140.992 65.2676 142.488C61.3068 144.606 57.2643 146.188 52.594 145.004C50.9555 144.591 49.46 145.275 49.2099 147.194C48.8169 150.261 46.9437 152.022 44.3048 153.191C41.125 154.605 40.0276 156.989 39.9255 160.485C39.6856 168.58 34.1629 173.603 26.1239 173.526C23.2298 173.501 20.346 173.419 17.4775 173.94C12.0977 174.92 7.40189 173.021 3.03274 170.208C0.15911 168.356 -0.172659 166.794 1.82306 163.859C3.72691 161.062 4.12503 158.341 2.93576 155.207C1.83327 152.293 1.70567 149.21 2.114 146.148C2.62441 142.314 4.27305 140.758 8.12668 140.574C11.8629 140.395 15.6042 140.589 19.2997 141.294C21.1371 141.646 22.9797 141.957 24.8479 141.421C29.9979 139.956 31.4883 136.256 28.6147 131.769C26.5016 128.467 23.9546 125.491 21.2647 122.648C19.4834 120.77 18.973 118.84 21.178 116.947C22.5612 115.763 22.6888 114.584 21.9436 112.914C21.4128 111.73 21.571 110.25 21.3107 108.923C20.2337 103.508 15.5073 101.645 11.0565 104.855C6.89658 107.856 2.38962 106.56 0.506192 101.798C-0.478908 99.3068 -0.0603679 97.1069 2.06296 95.3766C3.50743 94.1976 5.04378 93.1257 6.50867 91.9671C10.9186 88.4809 13.8637 84.0097 15.4511 78.6248C15.8799 77.1599 16.1912 75.6338 16.8139 74.2506C17.8807 71.8771 19.4987 71.3463 21.7752 72.5866C23.8985 73.7453 25.4655 75.5828 26.9354 77.456C29.9877 81.3453 32.5959 85.5205 34.7601 89.9764C37.0059 94.6008 39.8642 98.8168 43.5341 102.425C47.0049 105.84 48.7097 105.743 51.7977 101.946C53.9925 99.2456 56.4221 96.8875 59.801 95.8819C63.7414 94.708 66.0026 92.5234 65.3901 88.1236C65.3339 87.7255 65.7371 87.261 65.9158 86.8476C67.7992 86.72 68.7537 88.1032 69.9225 88.9913C73.4138 91.6404 77.3133 92.3448 81.5089 91.4975C89.4051 89.8948 96.1476 86.1636 101.614 80.1969C104.131 77.4458 105.601 74.2863 105.269 70.4735C104.927 66.5484 101.67 64.4812 98.0311 65.8287C95.479 66.7679 94.351 68.3961 95.3412 70.9686C96.8826 74.9856 97.1378 78.6554 93.8252 81.7792C89.9104 85.4746 85.1839 87.1641 79.7991 86.378C75.8587 85.8012 72.3062 84.0965 69.2386 81.5699C66.564 79.3598 63.7976 78.5176 60.2859 79.2628C56.8713 79.9825 55.2737 78.9004 53.7832 75.7971C51.6242 71.3055 51.7926 66.7373 54.3753 62.6029C63.3229 48.2909 74.256 35.8521 89.1958 27.5068C95.1268 24.1993 101.558 23.1019 108.408 23.9237C121.286 25.4703 133.597 29.5995 146.306 31.8811C149.813 32.5089 152.288 34.9538 154.835 37.2251C159.204 41.1298 162.655 41.2829 166.871 37.2915C168.882 35.3876 170.408 34.4025 172.924 36.337C175.313 38.1694 178.253 38.0673 180.703 36.7811C188.625 32.6263 196.995 32.8764 205.499 33.5859C207.459 33.7492 209.516 33.9789 211.705 33.1826C210.205 30.5897 207.025 31.1563 204.993 29.0279C212.981 27.7876 220.393 28.4919 227.513 31.5799C229.509 32.4476 231.535 33.4889 232.571 35.6428C225.272 42.1047 223.287 48.9391 226.446 57.953C228.416 63.5625 230.621 69.0954 232.974 74.5568C234.934 79.0893 234.832 82.9276 231.06 86.5975C228.508 89.0781 228.988 89.9356 232.602 90.5634C233.771 90.7625 234.991 90.7931 236.113 91.1453C240.615 92.5438 243.193 97.9695 241.452 102.252Z" fill="white" fill-opacity="0.3" stroke="white" stroke-opacity="0.3" stroke-width="4" mask="url(#path-1-inside-1_2922_6780)"/>
<path d="M217.861 6.48778C214.574 10.6426 210.128 13.0415 204.968 14.0827C202.972 14.486 200.931 14.6697 198.945 15.1087C194.913 16.0019 194.214 17.5382 196.215 21.249C197.327 23.3212 198.69 25.2557 200.584 28.2825C196.118 27.4505 192.616 26.9656 189.201 26.1183C185.322 25.1587 183.944 22.7292 185.098 18.7939C187.032 12.2044 190.59 6.74809 196.888 3.50185C201.65 1.05186 206.724 -0.219067 212.104 0.031036C213.446 0.0922857 214.824 0.301556 216.095 0.7252C219.377 1.81749 220.03 3.74685 217.861 6.48778Z" fill="white" fill-opacity="0.3"/>
<path d="M217.077 5.86732L217.077 5.86719C218.1 4.57494 218.218 3.76328 218.068 3.28829C217.915 2.80116 217.335 2.19171 215.779 1.67403L215.779 1.67388C214.616 1.28618 213.333 1.08815 212.058 1.03L212.057 1.02996C206.873 0.788923 201.972 2.01119 197.346 4.39108C191.355 7.47876 187.938 12.6698 186.057 19.0752L217.077 5.86732ZM217.077 5.86732C213.96 9.8072 209.738 12.1001 204.77 13.1025L204.77 13.1025C203.874 13.2836 202.967 13.4194 202.03 13.5596C201.955 13.5708 201.88 13.5821 201.805 13.5934C200.798 13.7444 199.76 13.9045 198.729 14.1323L198.729 14.1323C197.68 14.3647 196.777 14.6531 196.058 15.045C195.329 15.4422 194.734 15.9762 194.404 16.7143C194.076 17.4505 194.071 18.2529 194.254 19.069C194.436 19.876 194.814 20.7592 195.334 21.7226C196.088 23.1273 196.967 24.4903 198.018 26.1199C198.18 26.3707 198.346 26.6277 198.516 26.8922C197.876 26.7793 197.258 26.6723 196.658 26.5683C194.016 26.1106 191.72 25.7128 189.442 25.1477L189.442 25.1476C187.652 24.7048 186.634 23.9719 186.134 23.082C185.631 22.1876 185.521 20.9041 186.057 19.0756L217.077 5.86732Z" stroke="white" stroke-opacity="0.3" stroke-width="2"/>
</svg>
