<svg width="197" height="159" viewBox="0 0 197 159" fill="none" xmlns="http://www.w3.org/2000/svg">
<path d="M120.648 2L121.587 2.63919L120.708 3.61791L121.247 3.95747L121.067 4.77642L122.805 6.83376L126.559 8.03222L129.855 7.47295L130.474 10.0896L129.455 15.982L130.194 19.2378L130.214 24.0316L130.813 24.8905L130.534 36.0161L131.612 36.6153L131.772 38.3132L132.551 38.6527L135.926 38.2332L136.165 38.7726L134.987 39.7713L135.626 40.6901L139.66 40.1907L142.736 42.1682L146.011 41.7487L146.87 42.7075L146.011 44.0258L146.91 45.7635L146.63 48.52L144.833 51.616L145.532 52.8144L147.429 53.7932L147.549 54.8718L146.371 55.4311L143.535 55.4111L143.035 55.9304L143.874 59.7854L143.595 61.0638L141.857 62.6617L142.157 63.3009L146.031 61.9426L147.309 63.4207L147.429 65.3982L148.048 66.1572L151.843 67.6553L153.221 67.5554L154.998 61.6231L156.556 60.9839L156.776 58.9465L159.332 59.7455L161.608 57.0889L166.601 54.2326L167.76 51.8557L167.68 49.299L168.658 48.6598L178.304 48.8196L179.922 49.7384L182.598 53.3138L185.054 53.2339L188.769 55.4111L189.848 56.8093L192.943 57.8879L193.203 58.8666L191.885 62.3421L194.78 63.8602L195 65.1585L194.241 65.4981L190.087 63.6804L185.554 65.8576L185.853 68.7139L184.555 73.7674L181.859 73.9472L182.298 75.8647L181.779 76.9033L180.082 77.3028L179.103 78.9607L174.35 81.3177L173.651 82.8557L173.911 83.7745L173.152 84.5335L173.471 86.2713L174.829 88.0689L177.086 90.4259L180.601 92.7629L181.08 101.971L184.276 104.707L184.356 105.986L181.48 112.258L179.463 113.556L171.973 116.352L171.274 117.691L170.975 121.985L174.45 124.662L179.742 131.972L181.759 136.586L181.939 140.921L175.169 139.702L172.233 138.644L166.721 134.609L160.23 133.191L159.092 132.552L155.597 128.337L153.82 127.798L153.241 126.939L151.184 126.02L150.165 124.322L149.166 124.282L148.148 124.562L146.99 127.778L145.052 128.936L140.978 136.327L137.963 138.764L135.107 139.842L134.488 141.3L131.792 144.197L128.976 146.014L128.477 148.711L127.698 149.13L126.08 151.747L119.749 154.543L117.153 156.301L109.165 157L106.069 153.085L108.745 149.01L108.925 147.532L106.968 146.354L105.41 146.294L103.972 146.494L101.256 148.371L99.219 144.916L99.5585 138.644L101.396 135.608L105.35 133.191L104.451 132.572L99.4387 132.811L98.5 131.992L97.3217 131.872L96.2633 127.778L95.8638 127.358L93.8068 127.318L91.7298 125.84L89.8326 125.86L84.3406 129.855L83.2621 129.615L80.4861 127.378L77.85 127.039L75.114 125.84L72.8772 123.583L72.9571 117.151L72.7174 115.893L71.0998 113.936L71.3194 112.557L70.281 111.798L67.505 111.639L65.3681 109.921L62.3924 109.741L61.5736 108.882L58.8375 108.283L57.0801 104.967L57.4396 103.249L56.9003 100.793L55.103 101.372L53.8848 101.172L54.1843 98.3557L53.8049 97.0973L52.7264 96.7378L50.8891 97.7365L47.2144 97.7564L47.1745 96.1785L45.8963 95.3595L46.136 94.5006L48.0931 94.221L46.815 92.3035L45.8963 92.2036L44.4983 93.5818L43.1403 93.9613L42.661 93.1624L43.7994 91.8641L42.9206 90.3859L36.5698 89.8466L35.7311 91.1649L34.9322 91.2249L34.6526 90.5457L35.1519 89.6469L34.3531 89.587L32.0165 91.3247L31.2575 91.105L31.3574 89.4871L30.4986 88.8479L26.844 88.2088L23.6886 89.4272L22.0909 91.0051L20.3734 90.4659L19.6744 91.0251L17.178 91.145L13.6032 92.5232L12.3051 90.6656L9.56904 91.7242L6.39365 88.3086L6.65322 87.25L5.61475 86.7706L4.19683 87.6095L3.19827 87.3898L2.81882 85.9317L3.43792 84.8132L2 83.1553L2.6191 81.8769L6.05412 80.9581L11.0868 77.942L12.2052 75.8048L14.3421 75.3054L15.4605 74.3267L15.4005 72.1495L15.9398 71.1508L18.7157 70.5116L19.9739 69.5728L20.9326 68.7139L21.3319 66.9362L23.8683 65.8776L25.9253 66.2571L26.804 65.518L27.2234 64.1398L26.0651 63.5606L25.9652 62.5219L27.1036 57.4085L27.1235 54.1127L28.0222 51.1366L30.279 48.54L35.2318 46.203H37.0092L38.2674 45.3641L40.2845 46.0032L45.8963 44.5251L48.193 44.625L51.1687 43.087L52.7863 42.8473L54.2841 40.2507L55.5423 39.232L57.2 39.1521L65.2283 32.1411L72.8972 30.7829L77.9698 27.4671L79.8271 22.6533L79.4676 17.9394L78.1495 16.5612L78.489 13.8647L80.6659 11.348L82.623 12.0071L84.3006 11.5876L88.0552 12.6063L89.1735 11.7075L90.3119 11.6076L91.1107 10.7088L93.008 10.2893L93.5472 9.76997L95.8438 8.81122L98.4601 9.11082L98.7197 8.5915L102.474 7.53287L103.493 7.99227L104.651 7.73259L111.062 5.03609L111.581 4.2571L112.36 4.59666L113.778 3.97746L114.297 4.69653L116.534 4.31702L119.37 2.21972L120.648 2Z" fill="#CCCCCC" fill-opacity="0.3" stroke="white" stroke-opacity="0.3" stroke-width="2"/>
</svg>
