<svg width="195" height="244" viewBox="0 0 195 244" fill="none" xmlns="http://www.w3.org/2000/svg">
<path d="M1 24.7227L1.13344 24.7005L1 24.7227ZM128.578 2.72258L128.088 6.76911L128.489 10.2487L133.103 13.9172L134.359 19.32L136.705 24.5671L137.717 30.837L143.443 43.3545L146.79 45.1665L162.468 45.8669L165.903 46.8118L167.949 48.9018L167.004 52.159L166.682 58.0842L168.083 60.6522L172.197 62.0752L178.479 60.441L185.65 62.0085L185.995 63.7538L184.928 70.6129L186.918 85.1759L186.162 87.7772L183.571 91.5902L184.183 99.3053L182.226 108.732L182.871 110.367L188.174 117.437L193 125.285L188.53 126.919L182.181 131.11L176.377 129.665L173.865 129.943L170.351 131.633L165.292 131.944L160.555 136.18L153.428 139.581L142.187 149.853L139.618 151.121L137.072 150.854L135.516 149.72L130.323 139.637L128.122 137.492L126.476 137.247L120.45 140.315L115.824 140.093L110.698 142.061L108.575 140.437L107.151 136.246L105.795 134.634L104.205 133.956L101.692 134.312L100.18 135.88L99.4017 138.236L100.636 143.283L100.502 145.907L97.5115 151.054L95.9882 155.012L87.3933 157.079L82.9458 161.637L83.1348 163.216L83.8798 163.994L87.9493 165.206L89.0278 166.907L88.6831 172.776L89.6949 177.101L89.3947 182.037L90.8402 183.749L94.943 186.116L97.2335 189.518L99.0014 190.685H101.881L104.338 189.485L107.207 179.502L109.876 174.544L111.566 173.888L116.691 173.843L117.57 173.288L119.249 172.465L121.795 172.609L123.852 174.699L124.085 176.389L122.629 184.082L125.064 189.018L123.652 194.132L122.807 195.71L121.117 196.544L115.846 196.066L113.356 196.477L109.042 199.612L108.208 199.679L106.017 197.6L105.473 208.717L106.151 212.019L107.285 213.664L108.886 214.197L116.347 214.431L118.693 215.776L122.006 225.937L120.338 233.063L119.215 235.219L115.268 237.498L113.078 241L112.633 238.921L112.333 238.554L111.277 237.187L111.31 236.642L110.954 236.009L110.543 235.597L109.976 236.442L109.575 236.053L109.976 234.775L109.464 234.508L108.931 233.785L109.097 232.818L108.286 231.851L107.685 229.583L107.741 228.694L107.552 227.126L106.64 226.237L106.807 224.892L105.239 223.713L104.539 222.268L102.026 222.168L100.847 221.245L100.636 219.445L98.7012 217.032L100.08 211.596L98.3454 211.151L97.0667 210.129L95.7325 207.094L97.1668 203.759L96.9444 201.88L93.5532 200.435L92.319 197.511L92.7415 195.832L92.2412 194.232L91.3294 193.587L90.7067 192.075L88.95 191.175L89.2835 190.697L88.7498 188.44L89.3058 185.36L87.9493 183.904L85.4253 183.282L82.3232 180.936L82.0118 179.802L83.1682 180.836L83.5462 178.501L82.2898 175.011L80.6998 173.188L78.4093 173.821L77.2863 173.465L77.4865 174.333L78.7206 174.911L78.3871 175.222L76.886 174.288L76.4079 172.621L74.8291 171.831L74.4955 169.608L73.05 168.963L73.517 167.562L73.0612 166.317L66.7346 161.971L63.4211 160.915L62.0424 158.658L61.3197 158.602L61.4753 157.213L58.9291 157.291L57.3169 155.601L56.7498 153.955L54.9152 153.3L52.8138 153.589L52.8805 154.156L52.0466 154.3L49.7116 152.566L48.4441 152.788L50.1453 153.644L50.4566 154.467L47.4879 153.055L41.7616 148.731L39.8047 146.563L40.4496 145.963L39.2599 145.129L39.4601 143.939L38.3926 144.284L37.6143 143.528L36.4913 142.061L36.7471 141.649L37.8589 142.405L37.4142 141.104L36.3134 141.205L34.6678 139.003L32.8444 135.646L33.4225 134.79L33.2335 133.967L31.6213 132.967L31.4545 133.678L32.1216 134.757L31.4767 134.512L30.5872 132.1L31.5768 132.578L31.9548 132.356L31.3655 131.878L31.688 131.6L30.943 131.466L30.3315 131.677L28.0521 129.765L28.3301 128.309L27.3961 127.453L25.9618 127.375L24.5831 125.219L24.761 123.885L23.2933 121.272L21.4475 120.16L20.458 115.447L19.5351 114.669L18.123 111.89L18.2453 111.022L19.2127 110.589L20.647 109.588L21.4253 107.51L20.0688 106.376L20.2134 105.464L19.9243 104.641L20.925 104.53L19.902 103.041L20.18 102.607H19.524L19.2571 102.929L18.3899 102.185L17.3558 95.4367L15.7658 91.9683L12.1633 87.2658L11.7408 85.1981L12.1744 84.6756L11.6074 83.0748L12.2634 82.2077L13.7867 81.8964L12.6525 83.9864L13.2307 84.6979L13.7422 83.7196L14.6206 83.9086L14.843 80.8515L16.1995 80.9626L15.9326 80.0066L16.5553 77.5498L16.1772 76.7827L15.5546 79.951L14.9097 79.6619L15.7992 77.4942L15.4434 75.86L17.9451 71.202L17.9229 69.3122L18.4121 68.5118L19.3461 68.3117L19.7019 66.7776L18.401 66.7665L18.2342 67.7892L17.8673 67.578L17.0667 66.9443L17.6004 64.5653L17.4892 60.5633L15.3989 57.0615L14.9653 55.105L13.6644 53.5152L14.6539 52.5147L13.6199 52.4369L13.1418 52.7815L8.39403 44.8553L9.83949 45.4L11.3628 47.8901L11.1515 48.4126L12.4746 48.6461L13.0417 47.8457L11.2849 45.3444L11.2293 43.688H8.68312L9.03893 43.0988L8.04935 43.21L7.76025 43.5991L6.15915 41.1645L6.98194 39.3302L6.17027 35.1058L5.8923 34.261L5.13621 35.0169L3.26825 32.2933L3.16819 30.8036L2.80126 30.3701L2.54553 30.2033L1.45588 27.7243L1.37805 24.8339L7.07089 24.3892L10.4955 23.3665L11.4072 23.7444L13.7755 27.5464L16.4663 29.603L20.2689 34.1387L22.1369 35.5839L23.8603 35.8395L29.2863 34.6056L31.0431 35.0169L31.5212 39.308L32.2995 39.9528L43.9076 36.3398L49.2001 35.9952L50.3899 37.5404L50.7012 41.1534L47.7547 48.8573L47.8214 49.8133L48.4774 50.636L52.9027 51.9478L55.2266 54.0711L55.7269 56.639L54.804 60.9413L55.5268 62.6977L60.8193 63.3202L63.41 62.0752L68.558 57.5173L76.1077 59.9741L77.909 59.9519L82.8791 52.5481L93.2641 44.6329L98.9569 38.7188L101.681 36.7511L107.985 34.1831L108.608 33.3382L108.163 31.5929L102.215 28.3246L101.37 27.5909L101.147 25.9345L105.139 22.7439L118.204 16.2629L119.382 14.562L120.149 12.1052L119.972 8.52555L118.737 5.72413L119.382 3.14503L122.985 2L128.578 2.72258Z" fill="#CCCCCC" fill-opacity="0.3" stroke="white" stroke-opacity="0.3" stroke-width="2"/>
</svg>
