<svg width="178" height="211" viewBox="0 0 178 211" fill="none" xmlns="http://www.w3.org/2000/svg">
<path d="M176.018 133.692C171.037 145.231 164.352 155.576 155.502 164.506C150.417 169.639 145.327 174.772 140.204 179.871C134.859 185.197 128.344 188.584 121.324 191.103C118.485 192.122 115.546 192.575 112.107 192.528C107.479 192.806 103.45 191.004 100.134 187.065C93.0576 178.659 85.3068 170.785 80.3535 160.775C79.2025 158.445 77.1551 156.935 74.8388 155.817C69.1874 153.095 63.1774 152.633 57.4079 154.647C48.3316 157.808 39.0807 160.218 29.7732 162.497C24.8907 163.69 19.994 164.837 15.2907 166.672C11.7762 168.045 8.19098 167.884 4.66235 166.724C0.529877 165.365 -0.776851 162.851 0.430811 158.728C0.737444 157.671 1.12899 156.633 1.5913 155.638C5.3275 147.58 6.39836 139.113 5.61055 130.329C5.02087 123.696 5.57753 117.191 7.45978 110.742C10.6959 99.6559 17.5457 92.8864 29.2685 91.5136C31.297 91.2778 33.3066 90.8909 35.3115 90.5088C42.2178 89.1927 47.9636 85.9754 52.2282 80.2673C56.2805 74.8422 60.7903 69.8418 65.8616 65.3272C69.8384 61.7797 73.985 60.3644 79.2402 62.2656C84.0614 64.0063 85.4861 63.2232 86.6796 58.3076C88.3543 51.4391 92.8358 48.0991 99.5157 46.9386C104.082 46.1461 108.573 46.165 113.083 47.1604C114.937 47.5708 116.734 48.1416 118.315 49.2172C121.136 51.1419 121.754 53.444 120.206 56.5339C119.503 57.9302 118.522 59.1898 117.772 60.5673C115.668 64.4356 115.989 66.7471 119.178 69.8418C123.018 73.5732 127.702 75.0545 132.986 74.5403C136.024 74.2431 137.552 72.8656 138.062 69.8653C138.402 67.8652 138.397 65.7989 138.425 63.7563C138.51 58.4633 140.104 53.5478 142.128 48.7501C142.609 47.6132 143.322 46.5093 144.166 45.6083C145.784 43.8865 147.407 43.9761 148.983 45.797C150.332 47.3585 151.139 49.269 151.912 51.156C155.922 60.9069 159.295 70.8937 161.838 81.1117C163.942 89.5701 166.866 97.6274 171.216 105.18C173.419 108.996 175.042 113.091 176.589 117.219C178.693 122.814 178.396 128.178 176.018 133.692Z" fill="white" fill-opacity="0.3"/>
<!-- <path d="M155.502 164.506L154.792 163.803C163.544 154.971 170.162 144.733 175.1 133.296C177.384 127.998 177.658 122.902 175.653 117.571L175.653 117.57C174.107 113.446 172.508 109.419 170.35 105.68L170.349 105.679C165.942 98.0268 162.988 89.8776 160.867 81.3532C158.338 71.1881 154.981 61.2477 150.987 51.5363L150.987 51.5354C150.206 49.6314 149.453 47.8714 148.226 46.4513C147.528 45.6444 146.964 45.3912 146.547 45.3732C146.144 45.3558 145.596 45.5473 144.896 46.2925C144.134 47.1053 143.486 48.1086 143.05 49.1388C141.044 53.8926 139.507 58.6689 139.425 63.7723C139.422 63.9528 139.42 64.1344 139.418 64.3171C139.395 66.1699 139.371 68.1272 139.048 70.0328C138.77 71.6656 138.192 72.9969 137.148 73.9537C136.106 74.9081 134.727 75.3747 133.083 75.5356L133.083 75.5356C127.528 76.0762 122.547 74.51 118.482 70.5594C116.826 68.9528 115.765 67.4105 115.501 65.642C115.238 63.8751 115.803 62.0951 116.894 60.0895L116.894 60.0891C117.255 59.426 117.666 58.7909 118.052 58.1928C118.091 58.1333 118.129 58.0742 118.167 58.0155C118.594 57.3531 118.988 56.7302 119.312 56.0857C120.021 54.6697 120.163 53.5783 119.931 52.691C119.699 51.8032 119.044 50.9255 117.752 50.0435C116.325 49.0728 114.672 48.5362 112.867 48.1367C108.496 47.1722 104.138 47.1514 99.6869 47.9239L155.502 164.506ZM155.502 164.506L154.792 163.803C149.706 168.935 144.618 174.066 139.498 179.162L139.498 179.163M155.502 164.506L139.498 179.163M139.498 179.163C134.294 184.349 127.927 187.672 120.987 190.162C118.274 191.135 115.457 191.574 112.12 191.528L112.083 191.528M139.498 179.163L112.083 191.528M112.083 191.528L112.047 191.53M112.083 191.528L112.047 191.53M112.047 191.53C107.764 191.787 104.032 190.143 100.899 186.421C99.4862 184.743 98.0551 183.095 96.6301 181.453C90.8476 174.792 85.1675 168.249 81.2498 160.331C79.9592 157.719 77.6873 156.081 75.2735 154.916L75.2728 154.916M112.047 191.53L75.2728 154.916M75.2728 154.916C69.3998 152.087 63.1154 151.595 57.0783 153.703C48.0491 156.847 38.8366 159.249 29.5354 161.525C29.2172 161.603 28.8985 161.681 28.5794 161.759C24.0238 162.869 19.3924 163.998 14.9272 165.74L14.9269 165.74M75.2728 154.916L14.9269 165.74M14.9269 165.74C11.6727 167.011 8.33201 166.878 4.97476 165.774L4.97467 165.774M14.9269 165.74L4.97467 165.774M4.97467 165.774C3.0356 165.136 1.95216 164.289 1.42872 163.296C0.905554 162.303 0.824483 160.941 1.39049 159.009L1.39119 159.006M4.97467 165.774L1.39119 159.006M1.39119 159.006C1.68328 158 2.05676 157.009 2.49825 156.059L2.49851 156.058M1.39119 159.006L2.49851 156.058M2.49851 156.058C6.32124 147.814 7.40711 139.165 6.60655 130.239C6.02732 123.723 6.57459 117.344 8.41973 111.022C10.0005 105.607 12.4415 101.321 15.8535 98.226C19.2586 95.137 23.6973 93.173 29.384 92.5069C31.4001 92.2725 33.3929 91.8926 35.3395 91.5215L35.4987 91.4911C42.6174 90.1345 48.5963 86.7994 53.0293 80.8658L53.0294 80.8657M2.49851 156.058L53.0294 80.8657M53.0294 80.8657C57.0448 75.49 61.5097 70.5402 66.5265 66.0741L66.5273 66.0734C68.4398 64.3673 70.3318 63.2296 72.319 62.722C74.2917 62.2181 76.4367 62.3148 78.9 63.2059L78.9006 63.2061C80.1307 63.6503 81.2098 63.9586 82.1555 64.0663C83.1116 64.1752 84.0016 64.0872 84.7919 63.6645C85.5828 63.2415 86.1472 62.5511 86.5822 61.6995C87.0121 60.858 87.3467 59.7983 87.6511 58.5445M53.0294 80.8657L87.6511 58.5445M87.6511 58.5445C88.4464 55.2828 89.8877 52.9268 91.8681 51.2448C93.8582 49.5544 96.4651 48.4836 99.6867 47.9239L87.6511 58.5445Z" stroke="white" stroke-opacity="0.3" stroke-width="2"/>
 --><path d="M174.408 45.7827C170.408 45.3109 166.842 43.7353 163.936 40.8671C162.818 39.7632 161.836 38.5178 160.685 37.4564C155.817 32.9418 150.123 32.8616 145.023 37.1686C141.358 40.2633 140.759 40.1925 137.575 36.2912C134.579 32.621 133.07 32.1917 128.593 33.7674C127.998 33.9749 127.446 34.3146 126.843 34.4655C124.757 34.9845 123.767 34.3052 123.918 32.1493C124.064 30.1255 124.455 28.0923 124.998 26.1346C125.743 23.4598 124.866 21.6341 122.71 20.0538C118.677 17.1054 114.44 14.8033 109.246 15.426C104.831 15.9543 101.689 10.9586 101.727 6.92047C101.76 2.59459 104.1 0.108501 108.779 0C111.926 0.179262 115.12 1.25955 117.526 4.08058C118.342 5.03822 119.03 6.10907 119.903 7.00538C122.045 9.20842 123.861 9.48203 126.696 8.10926C127.399 7.76489 128.05 7.31673 128.72 6.9016C132.466 4.57591 136.329 4.21267 140.4 6.0619C146.123 8.66592 151.741 11.4775 157.204 14.5863C160.501 16.4638 162.733 19.1103 163.275 23.0588C163.742 26.4412 165.525 29.1632 167.879 31.6304C170.37 34.2391 172.653 37.046 174.97 39.8151C175.673 40.6501 176.319 41.5841 176.743 42.5795C177.654 44.7118 176.729 46.0516 174.408 45.7827Z" fill="white" fill-opacity="0.3"/>
<path d="M123.3 19.2465L123.301 19.2473C124.469 20.1033 125.382 21.0913 125.87 22.3121C126.365 23.5475 126.379 24.904 125.961 26.4027C125.433 28.3093 125.056 30.2759 124.915 32.2209C124.847 33.2026 125.074 33.4585 125.149 33.5162C125.256 33.598 125.622 33.7387 126.6 33.4953C126.808 33.4432 127.027 33.3535 127.31 33.226C127.351 33.2075 127.395 33.1877 127.44 33.1671C127.678 33.0583 127.968 32.9264 128.262 32.8235M123.3 19.2465L116.765 4.72948C117.074 5.09224 117.361 5.46902 117.667 5.87018C117.743 5.97014 117.821 6.07163 117.9 6.17478C118.286 6.67846 118.706 7.20967 119.186 7.70244C120.334 8.88323 121.508 9.66597 122.882 9.88569C124.247 10.1041 125.63 9.73676 127.132 9.00932L127.136 9.00728C127.72 8.72118 128.287 8.36015 128.797 8.03563C128.953 7.93649 129.103 7.84076 129.247 7.75161L129.248 7.75116C132.726 5.59165 136.237 5.26912 139.986 6.97208C145.686 9.56599 151.277 12.364 156.709 15.4553C159.799 17.2148 161.793 19.6198 162.285 23.1949L162.285 23.1956C162.792 26.8672 164.726 29.7742 167.156 32.3207L167.156 32.3209C169.254 34.5184 171.202 36.857 173.174 39.2238C173.516 39.6341 173.859 40.0453 174.203 40.4567L174.205 40.4591C174.87 41.2499 175.451 42.099 175.824 42.9719L175.824 42.9722C176.222 43.9057 176.082 44.3492 175.975 44.4985C175.878 44.6344 175.529 44.9056 174.525 44.7895C170.724 44.3411 167.371 42.8526 164.638 40.1555C164.167 39.6899 163.72 39.1979 163.253 38.6823C163.19 38.613 163.127 38.5434 163.063 38.4733C162.534 37.8914 161.976 37.2862 161.365 36.7231C158.788 34.3335 155.921 33.0556 152.958 33.0046C149.997 32.9535 147.071 34.13 144.378 36.4047C143.458 37.1813 142.792 37.7054 142.252 38.025C141.72 38.3399 141.429 38.383 141.236 38.3603C141.032 38.3363 140.733 38.2158 140.237 37.7672C139.739 37.3177 139.148 36.6376 138.349 35.6589C136.846 33.8168 135.549 32.5607 133.91 32.0995C132.272 31.6383 130.509 32.0328 128.262 32.8235M123.3 19.2465C119.218 16.2624 114.714 13.7634 109.128 14.4331C107.367 14.6437 105.791 13.7719 104.602 12.2659C103.405 10.7508 102.71 8.71265 102.727 6.92982L102.727 6.9281M123.3 19.2465L102.727 6.9281M128.262 32.8235C128.263 32.8234 128.263 32.8233 128.263 32.8233L128.593 33.7674L128.261 32.8241C128.261 32.8239 128.262 32.8237 128.262 32.8235ZM102.727 6.9281C102.742 4.93917 103.284 3.52118 104.218 2.58529M102.727 6.9281L104.218 2.58529M104.218 2.58529C105.149 1.65316 106.611 1.05747 108.763 1.00072M104.218 2.58529L108.763 1.00072M108.763 1.00072C111.704 1.17586 114.592 2.18229 116.764 4.7292L108.763 1.00072Z" stroke="white" stroke-opacity="0.3" stroke-width="2"/>
<path d="M119.154 199.326C115.922 202.284 113.521 206.086 109.813 208.534C108.507 209.397 107.091 210.105 105.483 210.256C103.893 210.407 102.751 209.784 102.119 208.289C100.647 204.822 102.945 197.561 106.148 195.552C107.535 194.684 109.044 194.391 110.681 194.424C113.12 194.986 115.587 195.448 117.989 196.141C119.635 196.618 120.541 198.057 119.154 199.326Z" fill="white" fill-opacity="0.3"/>
<path d="M118.479 198.588L118.479 198.588C118.718 198.37 118.796 198.201 118.821 198.105C118.844 198.019 118.838 197.939 118.796 197.845C118.697 197.623 118.359 197.29 117.711 197.102L118.479 198.588ZM118.479 198.588C117.187 199.77 116.016 201.092 114.886 202.367C114.561 202.734 114.24 203.097 113.92 203.451C112.464 205.065 111.006 206.548 109.262 207.7L109.262 207.7M118.479 198.588L109.262 207.7M109.262 207.7C108.014 208.525 106.761 209.132 105.389 209.26L105.388 209.261M109.262 207.7L105.388 209.261M105.388 209.261C104.744 209.322 104.281 209.219 103.94 209.023C103.604 208.83 103.29 208.49 103.04 207.9L103.04 207.898M105.388 209.261L103.04 207.898M103.04 207.898C102.443 206.493 102.568 204.095 103.334 201.675M103.04 207.898L103.334 201.675M103.334 201.675C104.099 199.257 105.378 197.216 106.679 196.399M103.334 201.675L106.679 196.399M106.679 196.399C107.832 195.678 109.103 195.406 110.56 195.423C111.283 195.588 111.998 195.743 112.706 195.897C114.404 196.266 116.064 196.626 117.711 197.102L106.679 196.399Z" stroke="white" stroke-opacity="0.3" stroke-width="2"/>
</svg>
