<svg width="183" height="162" viewBox="0 0 183 162" fill="none" xmlns="http://www.w3.org/2000/svg">
<path d="M177.054 161.267C177.539 161.531 178.146 161.352 178.41 160.866L182.709 152.96C182.973 152.474 182.794 151.867 182.308 151.603C181.823 151.34 181.216 151.519 180.952 152.004L177.13 159.032L170.102 155.211C169.617 154.947 169.01 155.126 168.746 155.612C168.482 156.097 168.662 156.704 169.147 156.968L177.054 161.267ZM138.935 87.951L139.715 87.3253L138.935 87.951ZM75.0783 32.6614L75.5819 31.7974L75.0783 32.6614ZM0.367158 6.76723C-0.0604355 7.11677 -0.123708 7.74677 0.225838 8.17436L5.922 15.1424C6.27155 15.57 6.90154 15.6333 7.32914 15.2837C7.75673 14.9342 7.82 14.3042 7.47046 13.8766L2.4072 7.68278L8.60102 2.61952C9.02862 2.26997 9.09189 1.63998 8.74234 1.21239C8.3928 0.784791 7.7628 0.72152 7.33521 1.07106L0.367158 6.76723ZM0.900136 8.53645C1.54811 8.60153 2.19671 8.67092 2.8459 8.7446L3.07146 6.75736C2.41375 6.68271 1.75658 6.6124 1.09999 6.54646L0.900136 8.53645ZM6.72964 9.23566C8.01832 9.41519 9.30897 9.61144 10.6013 9.8243L10.9263 7.85089C9.61783 7.63536 8.31081 7.43662 7.0056 7.25479L6.72964 9.23566ZM14.4578 10.5079C15.7362 10.7504 17.0158 11.0091 18.2964 11.2837L18.7158 9.32815C17.4198 9.05024 16.1247 8.78847 14.8307 8.54293L14.4578 10.5079ZM22.1173 12.1498C23.3835 12.4522 24.6503 12.7701 25.9174 13.1034L26.4262 11.1692C25.1445 10.8321 23.863 10.5105 22.582 10.2045L22.1173 12.1498ZM29.695 14.1423C30.9469 14.5016 32.1988 14.8758 33.4505 15.2648L34.0441 13.3549C32.7786 12.9616 31.5127 12.5832 30.2467 12.2199L29.695 14.1423ZM37.1798 16.4679C38.415 16.881 39.6498 17.3085 40.8837 17.7502L41.5578 15.8672C40.3108 15.4208 39.0628 14.9887 37.8141 14.5711L37.1798 16.4679ZM44.5609 19.1097C45.778 19.574 46.994 20.0522 48.2087 20.544L48.9594 18.6902C47.7322 18.1933 46.5035 17.7102 45.2737 17.2411L44.5609 19.1097ZM51.8288 22.0523C53.0264 22.5653 54.2225 23.0917 55.4167 23.6313L56.2402 21.8087C55.0341 21.2637 53.8261 20.7321 52.6164 20.2139L51.8288 22.0523ZM58.9748 25.2808C60.1519 25.8404 61.327 26.4129 62.4998 26.9981L63.3928 25.2086C62.2087 24.6177 61.0222 24.0396 59.8335 23.4745L58.9748 25.2808ZM65.9925 28.7824C67.1479 29.3865 68.3008 30.0029 69.451 30.6317L70.4104 28.8769C69.2494 28.2421 68.0855 27.6198 66.9191 27.01L65.9925 28.7824ZM72.8751 32.5449C73.4424 32.8687 74.0089 33.1955 74.5747 33.5253L75.5819 31.7974C75.0109 31.4646 74.4391 31.1347 73.8666 30.8079L72.8751 32.5449ZM74.5747 33.5253C75.1276 33.8476 75.6794 34.1726 76.2301 34.5002L77.2526 32.7813C76.6969 32.4507 76.14 32.1228 75.5819 31.7974L74.5747 33.5253ZM79.5156 36.4941C80.6037 37.1677 81.6871 37.8515 82.7656 38.5454L83.8477 36.8634C82.7595 36.1633 81.6663 35.4733 80.5682 34.7936L79.5156 36.4941ZM85.9799 40.6529C87.0442 41.364 88.1034 42.0848 89.1573 42.8154L90.2967 41.1716C89.2334 40.4346 88.1648 39.7073 87.0909 38.9899L85.9799 40.6529ZM92.2978 45.032C93.3374 45.7791 94.3715 46.5355 95.4001 47.3013L96.5944 45.6971C95.5569 44.9246 94.5137 44.1615 93.465 43.4079L92.2978 45.032ZM98.4642 49.6229C99.4782 50.4046 100.486 51.1954 101.489 51.9951L102.736 50.4317C101.725 49.6251 100.708 48.8275 99.6853 48.039L98.4642 49.6229ZM104.474 54.4176C105.461 55.2327 106.443 56.0565 107.418 56.8889L108.717 55.3677C107.733 54.5282 106.743 53.6972 105.747 52.8751L104.474 54.4176ZM110.322 59.4087C111.282 60.2561 112.236 61.1118 113.183 61.9757L114.531 60.498C113.576 59.6267 112.613 58.7636 111.645 57.909L110.322 59.4087ZM116.003 64.5894C116.935 65.4679 117.86 66.3544 118.779 67.2488L120.174 65.8158C119.248 64.9139 118.314 64.0198 117.374 63.1338L116.003 64.5894ZM121.511 69.9531C122.414 70.8617 123.31 71.7779 124.199 72.7017L125.641 71.3151C124.744 70.3834 123.84 69.4594 122.93 68.5431L121.511 69.9531ZM126.842 75.4937C127.715 76.4313 128.581 77.3763 129.439 78.3285L130.925 76.9896C130.059 76.0294 129.186 75.0763 128.306 74.1307L126.842 75.4937ZM131.989 81.2053C132.831 82.1711 133.665 83.1438 134.492 84.1235L136.021 82.8339C135.187 81.8459 134.346 80.8649 133.496 79.8909L131.989 81.2053ZM136.946 87.0823C137.351 87.5787 137.754 88.0769 138.155 88.5767L139.715 87.3253C139.311 86.8212 138.904 86.3188 138.496 85.818L136.946 87.0823ZM138.155 88.5767C138.584 89.1118 139.011 89.6484 139.435 90.1865L141.006 88.9489C140.578 88.4062 140.148 87.865 139.715 87.3253L138.155 88.5767ZM141.95 93.439C142.781 94.5322 143.6 95.6311 144.408 96.7354L146.022 95.5544C145.207 94.4405 144.381 93.3321 143.543 92.2295L141.95 93.439ZM146.806 100.076C147.596 101.198 148.375 102.325 149.143 103.457L150.798 102.335C150.024 101.193 149.238 100.056 148.441 98.9238L146.806 100.076ZM151.419 106.882C152.168 108.032 152.906 109.187 153.631 110.347L155.327 109.286C154.595 108.116 153.851 106.951 153.095 105.79L151.419 106.882ZM155.78 113.852C156.486 115.029 157.18 116.211 157.862 117.396L159.596 116.399C158.908 115.203 158.207 114.011 157.494 112.823L155.78 113.852ZM159.877 120.979C160.539 122.182 161.188 123.389 161.824 124.599L163.595 123.669C162.953 122.447 162.298 121.229 161.63 120.015L159.877 120.979ZM163.701 128.255C164.316 129.483 164.917 130.714 165.506 131.948L167.311 131.088C166.717 129.842 166.11 128.599 165.489 127.36L163.701 128.255ZM167.237 135.675C167.803 136.926 168.355 138.18 168.893 139.436L170.731 138.648C170.188 137.38 169.631 136.114 169.059 134.851L167.237 135.675ZM170.472 143.23C170.987 144.502 171.487 145.777 171.973 147.054L173.842 146.344C173.351 145.054 172.846 143.766 172.327 142.48L170.472 143.23ZM173.392 150.91C173.852 152.203 174.298 153.498 174.728 154.795L176.626 154.164C176.191 152.854 175.741 151.545 175.276 150.239L173.392 150.91ZM175.979 158.706C176.181 159.361 176.379 160.017 176.572 160.672L178.49 160.105C178.294 159.443 178.095 158.78 177.891 158.118L175.979 158.706ZM177.054 161.267C177.539 161.531 178.146 161.352 178.41 160.866L182.709 152.96C182.973 152.474 182.794 151.867 182.308 151.603C181.823 151.34 181.216 151.519 180.952 152.004L177.13 159.032L170.102 155.211C169.617 154.947 169.01 155.126 168.746 155.612C168.482 156.097 168.662 156.704 169.147 156.968L177.054 161.267ZM138.935 87.951L139.715 87.3253L138.935 87.951ZM75.0783 32.6614L75.5819 31.7974L75.0783 32.6614ZM0.367158 6.76723C-0.0604355 7.11677 -0.123708 7.74677 0.225838 8.17436L5.922 15.1424C6.27155 15.57 6.90154 15.6333 7.32914 15.2837C7.75673 14.9342 7.82 14.3042 7.47046 13.8766L2.4072 7.68278L8.60102 2.61952C9.02862 2.26997 9.09189 1.63998 8.74234 1.21239C8.3928 0.784791 7.7628 0.72152 7.33521 1.07106L0.367158 6.76723ZM0.900136 8.53645C1.54811 8.60153 2.19671 8.67092 2.8459 8.7446L3.07146 6.75736C2.41375 6.68271 1.75658 6.6124 1.09999 6.54646L0.900136 8.53645ZM6.72964 9.23566C8.01832 9.41519 9.30897 9.61144 10.6013 9.8243L10.9263 7.85089C9.61783 7.63536 8.31081 7.43662 7.0056 7.25479L6.72964 9.23566ZM14.4578 10.5079C15.7362 10.7504 17.0158 11.0091 18.2964 11.2837L18.7158 9.32815C17.4198 9.05024 16.1247 8.78847 14.8307 8.54293L14.4578 10.5079ZM22.1173 12.1498C23.3835 12.4522 24.6503 12.7701 25.9174 13.1034L26.4262 11.1692C25.1445 10.8321 23.863 10.5105 22.582 10.2045L22.1173 12.1498ZM29.695 14.1423C30.9469 14.5016 32.1988 14.8758 33.4505 15.2648L34.0441 13.3549C32.7786 12.9616 31.5127 12.5832 30.2467 12.2199L29.695 14.1423ZM37.1798 16.4679C38.415 16.881 39.6498 17.3085 40.8837 17.7502L41.5578 15.8672C40.3108 15.4208 39.0628 14.9887 37.8141 14.5711L37.1798 16.4679ZM44.5609 19.1097C45.778 19.574 46.994 20.0522 48.2087 20.544L48.9594 18.6902C47.7322 18.1933 46.5035 17.7102 45.2737 17.2411L44.5609 19.1097ZM51.8288 22.0523C53.0264 22.5653 54.2225 23.0917 55.4167 23.6313L56.2402 21.8087C55.0341 21.2637 53.8261 20.7321 52.6164 20.2139L51.8288 22.0523ZM58.9748 25.2808C60.1519 25.8404 61.327 26.4129 62.4998 26.9981L63.3928 25.2086C62.2087 24.6177 61.0222 24.0396 59.8335 23.4745L58.9748 25.2808ZM65.9925 28.7824C67.1479 29.3865 68.3008 30.0029 69.451 30.6317L70.4104 28.8769C69.2494 28.2421 68.0855 27.6198 66.9191 27.01L65.9925 28.7824ZM72.8751 32.5449C73.4424 32.8687 74.0089 33.1955 74.5747 33.5253L75.5819 31.7974C75.0109 31.4646 74.4391 31.1347 73.8666 30.8079L72.8751 32.5449ZM74.5747 33.5253C75.1276 33.8476 75.6794 34.1726 76.2301 34.5002L77.2526 32.7813C76.6969 32.4507 76.14 32.1228 75.5819 31.7974L74.5747 33.5253ZM79.5156 36.4941C80.6037 37.1677 81.6871 37.8515 82.7656 38.5454L83.8477 36.8634C82.7595 36.1633 81.6663 35.4733 80.5682 34.7936L79.5156 36.4941ZM85.9799 40.6529C87.0442 41.364 88.1034 42.0848 89.1573 42.8154L90.2967 41.1716C89.2334 40.4346 88.1648 39.7073 87.0909 38.9899L85.9799 40.6529ZM92.2978 45.032C93.3374 45.7791 94.3715 46.5355 95.4001 47.3013L96.5944 45.6971C95.5569 44.9246 94.5137 44.1615 93.465 43.4079L92.2978 45.032ZM98.4642 49.6229C99.4782 50.4046 100.486 51.1954 101.489 51.9951L102.736 50.4317C101.725 49.6251 100.708 48.8275 99.6853 48.039L98.4642 49.6229ZM104.474 54.4176C105.461 55.2327 106.443 56.0565 107.418 56.8889L108.717 55.3677C107.733 54.5282 106.743 53.6972 105.747 52.8751L104.474 54.4176ZM110.322 59.4087C111.282 60.2561 112.236 61.1118 113.183 61.9757L114.531 60.498C113.576 59.6267 112.613 58.7636 111.645 57.909L110.322 59.4087ZM116.003 64.5894C116.935 65.4679 117.86 66.3544 118.779 67.2488L120.174 65.8158C119.248 64.9139 118.314 64.0198 117.374 63.1338L116.003 64.5894ZM121.511 69.9531C122.414 70.8617 123.31 71.7779 124.199 72.7017L125.641 71.3151C124.744 70.3834 123.84 69.4594 122.93 68.5431L121.511 69.9531ZM126.842 75.4937C127.715 76.4313 128.581 77.3763 129.439 78.3285L130.925 76.9896C130.059 76.0294 129.186 75.0763 128.306 74.1307L126.842 75.4937ZM131.989 81.2053C132.831 82.1711 133.665 83.1438 134.492 84.1235L136.021 82.8339C135.187 81.8459 134.346 80.8649 133.496 79.8909L131.989 81.2053ZM136.946 87.0823C137.351 87.5787 137.754 88.0769 138.155 88.5767L139.715 87.3253C139.311 86.8212 138.904 86.3188 138.496 85.818L136.946 87.0823ZM138.155 88.5767C138.584 89.1118 139.011 89.6484 139.435 90.1865L141.006 88.9489C140.578 88.4062 140.148 87.865 139.715 87.3253L138.155 88.5767ZM141.95 93.439C142.781 94.5322 143.6 95.6311 144.408 96.7354L146.022 95.5544C145.207 94.4405 144.381 93.3321 143.543 92.2295L141.95 93.439ZM146.806 100.076C147.596 101.198 148.375 102.325 149.143 103.457L150.798 102.335C150.024 101.193 149.238 100.056 148.441 98.9238L146.806 100.076ZM151.419 106.882C152.168 108.032 152.906 109.187 153.631 110.347L155.327 109.286C154.595 108.116 153.851 106.951 153.095 105.79L151.419 106.882ZM155.78 113.852C156.486 115.029 157.18 116.211 157.862 117.396L159.596 116.399C158.908 115.203 158.207 114.011 157.494 112.823L155.78 113.852ZM159.877 120.979C160.539 122.182 161.188 123.389 161.824 124.599L163.595 123.669C162.953 122.447 162.298 121.229 161.63 120.015L159.877 120.979ZM163.701 128.255C164.316 129.483 164.917 130.714 165.506 131.948L167.311 131.088C166.717 129.842 166.11 128.599 165.489 127.36L163.701 128.255ZM167.237 135.675C167.803 136.926 168.355 138.18 168.893 139.436L170.731 138.648C170.188 137.38 169.631 136.114 169.059 134.851L167.237 135.675ZM170.472 143.23C170.987 144.502 171.487 145.777 171.973 147.054L173.842 146.344C173.351 145.054 172.846 143.766 172.327 142.48L170.472 143.23ZM173.392 150.91C173.852 152.203 174.298 153.498 174.728 154.795L176.626 154.164C176.191 152.854 175.741 151.545 175.276 150.239L173.392 150.91ZM175.979 158.706C176.181 159.361 176.379 160.017 176.572 160.672L178.49 160.105C178.294 159.443 178.095 158.78 177.891 158.118L175.979 158.706Z" fill="#EDE4DB"/>
</svg>
