<svg width="22" height="23" viewBox="0 0 22 23" fill="none" xmlns="http://www.w3.org/2000/svg">
<path d="M10.6277 2.06649C12.9178 2.06649 15.1141 3.00994 16.7335 4.68929C18.3529 6.36863 19.2626 8.64632 19.2626 11.0213C19.2626 13.3962 18.3529 15.6739 16.7335 17.3533C15.1141 19.0326 12.9178 19.9761 10.6277 19.9761V2.06649ZM10.6277 0C7.80903 0 5.10584 1.16117 3.11277 3.22806C1.1197 5.29495 0 8.09825 0 11.0213C0 13.9443 1.1197 16.7476 3.11277 18.8145C5.10584 20.8814 7.80903 22.0426 10.6277 22.0426C13.4463 22.0426 16.1495 20.8814 18.1426 18.8145C20.1356 16.7476 21.2553 13.9443 21.2553 11.0213C21.2553 8.09825 20.1356 5.29495 18.1426 3.22806C16.1495 1.16117 13.4463 0 10.6277 0Z" fill="black"/>
</svg>
