<svg width="199" height="242" viewBox="0 0 199 242" fill="none" xmlns="http://www.w3.org/2000/svg">
<path d="M198.357 92.8842C196.208 98.9299 193.153 104.532 189.552 109.825C184.892 116.67 179.723 123.134 174.267 129.343C170.365 133.781 167.685 138.85 165.756 144.353C163.84 149.82 163.893 155.202 166.52 160.53C170.794 169.2 167.979 179.647 159.97 185.299C158.912 186.048 157.765 186.669 156.667 187.358C153.519 189.343 151.919 192.193 151.93 195.931C151.933 196.996 151.954 198.061 151.965 199.126C151.993 202.716 150.832 205.868 148.407 208.506C144.841 212.386 142.459 216.916 140.331 221.726C136.514 230.353 130.162 236.075 120.479 237.424C116.375 237.992 112.431 239.231 108.522 240.566C107.407 240.946 106.299 241.368 105.159 241.656C101.831 242.49 100.963 241.944 100.305 238.493C98.9982 231.627 97.5714 224.818 93.96 218.68C92.8093 216.724 92.4871 214.488 92.3703 212.198C92.0198 205.176 90.5965 198.37 87.8809 191.867C86.9249 189.573 85.8556 187.323 84.3544 185.331C82.2124 182.494 81.7026 179.378 82.3788 175.934C83.5012 170.24 85.0024 164.631 86.9249 159.181C88.5713 154.513 88.1712 150.111 86.4398 145.702C84.6943 141.257 82.2761 137.182 78.8382 133.852C76.0235 131.118 75.3933 128.136 76.7741 124.519C77.9248 121.505 78.3072 118.317 78.2647 115.107C78.2186 111.753 76.806 110.709 73.5097 111.391C72.5856 111.582 71.6792 111.852 70.7481 112.008C67.774 112.509 65.4053 111.515 63.7413 108.98C63.0332 107.894 62.4985 106.687 61.7515 105.632C60.2503 103.509 58.788 103.272 56.6354 104.72C55.6582 105.38 54.7659 106.161 53.7887 106.818C51.5511 108.316 49.0798 108.987 46.396 108.65C39.9557 107.841 33.5473 107.276 27.0185 108.015C22.2352 108.558 18.3123 106.048 15.2143 102.597C7.19843 93.6759 1.96193 83.3878 0.570485 71.3283C0.28724 68.861 0.152698 66.3796 0.00399454 64.53C-0.119925 54.1958 2.62401 45.697 10.3814 39.3531C14.0848 36.3213 16.457 32.4979 17.505 27.8225C18.5566 23.14 20.8579 19.3272 24.9367 16.6008C27.5142 14.8755 29.3234 12.3372 31.0548 9.78117C33.4376 6.27017 34.3227 5.93292 38.0438 7.58014C41.3472 9.04276 44.647 9.12086 48.0459 8.12685C52.8115 6.73168 57.3612 4.7756 61.886 2.75563C64.5768 1.55571 67.2783 0.362896 70.2701 0.0753424C77.2344 -0.595616 81.3237 3.24908 81.0582 10.2391C80.8882 14.6483 81.6459 15.6245 85.8273 15.8517C89.0528 16.0257 91.7967 17.1475 94.0273 19.4657C96.1233 21.6525 98.5946 23.1861 101.512 23.9778C104.592 24.8121 106.189 23.9104 106.21 20.694C106.253 15.0281 109.011 14.4353 113.663 15.9405C115.363 16.4908 117.034 17.1724 118.298 18.4362C122.253 22.3909 126.717 23.3672 131.872 21.1165C132.612 20.7899 133.466 20.6692 134.28 20.584C136.978 20.3142 139.159 21.1768 140.533 23.6512C140.876 24.2689 141.237 24.8831 141.524 25.5292C147.1 38.0679 154.16 49.8576 159.97 62.2793C161.882 66.3689 164.509 70.0219 167.42 73.4584C169.643 76.0783 171.658 78.8296 173.336 81.84C174.724 84.3286 176.522 86.5225 178.48 88.5851C180.534 90.7471 182.98 91.4322 185.891 90.779C188.553 90.1826 191.018 89.0289 193.595 88.1946C195.139 87.6976 196.867 86.732 198.237 88.1627C199.533 89.5188 198.902 91.3506 198.357 92.8842Z" fill="white" fill-opacity="0.3"/>
</svg>
