<svg width="160" height="213" viewBox="0 0 160 213" fill="none" xmlns="http://www.w3.org/2000/svg">
<path d="M95.325 11.6213L90.8664 10.983L74.5321 2.74858L68.1891 2.12399L67.8974 2.0046L67.8928 2L67.7863 2.19748L64.3046 4.71878L63.5268 6.88186V16.9624L64.3046 21.1233L67.7863 27.6033L68.5688 31.0569L67.49 40.2006L63.4666 53.1102L63.5268 60.2975L64.3046 61.3997L65.6288 62.2355L66.7677 63.6271L66.8881 66.3091L65.8649 67.5169L61.7859 67.5767L60.1609 68.1507L58.383 71.0716L55.4198 78.1119L53.3179 80.5781L54.8596 80.7205L55.2207 81.1659L55.1374 82.3829L53.8596 84.7894L51.5168 90.6403L49.9566 92.6151L46.373 93.8826L44.0673 93.7265L44.0303 95.0629L41.169 103.78L38.4605 104.023L37.8123 104.753L36.9002 106.103L36.0205 106.65L32.7426 106.769L28.0571 105.786L27.6358 117.97L26.6542 123.78L16.95 147.413L17.1074 150.931L12.9636 153.581L10.0838 165.618L6.25951 168.934L7.80127 170.936L2 186.652L2.00925 186.656L3.22692 187.166L10.4866 187.474L16.8157 190.744L22.8531 191.855L25.5616 191.772L26.5153 191.864L26.895 191.469L27.1635 191.037L27.5432 190.73L28.1914 190.629L30.6313 190.757L32.3861 190.358L35.2566 189.306L35.715 189.063L36.6317 188.7L37.2428 188.64L38.5762 188.714L40.2152 188.305L41.3218 188.199L41.8172 188.034L42.9978 187.216L43.3404 186.89L43.8358 186.013L44.1414 185.673L45.2248 185.379L45.6785 185.173L45.9841 184.81L46.2156 184.374L46.5212 183.993L46.9749 183.745L47.4749 183.63L48.6555 183.584L50.8686 183.147L51.4752 183.129L52.0863 183.024L52.6604 182.743L53.2669 182.206L54.0309 181.77L54.8318 181.549L55.9384 181.751L56.9292 183.198L57.6514 185.476L57.5403 191.377L57.3088 193.844L56.8134 195.63L56.7394 196.461L57.082 197.43L58.2256 198.514L58.9988 198.987L60.2488 199.414L61.1748 199.851L61.4017 200.939L61.6332 201.71L60.1701 210L62.3184 208.209L63.3462 207.12L65.1797 204.553L65.8279 203.249L66.476 201.417L69.8698 187.345L72.7033 179.813L74.3422 176.718L88.5375 155.367L90.9405 154.095L91.8942 153.356L93.1535 151.611L95.1722 149.383L95.3666 148.566L95.325 147.937L91.5146 144.079L98.265 134.297L100.094 134.288L102.89 134.6L103.613 134.586L104.339 134.494L105.099 134.2L105.747 133.746L106.284 133.153L107.886 130.522L106.816 128.35L98.6817 122.558L114.673 103.619L118.84 96.3626L119.91 93.9515L120.1 93.2718L122.845 89.9055L133.952 79.8525L136.814 78.5528L143.689 68.1599L154.708 46.1801L155.597 28.2876L156.005 26.1934L158 21.2978L155.625 20.0624L154.097 20.5492L152.495 20.4528L150.819 20.1313L142.61 16.1404L141.235 14.8591L140.777 14.6065L139.522 14.1656L138.832 14.0921L138.184 14.2299L137.615 15.1117L137.003 16.5583L136.545 17.0772L135.976 17.3987L135.286 17.5273H134.637L132.809 16.9992L131.322 16.2828L129.531 16.37L128.119 15.9108L123.225 12.8429L121.317 12.0117L118.229 9.64195L116.896 9.26078L115.053 9.12759L111.775 9.44907L108.687 10.1793L106.932 10.8728L105.826 11.0059L99.7512 10.7993L96.2047 11.5892L95.325 11.6213Z" fill="#CCCCCC" fill-opacity="0.3" stroke="white" stroke-opacity="0.3" stroke-width="2"/>
</svg>
