<svg width="195" height="145" viewBox="0 0 195 145" fill="none" xmlns="http://www.w3.org/2000/svg">
<path fill-rule="evenodd" clip-rule="evenodd" d="M2 49.5817L2.34982 49L5.38156 47.255L7.83028 45.0446L10.3956 42.9505L11.6783 42.2525L13.6606 41.7871L17.1587 41.0891L21.5897 40.0421L22.8724 39.9257L23.8053 39.3441L26.7204 39.1114L27.1868 38.7624L31.268 38.297L34.2998 38.646L36.2821 38.4134L37.4481 37.948L39.547 37.599L40.5965 37.4827L42.1123 37.0173L43.5116 36.0866L43.395 35.854L42.2289 35.2723L41.5293 33.9926L40.5965 27.7104L41.2961 27.2451L42.4622 26.0817L43.2784 25.7327V25.2673L44.9109 23.8713L45.7271 23.4059V22.7079L46.8932 22.2426L48.1758 22.7079L48.9921 23.6386L49.6917 23.1733H50.7411L50.8578 22.5916L52.0238 21.4282L51.9072 21.0792L52.6068 19.1015L54.2393 19.9158L54.5891 19.6832L55.8718 19.5668L55.9884 18.8688L56.5714 19.2178L58.3205 18.4035L58.2039 17.8218L59.37 18.0545L59.7198 17.4728L60.7692 17.5891L60.536 17.0074L61.2357 16.5421L62.7515 16.3094L67.4157 15.9604H71.4969H71.7302H73.7125L76.8608 16.0767L78.9597 16.4257L78.4933 16.5421L77.094 17.2401L76.6276 18.0545L75.928 20.1485L74.1789 21.5446L69.9811 24.802L69.6313 25.3837V27.1287L69.9811 27.4777L72.1966 28.1757L74.9951 28.4084L77.9103 28.5248L83.5073 29.1064L86.1892 29.3391L88.638 28.7574L90.5037 28.0594L92.3694 26.6634L93.5354 25.3837L94.8181 23.755L96.3339 22.2426L99.3657 18.5198L103.097 16.0767L104.38 15.3787L105.196 15.146H106.712L108.927 15.2624L110.56 15.495L112.775 16.1931L115.107 17.3564L116.157 18.2871L117.323 19.7995L118.372 22.2426L119.189 23.8713L120.355 25.849L121.637 27.0124L122.454 27.3614L123.503 27.1287L123.969 29.9208L124.669 31.2005L125.835 31.8985L127.118 31.7822L128.867 30.9678L130.383 30.8515L131.082 30.9678L132.715 31.7822L133.881 32.7129L135.863 34.5743L137.962 36.0866L140.877 37.1337L142.393 37.3663L143.443 37.948L144.609 38.1807L146.708 38.4134L148.34 39.2277L149.973 38.995L153.237 39.6931L155.803 39.8094L157.435 39.4604L158.252 39.2277L159.884 38.995L159.651 37.7153L158.485 36.6683L158.601 35.7376L158.252 34.5743L157.435 33.2946L157.552 32.9455L157.669 31.5495L158.368 30.6188L160.001 30.3861H162.916L165.131 30.9678L166.414 31.8985L168.046 32.0149L168.513 32.3639V33.4109L169.446 33.5272V35.1559L171.428 34.3416L171.661 34.1089L172.128 33.1782L171.778 32.5965V30.1535L172.244 24.104L171.195 19.9158L171.428 18.1708L170.262 14.2153L170.145 12.005L168.046 10.7252L167.813 10.3762L167.114 8.28218L166.997 7.11881L168.28 3.74505L168.046 2.69802L168.629 2.34901L169.329 2.58168L169.562 2.23267L170.728 2.58168L171.078 2.11634L173.877 2L175.159 3.97772L176.209 9.67822L177.142 11.3069L177.258 12.1213L176.209 13.8663L175.859 16.3094L175.976 17.2401L177.491 19.5668L178.191 22.2426L179.59 22.5916L183.205 20.9629H186.12L187.286 21.6609L189.735 23.8713V24.453L189.269 25.2673L188.103 26.198L187.17 28.4084H188.336L189.269 28.9901L190.551 29.1064L192.65 30.2698L193 30.7351L192.417 31.2005L191.601 32.3639L191.717 32.9455L191.368 33.8762L190.318 35.0396L189.618 36.7847L189.035 37.25L189.852 38.297L189.502 41.9035L190.085 42.8342L190.784 43.2995L190.901 47.255V47.4876L191.018 47.604L191.834 48.7673H192.3L190.668 51.0941H189.968L189.735 53.6535L188.219 58.5396L187.52 58.6559L187.753 60.2846L187.986 62.495L190.901 65.5198L190.668 67.1485L190.784 67.7302L191.484 68.1955L192.184 68.8936L192.417 69.7079L191.251 70.6386L190.201 72.849L187.403 74.5941L187.636 75.2921L187.286 77.0371L187.403 77.3861L186.587 81.3416L184.021 84.1337L183.555 87.9728L182.039 89.3688L178.658 87.6238L178.074 86.8094L177.491 85.297L175.742 84.599L173.41 86.3441L167.697 82.2723L160.467 83.4356L156.502 83.7847L150.206 77.8515L145.425 77.2698L144.142 75.7574L143.093 76.1064L142.043 77.1535L140.761 78.6658L139.828 79.4802L138.662 79.7129L137.846 79.0148V77.1535L137.263 76.8045L135.747 77.6188L134.347 78.6658L133.531 79.7129L131.665 83.3193L131.432 83.7847L131.199 85.995L130.383 86.9257L129.683 87.2748L127.817 87.0421L125.952 86.4604L125.019 86.6931L121.987 89.9505L120.705 91.9282L119.305 93.7896L118.722 94.255L116.39 95.8837L115.69 97.2797L115.807 98.9084L110.676 101.351L108.927 102.282L108.111 102.864L106.945 103.911L104.846 105.656L98.6661 109.96L96.4505 111.589L95.2845 112.171L93.1856 113.451L92.2527 114.149L90.8535 114.847L89.5708 115.196L87.9383 115.661L87.1221 116.126L84.0904 117.173L83.2741 117.406L81.525 118.453L79.8926 119.965L78.8431 120.896L78.9597 121.129L77.7936 121.943L74.0623 126.829L71.7302 130.552L69.7479 133.926L68.6984 135.554L65.5501 139.161L64.1508 141.022L62.5183 142.884L62.4017 143L61.7021 141.953L60.8858 140.79L59.7198 139.743L58.7869 138.696L57.3877 137.649L56.4548 137.299L52.6068 137.183L50.1581 136.718L48.0592 135.903L47.243 134.507L45.2607 133.228L40.3633 127.295L38.4976 126.131L26.6038 117.173L26.7204 116.243L26.254 115.428L26.3706 114.381L26.6038 112.985L27.42 111.473L27.5366 110.658L25.6709 109.728L24.5049 109.611L23.6886 109.844L22.7558 110.542L22.5226 110.193H21.5897L21.823 109.728L21.7063 108.332L21.3565 107.983L21.7063 107.517V106.587L22.5226 106.354L22.7558 105.889L22.2894 105.54L22.406 104.609L22.7558 103.562L21.9396 103.446L21.5897 102.631L21.7063 102.166L23.2222 100.886L24.3883 99.3738L23.8053 99.1411L23.3388 98.2104L22.6392 97.8614L20.8901 97.6287L20.6569 96.8144L21.0067 96.698L20.8901 96.2327L21.4731 95.0693L22.7558 94.604L22.989 94.255L22.2894 93.0916L21.7063 92.9752L22.6392 90.7649L23.1056 89.3688L23.4554 87.9728L24.0385 86.6931L22.7558 85.5297L22.6392 85.0644L23.2222 82.6213L21.7063 81.9233L21.4731 81.1089L20.5403 80.0619L20.6569 79.5965L19.7241 78.4332L18.7912 78.0842L19.7241 77.1535L20.6569 77.0371L20.5403 76.1064L20.8901 75.7574L21.4731 73.896L21.7063 73.4307L22.6392 72.6163L23.8053 72.3837L24.3883 71.802L25.6709 69.4753L24.5049 68.7772L22.989 68.5446L22.0562 67.9629L20.4237 67.4975L17.5085 67.3812H16.8089V67.9629L10.3956 65.8688L10.9786 64.9381L11.0952 64.1238L12.1447 63.0767L10.5122 59.5866L9.81258 58.5396L10.862 58.1906L10.5122 57.6089H11.2118L10.1624 55.2822L10.3956 55.0495L9.22955 52.4901L8.06349 51.7921L7.36386 51.9084L6.54762 51.5594L5.49817 51.9084L4.56532 51.4431L4.33211 50.8614L2.58303 50.1634L2 49.5817Z" fill="#CCCCCC" fill-opacity="0.3"/>
<path d="M67.4157 15.9604L62.7515 16.3094L61.2357 16.5421L60.536 17.0074L60.7692 17.5891L59.7198 17.4728L59.37 18.0545L58.2039 17.8218L58.3205 18.4035L56.5714 19.2178L55.9884 18.8688L55.8718 19.5668L54.5891 19.6832L54.2393 19.9158L52.6068 19.1015L51.9072 21.0792L52.0238 21.4282L50.8578 22.5916L50.7411 23.1733H49.6917L48.9921 23.6386L48.1758 22.7079L46.8932 22.2426L45.7271 22.7079V23.4059L44.9109 23.8713L43.2784 25.2673V25.7327L42.4621 26.0817L41.2961 27.245L40.5965 27.7104L41.5293 33.9926L42.2289 35.2723L43.395 35.854L43.5116 36.0866L42.1123 37.0173L40.5965 37.4827L39.547 37.599L37.4481 37.948L36.2821 38.4134L34.2998 38.646L31.268 38.297L27.1868 38.7624L26.7204 39.1114L23.8053 39.3441L22.8724 39.9257L21.5897 40.0421L17.1587 41.0891L13.6606 41.7871L11.6783 42.2525L10.3956 42.9505L7.83028 45.0446L5.38156 47.255L2.34982 49L2 49.5817L2.58303 50.1634L4.33211 50.8614L4.56532 51.4431L5.49817 51.9084L6.54762 51.5594L7.36386 51.9084L8.06349 51.7921L9.22955 52.4901L10.3956 55.0495L10.1624 55.2822L11.2118 57.6089H10.5122L10.862 58.1906L9.81258 58.5396L10.5122 59.5866L12.1447 63.0767L11.0952 64.1238L10.9786 64.9381L10.3956 65.8688L16.8089 67.9629V67.3812H17.5085L20.4237 67.4975L22.0562 67.9629L22.989 68.5446L24.5049 68.7772L25.6709 69.4752L24.3883 71.802L23.8053 72.3837L22.6392 72.6163L21.7063 73.4307L21.4731 73.896L20.8901 75.7574L20.5403 76.1064L20.6569 77.0371L19.7241 77.1535L18.7912 78.0842L19.7241 78.4332L20.6569 79.5965L20.5403 80.0619L21.4731 81.1089L21.7063 81.9233L23.2222 82.6213L22.6392 85.0644L22.7558 85.5297L24.0385 86.6931L23.4554 87.9728L23.1056 89.3688L22.6392 90.7649L21.7063 92.9752L22.2894 93.0916L22.989 94.255L22.7558 94.604L21.4731 95.0693L20.8901 96.2327L21.0067 96.698L20.6569 96.8144L20.8901 97.6287L22.6392 97.8614L23.3388 98.2104L23.8053 99.1411L24.3883 99.3738L23.2222 100.886L21.7063 102.166L21.5897 102.631L21.9396 103.446L22.7558 103.562L22.406 104.609L22.2894 105.54L22.7558 105.889L22.5226 106.354L21.7063 106.587V107.517L21.3565 107.983L21.7063 108.332L21.823 109.728L21.5897 110.193H22.5226L22.7558 110.542L23.6886 109.844L24.5049 109.611L25.6709 109.728L27.5366 110.658L27.42 111.473L26.6038 112.985L26.3706 114.381L26.254 115.428L26.7204 116.243L26.6038 117.173L38.4976 126.131L40.3632 127.295L45.2607 133.228L47.243 134.507L48.0592 135.903L50.1581 136.718L52.6068 137.183L56.4548 137.3L57.3877 137.649L58.7869 138.696L59.7198 139.743L60.8858 140.79L61.7021 141.953L62.4017 143L62.5183 142.884L64.1508 141.022L65.5501 139.161L68.6984 135.554L69.7479 133.926L71.7302 130.552L74.0623 126.829L77.7937 121.943L78.9597 121.129L78.8431 120.896L79.8926 119.965L81.525 118.453M67.4157 15.9604V15.9604ZM67.4157 15.9604H71.4969M71.4969 15.9604V15.9604ZM71.4969 15.9604H71.7302M71.7302 15.9604V15.9604ZM71.7302 15.9604H73.7125M73.7125 15.9604V15.9604ZM73.7125 15.9604L76.8608 16.0767L78.9597 16.4257L78.4933 16.5421M78.4933 16.5421V16.5421ZM78.4933 16.5421L77.094 17.2401L76.6276 18.0545L75.928 20.1485M75.928 20.1485V20.1485ZM75.928 20.1485L74.1789 21.5446L69.9811 24.802L69.6313 25.3837V27.1287L69.9811 27.4777L72.1966 28.1757L74.9951 28.4084L77.9103 28.5248L83.5073 29.1064L86.1893 29.3391L88.638 28.7574L90.5037 28.0594L92.3694 26.6634L93.5354 25.3837L94.8181 23.755L96.3339 22.2426L99.3657 18.5198L103.097 16.0767L104.38 15.3787L105.196 15.146H106.712L108.927 15.2624L110.56 15.495L112.775 16.1931L115.107 17.3564L116.157 18.2871L117.323 19.7995L118.372 22.2426L119.189 23.8713L120.355 25.849L121.637 27.0124L122.454 27.3614L123.503 27.1287L123.969 29.9208L124.669 31.2005L125.835 31.8985L127.118 31.7822L128.867 30.9678L130.383 30.8515L131.082 30.9678L132.715 31.7822L133.881 32.7129L135.863 34.5743L137.962 36.0866L140.877 37.1337L142.393 37.3663L143.443 37.948L144.609 38.1807L146.708 38.4134L148.34 39.2277L149.973 38.995L153.237 39.6931L155.803 39.8094L157.435 39.4604L158.252 39.2277L159.884 38.995L159.651 37.7153L158.485 36.6683L158.601 35.7376L158.252 34.5743L157.435 33.2946L157.552 32.9455L157.668 31.5495L158.368 30.6188L160.001 30.3861H162.916L165.131 30.9678L166.414 31.8985L168.046 32.0149L168.513 32.3639V33.4109L169.446 33.5272V35.1559L171.428 34.3416L171.661 34.1089L172.128 33.1782L171.778 32.5965V30.1535L172.244 24.104L171.195 19.9158L171.428 18.1708L170.262 14.2153L170.145 12.005L168.046 10.7252L167.813 10.3762M167.813 10.3762V10.3762ZM167.813 10.3762L167.114 8.28218L166.997 7.11881L168.28 3.74505L168.046 2.69802L168.629 2.34901L169.329 2.58168L169.562 2.23267L170.728 2.58168L171.078 2.11634L173.877 2L175.159 3.97772L176.209 9.67822L177.142 11.3069L177.258 12.1213L176.209 13.8663L175.859 16.3094L175.976 17.2401L177.491 19.5668L178.191 22.2426L179.59 22.5916L183.205 20.9629H186.12L187.286 21.6609L189.735 23.8713V24.453L189.269 25.2673L188.103 26.198L187.17 28.4084H188.336L189.269 28.9901L190.551 29.1064L192.65 30.2698L193 30.7351L192.417 31.2005L191.601 32.3639L191.717 32.9455L191.368 33.8762L190.318 35.0396L189.618 36.7847L189.035 37.25L189.852 38.297L189.502 41.9035L190.085 42.8342L190.784 43.2995L190.901 47.255V47.4876L191.018 47.604L191.834 48.7673H192.3L190.668 51.0941H189.968L189.735 53.6535L188.219 58.5396L187.52 58.6559L187.753 60.2847L187.986 62.495L190.901 65.5198L190.668 67.1485L190.784 67.7302L191.484 68.1955L192.184 68.8936L192.417 69.7079L191.251 70.6386L190.201 72.849L187.403 74.5941L187.636 75.2921L187.286 77.0371L187.403 77.3861L186.587 81.3416L184.021 84.1337L183.555 87.9728L182.039 89.3688L178.658 87.6238L178.074 86.8094L177.491 85.297L175.742 84.599L173.41 86.3441L167.697 82.2723L160.467 83.4356L156.502 83.7847L150.206 77.8515L145.425 77.2698L144.142 75.7574M144.142 75.7574V75.7574ZM144.142 75.7574L143.093 76.1064L142.043 77.1535M142.043 77.1535V77.1535ZM142.043 77.1535L140.761 78.6658L139.828 79.4802L138.662 79.7129L137.846 79.0148V77.1535L137.263 76.8045L135.747 77.6188L134.347 78.6658L133.531 79.7129L131.665 83.3193L131.432 83.7847L131.199 85.995L130.383 86.9257L129.683 87.2748L127.817 87.0421L125.952 86.4604L125.019 86.6931L121.987 89.9505L120.705 91.9282L119.305 93.7896L118.722 94.255L116.39 95.8837L115.69 97.2797L115.807 98.9084L110.676 101.351L108.927 102.282L108.111 102.864L106.945 103.911L104.846 105.656L98.6661 109.96L96.4505 111.589L95.2845 112.171L93.1856 113.45M93.1856 113.45V113.45ZM93.1856 113.45L92.2527 114.149L90.8535 114.847L89.5708 115.196L87.9383 115.661L87.1221 116.126L84.0904 117.173L83.2741 117.406L81.525 118.453M81.525 118.453V118.453Z" stroke="white" stroke-opacity="0.3" stroke-width="2"/>
</svg>
