<svg width="266" height="268" viewBox="0 0 266 268" fill="none" xmlns="http://www.w3.org/2000/svg">
<mask id="path-1-inside-1_2922_6830" fill="white">
<path d="M176 124.117C175.03 134.597 178.77 143.757 183.94 152.507C185 154.287 186.49 155.657 188.62 155.927C192 156.357 194.13 158.007 194.78 161.447C195.11 163.167 196.13 165.237 197.59 165.297C207.28 165.687 215.22 174.177 225.52 171.377C230.65 169.987 235.93 168.837 240.78 166.747C246.94 164.107 251.59 165.547 256.09 170.047C262.64 176.587 264.98 184.767 265.54 193.567C265.82 198.097 263.5 201.917 260.43 205.157C247.49 218.837 233.42 230.847 215.08 236.867C206.79 239.597 199.43 244.177 192.43 249.387C184.68 255.137 177.03 261.087 167.79 264.427C166.86 264.767 165.8 264.997 165.06 265.597C160.81 269.017 161.21 268.287 155.97 265.707C148.02 261.807 141.65 256.837 136.12 249.707C132.2 244.647 129.47 240.327 131.09 234.037C131.76 231.427 130.75 229.377 129 227.747C125.21 224.227 124.54 220.087 124.93 215.057C125.24 211.047 125.7 205.947 119.59 204.907C117.84 204.617 118.02 203.497 117.73 202.107C116.23 194.957 112.3 189.817 105.82 186.907C104.04 186.117 103.13 185.467 102.99 183.557C102.37 175.187 100.1 167.517 93.7896 161.457C92.2996 160.027 92.4596 157.807 92.3696 155.787C91.8696 145.127 83.3796 136.357 72.8296 136.727C68.5496 136.877 67.6596 135.537 67.0996 132.077C66.6796 129.477 65.9196 126.857 64.8596 124.457C61.3596 116.547 61.4796 108.917 66.1896 101.567C68.6896 97.6671 69.7896 93.8271 67.3196 89.4171C65.4896 86.1471 67.1696 83.0871 68.2796 79.8771C70.2696 74.1271 69.3496 72.3871 64.0396 69.6071C62.5696 68.8372 60.7696 68.4371 59.6596 67.3271C54.7596 62.4771 49.9996 63.0871 44.3496 66.3271C29.9296 74.6171 17.0496 70.6871 5.52956 59.1571C-1.82044 51.7971 -1.71044 42.9571 5.06956 34.9571C10.5296 28.4971 16.8696 23.3271 25.2696 20.9071C29.9796 19.5571 34.2696 17.3071 38.4896 14.4971C42.5496 11.7971 46.3096 17.5671 51.2196 16.9971C61.8796 15.7871 72.4196 18.0371 82.9796 19.5271C96.7496 21.4671 105.71 16.7771 111.84 5.13715C116.12 -2.31285 122.68 -0.0228517 128.44 1.93715C135.11 4.19715 141.82 5.75715 148.73 6.68715C150.31 7.75715 151.83 8.77715 153.4 9.53715C155.07 10.3471 156.79 10.8771 158.69 10.8671C160.42 10.8671 162.32 10.4271 164.45 9.35715C169.22 6.97715 173.98 10.7971 173.83 16.3971C173.66 23.5071 175.7 30.1871 176.16 37.0871"/>
</mask>
<path d="M176 124.117C175.03 134.597 178.77 143.757 183.94 152.507C185 154.287 186.49 155.657 188.62 155.927C192 156.357 194.13 158.007 194.78 161.447C195.11 163.167 196.13 165.237 197.59 165.297C207.28 165.687 215.22 174.177 225.52 171.377C230.65 169.987 235.93 168.837 240.78 166.747C246.94 164.107 251.59 165.547 256.09 170.047C262.64 176.587 264.98 184.767 265.54 193.567C265.82 198.097 263.5 201.917 260.43 205.157C247.49 218.837 233.42 230.847 215.08 236.867C206.79 239.597 199.43 244.177 192.43 249.387C184.68 255.137 177.03 261.087 167.79 264.427C166.86 264.767 165.8 264.997 165.06 265.597C160.81 269.017 161.21 268.287 155.97 265.707C148.02 261.807 141.65 256.837 136.12 249.707C132.2 244.647 129.47 240.327 131.09 234.037C131.76 231.427 130.75 229.377 129 227.747C125.21 224.227 124.54 220.087 124.93 215.057C125.24 211.047 125.7 205.947 119.59 204.907C117.84 204.617 118.02 203.497 117.73 202.107C116.23 194.957 112.3 189.817 105.82 186.907C104.04 186.117 103.13 185.467 102.99 183.557C102.37 175.187 100.1 167.517 93.7896 161.457C92.2996 160.027 92.4596 157.807 92.3696 155.787C91.8696 145.127 83.3796 136.357 72.8296 136.727C68.5496 136.877 67.6596 135.537 67.0996 132.077C66.6796 129.477 65.9196 126.857 64.8596 124.457C61.3596 116.547 61.4796 108.917 66.1896 101.567C68.6896 97.6671 69.7896 93.8271 67.3196 89.4171C65.4896 86.1471 67.1696 83.0871 68.2796 79.8771C70.2696 74.1271 69.3496 72.3871 64.0396 69.6071C62.5696 68.8372 60.7696 68.4371 59.6596 67.3271C54.7596 62.4771 49.9996 63.0871 44.3496 66.3271C29.9296 74.6171 17.0496 70.6871 5.52956 59.1571C-1.82044 51.7971 -1.71044 42.9571 5.06956 34.9571C10.5296 28.4971 16.8696 23.3271 25.2696 20.9071C29.9796 19.5571 34.2696 17.3071 38.4896 14.4971C42.5496 11.7971 46.3096 17.5671 51.2196 16.9971C61.8796 15.7871 72.4196 18.0371 82.9796 19.5271C96.7496 21.4671 105.71 16.7771 111.84 5.13715C116.12 -2.31285 122.68 -0.0228517 128.44 1.93715C135.11 4.19715 141.82 5.75715 148.73 6.68715C150.31 7.75715 151.83 8.77715 153.4 9.53715C155.07 10.3471 156.79 10.8771 158.69 10.8671C160.42 10.8671 162.32 10.4271 164.45 9.35715C169.22 6.97715 173.98 10.7971 173.83 16.3971C173.66 23.5071 175.7 30.1871 176.16 37.0871" fill="#EEEEEE" fill-opacity="0.3"/>
<path d="M183.94 152.507L182.218 153.525L182.221 153.53L183.94 152.507ZM188.62 155.927L188.872 153.943L188.871 153.943L188.62 155.927ZM194.78 161.447L192.814 161.818L192.815 161.824L194.78 161.447ZM197.59 165.297L197.507 167.295L197.509 167.296L197.59 165.297ZM225.52 171.377L224.997 169.447L224.995 169.447L225.52 171.377ZM240.78 166.747L239.992 164.909L239.988 164.91L240.78 166.747ZM256.09 170.047L254.675 171.461L254.676 171.462L256.09 170.047ZM265.54 193.567L267.536 193.444L267.536 193.44L265.54 193.567ZM260.43 205.157L258.978 203.782L258.977 203.783L260.43 205.157ZM215.08 236.867L214.456 234.967L214.454 234.967L215.08 236.867ZM192.43 249.387L193.621 250.993L193.624 250.992L192.43 249.387ZM167.79 264.427L167.11 262.546L167.103 262.549L167.79 264.427ZM165.06 265.597L166.313 267.155L166.319 267.151L165.06 265.597ZM155.97 265.707L156.853 263.913L156.85 263.912L155.97 265.707ZM136.12 249.707L134.538 250.932L134.539 250.933L136.12 249.707ZM131.09 234.037L133.026 234.536L133.027 234.534L131.09 234.037ZM129 227.747L130.363 226.284L130.361 226.282L129 227.747ZM124.93 215.057L126.924 215.212L126.924 215.211L124.93 215.057ZM119.59 204.907L119.925 202.935L119.917 202.934L119.59 204.907ZM117.73 202.107L119.687 201.699L119.687 201.697L117.73 202.107ZM105.82 186.907L106.639 185.083L106.631 185.079L105.82 186.907ZM102.99 183.557L104.984 183.411L104.984 183.409L102.99 183.557ZM93.7896 161.457L95.1749 160.015L95.1744 160.014L93.7896 161.457ZM92.3696 155.787L94.3676 155.698L94.3674 155.693L92.3696 155.787ZM72.8296 136.727L72.8996 138.726L72.8997 138.726L72.8296 136.727ZM67.0996 132.077L65.1252 132.396L65.1253 132.397L67.0996 132.077ZM64.8596 124.457L66.6891 123.649L66.6885 123.648L64.8596 124.457ZM66.1896 101.567L64.5058 100.488L64.5056 100.488L66.1896 101.567ZM67.3196 89.4171L65.5743 90.3939L65.5746 90.3945L67.3196 89.4171ZM68.2796 79.8771L66.3895 79.223L66.3894 79.2235L68.2796 79.8771ZM64.0396 69.6071L63.1116 71.3788L63.1119 71.379L64.0396 69.6071ZM59.6596 67.3271L61.0738 65.9129L61.0665 65.9057L59.6596 67.3271ZM44.3496 66.3271L43.3546 64.5922L43.3528 64.5933L44.3496 66.3271ZM5.52956 59.1571L4.11439 60.5704L4.11474 60.5707L5.52956 59.1571ZM5.06956 34.9571L6.59532 36.2502L6.59705 36.2482L5.06956 34.9571ZM25.2696 20.9071L24.7185 18.9846L24.7159 18.9853L25.2696 20.9071ZM38.4896 14.4971L37.3821 12.8318L37.3811 12.8324L38.4896 14.4971ZM51.2196 16.9971L50.994 15.0099L50.9889 15.0105L51.2196 16.9971ZM82.9796 19.5271L82.7001 21.5075L82.7006 21.5076L82.9796 19.5271ZM111.84 5.13715L110.105 4.14086L110.087 4.17271L110.07 4.20522L111.84 5.13715ZM128.44 1.93715L127.795 3.83054L127.798 3.83137L128.44 1.93715ZM148.73 6.68715L149.851 5.03115L149.462 4.76769L148.996 4.70502L148.73 6.68715ZM153.4 9.53715L154.272 7.73765L154.271 7.73698L153.4 9.53715ZM158.69 10.8671V8.86712L158.679 8.86718L158.69 10.8671ZM164.45 9.35715L163.557 7.56754L163.552 7.56997L164.45 9.35715ZM173.83 16.3971L171.83 16.3436L171.83 16.3493L173.83 16.3971ZM174.008 123.933C172.981 135.029 176.963 144.632 182.218 153.525L185.661 151.49C180.576 142.883 177.078 134.165 177.991 124.301L174.008 123.933ZM182.221 153.53C183.464 155.618 185.411 157.536 188.368 157.911L188.871 153.943C187.568 153.778 186.535 152.956 185.658 151.484L182.221 153.53ZM188.367 157.911C189.803 158.094 190.766 158.51 191.415 159.071C192.044 159.615 192.555 160.448 192.814 161.818L196.745 161.076C196.354 159.006 195.476 157.295 194.032 156.046C192.608 154.815 190.817 154.191 188.872 153.943L188.367 157.911ZM192.815 161.824C193.017 162.877 193.434 164.08 194.082 165.081C194.687 166.016 195.801 167.225 197.507 167.295L197.672 163.299C197.918 163.309 197.793 163.453 197.44 162.908C197.13 162.43 196.872 161.737 196.744 161.07L192.815 161.824ZM197.509 167.296C201.904 167.472 205.862 169.473 210.573 171.386C215.122 173.234 220.218 174.891 226.044 173.307L224.995 169.447C220.521 170.663 216.497 169.475 212.078 167.68C207.822 165.952 202.965 163.512 197.67 163.299L197.509 167.296ZM226.043 173.308C231.037 171.954 236.548 170.748 241.571 168.584L239.988 164.91C235.311 166.926 230.262 168.02 224.997 169.447L226.043 173.308ZM241.567 168.585C244.347 167.394 246.607 167.193 248.595 167.666C250.61 168.144 252.585 169.371 254.675 171.461L257.504 168.633C255.095 166.224 252.494 164.48 249.519 163.774C246.518 163.061 243.372 163.46 239.992 164.909L241.567 168.585ZM254.676 171.462C260.756 177.532 263.001 185.167 263.544 193.694L267.536 193.44C266.958 184.367 264.523 175.642 257.503 168.632L254.676 171.462ZM263.543 193.691C263.773 197.409 261.891 200.707 258.978 203.782L261.881 206.533C265.108 203.128 267.866 198.786 267.536 193.444L263.543 193.691ZM258.977 203.783C246.117 217.378 232.324 229.102 214.456 234.967L215.703 238.767C234.515 232.593 248.863 220.296 261.883 206.532L258.977 203.783ZM214.454 234.967C205.872 237.794 198.313 242.515 191.235 247.783L193.624 250.992C200.546 245.84 207.707 241.401 215.705 238.767L214.454 234.967ZM191.238 247.781C183.411 253.588 176.015 259.327 167.11 262.546L168.469 266.308C178.044 262.847 185.948 256.686 193.621 250.993L191.238 247.781ZM167.103 262.549C166.91 262.619 166.705 262.686 166.455 262.767C166.218 262.845 165.939 262.936 165.66 263.039C165.113 263.241 164.422 263.539 163.8 264.044L166.319 267.151C166.437 267.055 166.646 266.939 167.046 266.791C167.241 266.719 167.448 266.651 167.694 266.571C167.928 266.495 168.204 266.405 168.476 266.306L167.103 262.549ZM163.806 264.039C162.722 264.911 162.068 265.407 161.58 265.69C161.151 265.938 161.041 265.908 161.028 265.907C160.908 265.899 160.64 265.837 159.888 265.466C159.531 265.29 159.127 265.077 158.615 264.81C158.112 264.548 157.529 264.246 156.853 263.913L155.086 267.501C155.72 267.814 156.27 268.099 156.765 268.357C157.251 268.61 157.709 268.851 158.118 269.053C158.898 269.438 159.778 269.828 160.743 269.897C161.817 269.974 162.731 269.646 163.586 269.15C164.383 268.689 165.272 267.993 166.313 267.155L163.806 264.039ZM156.85 263.912C149.151 260.135 143.028 255.352 137.7 248.481L134.539 250.933C140.271 258.323 146.888 263.48 155.089 267.503L156.85 263.912ZM137.701 248.482C133.806 243.455 131.663 239.831 133.026 234.536L129.153 233.538C127.277 240.823 130.593 245.839 134.538 250.932L137.701 248.482ZM133.027 234.534C133.93 231.014 132.478 228.254 130.363 226.284L127.636 229.211C129.021 230.501 129.589 231.84 129.152 233.54L133.027 234.534ZM130.361 226.282C127.208 223.354 126.556 219.951 126.924 215.212L122.936 214.903C122.523 220.223 123.211 225.1 127.639 229.213L130.361 226.282ZM126.924 215.211C127.07 213.321 127.325 210.613 126.572 208.259C126.174 207.016 125.485 205.813 124.338 204.842C123.197 203.876 121.726 203.242 119.925 202.936L119.254 206.879C120.509 207.092 121.271 207.486 121.753 207.894C122.228 208.297 122.55 208.814 122.762 209.478C123.229 210.936 123.099 212.783 122.936 214.903L126.924 215.211ZM119.917 202.934C119.681 202.895 119.68 202.855 119.766 202.917C119.877 202.997 119.937 203.1 119.95 203.132C119.952 203.135 119.942 203.112 119.925 203.046C119.909 202.979 119.891 202.889 119.869 202.759C119.834 202.552 119.77 202.093 119.687 201.699L115.772 202.516C115.834 202.816 115.856 203.019 115.924 203.422C115.979 203.751 116.069 204.23 116.274 204.707C116.497 205.229 116.858 205.754 117.436 206.168C117.991 206.566 118.623 206.774 119.263 206.88L119.917 202.934ZM119.687 201.697C118.066 193.968 113.746 188.274 106.639 185.083L105 188.732C110.853 191.36 114.394 195.946 115.772 202.518L119.687 201.697ZM106.631 185.079C105.749 184.688 105.416 184.463 105.25 184.286C105.171 184.201 105.03 184.036 104.984 183.411L100.995 183.703C101.089 184.989 101.473 186.103 102.329 187.018C103.098 187.841 104.11 188.336 105.008 188.735L106.631 185.079ZM104.984 183.409C104.344 174.772 101.975 166.545 95.1749 160.015L92.4042 162.9C98.2242 168.489 100.395 175.603 100.995 183.705L104.984 183.409ZM95.1744 160.014C94.8608 159.713 94.6494 159.278 94.5295 158.528C94.396 157.691 94.4203 156.881 94.3676 155.698L90.3716 155.876C90.4089 156.713 90.3982 158.023 90.5796 159.159C90.7748 160.381 91.2283 161.771 92.4047 162.9L95.1744 160.014ZM94.3674 155.693C93.8227 144.082 84.5415 134.315 72.7595 134.728L72.8997 138.726C82.2176 138.399 89.9164 146.172 90.3718 155.881L94.3674 155.693ZM72.7595 134.728C70.7233 134.8 70.1275 134.468 69.9114 134.273C69.653 134.039 69.356 133.501 69.0739 131.758L65.1253 132.397C65.4031 134.113 65.8312 135.975 67.2277 137.239C68.6667 138.541 70.6559 138.805 72.8996 138.726L72.7595 134.728ZM69.074 131.758C68.6281 128.998 67.8213 126.213 66.6891 123.649L63.0301 125.265C64.0178 127.502 64.7311 129.956 65.1252 132.396L69.074 131.758ZM66.6885 123.648C63.4234 116.269 63.5721 109.359 67.8735 102.646L64.5056 100.488C59.3871 108.476 59.2957 116.825 63.0306 125.266L66.6885 123.648ZM67.8733 102.646C69.2004 100.576 70.2643 98.3603 70.5991 95.9596C70.9415 93.5049 70.5009 91.0044 69.0645 88.4398L65.5746 90.3945C66.6082 92.2399 66.8526 93.8644 66.6375 95.4071C66.4148 97.004 65.6787 98.658 64.5058 100.488L67.8733 102.646ZM69.0648 88.4404C68.449 87.34 68.3933 86.2815 68.6546 85.0348C68.9508 83.6211 69.5347 82.3672 70.1697 80.5308L66.3894 79.2235C65.9144 80.5971 65.1034 82.4782 64.7396 84.2145C64.3408 86.1178 64.3601 88.2243 65.5743 90.3939L69.0648 88.4404ZM70.1696 80.5312C71.1673 77.6485 71.7088 75.1062 70.7346 72.8389C69.7785 70.6133 67.5858 69.2062 64.9672 67.8353L63.1119 71.379C65.8034 72.7881 66.7257 73.641 67.0595 74.4179C67.3754 75.1531 67.3819 76.3558 66.3895 79.223L70.1696 80.5312ZM64.9676 67.8355C64.1537 67.4092 63.1087 67.0193 62.5103 66.7598C61.7846 66.4451 61.3496 66.1887 61.0738 65.9129L58.2453 68.7414C59.0795 69.5756 60.0995 70.0742 60.9188 70.4295C61.8654 70.84 62.4554 71.0351 63.1116 71.3788L64.9676 67.8355ZM61.0665 65.9057C58.3349 63.202 55.4531 61.8546 52.3247 61.7938C49.2853 61.7347 46.3057 62.8999 43.3546 64.5922L45.3445 68.0621C48.0435 66.5144 50.2688 65.7546 52.247 65.793C54.1361 65.8297 56.0842 66.6023 58.2526 68.7486L61.0665 65.9057ZM43.3528 64.5933C36.511 68.5266 30.187 69.4892 24.2719 68.2192C18.3076 66.9387 12.5353 63.3393 6.94439 57.7435L4.11474 60.5707C10.0439 66.505 16.4715 70.6356 23.4322 72.1301C30.4421 73.6351 37.7681 72.4177 45.3464 68.061L43.3528 64.5933ZM6.94474 57.7439C3.56582 54.3604 2.03791 50.7882 2.0007 47.276C1.96327 43.7425 3.43221 39.9825 6.59532 36.2502L3.5438 33.6641C-0.0730893 37.9318 -2.04914 42.5918 -1.99907 47.3183C-1.94878 52.0661 0.143309 56.5939 4.11439 60.5704L6.94474 57.7439ZM6.59705 36.2482C11.9034 29.97 17.9302 25.1029 25.8232 22.829L24.7159 18.9853C15.8089 21.5514 9.15575 27.0243 3.54207 33.6661L6.59705 36.2482ZM25.8206 22.8297C30.7904 21.4053 35.2699 19.0439 39.5981 16.1619L37.3811 12.8324C33.2692 15.5704 29.1687 17.709 24.7185 18.9846L25.8206 22.8297ZM39.5971 16.1625C40.588 15.5035 41.5327 15.6797 43.6392 16.7362C44.5728 17.2044 45.7879 17.8709 47.0223 18.3379C48.3044 18.823 49.7959 19.1758 51.4502 18.9838L50.9889 15.0105C50.1882 15.1034 49.3684 14.9488 48.4377 14.5967C47.4593 14.2265 46.56 13.7262 45.4324 13.1606C43.4164 12.1496 40.4512 10.7908 37.3821 12.8318L39.5971 16.1625ZM51.4451 18.9844C61.776 17.8118 71.9422 19.9896 82.7001 21.5075L83.259 17.5468C72.8969 16.0847 61.9832 13.7625 50.994 15.0099L51.4451 18.9844ZM82.7006 21.5076C89.863 22.5167 95.9842 21.8292 101.175 19.2103C106.371 16.5893 110.408 12.1482 113.609 6.06908L110.07 4.20522C107.141 9.76612 103.633 13.49 99.3737 15.639C95.1099 17.7901 89.8661 18.4776 83.2586 17.5467L82.7006 21.5076ZM113.574 6.13343C114.51 4.50455 115.504 3.51942 116.475 2.92297C117.443 2.32911 118.498 2.05265 119.663 2.00686C122.114 1.91057 124.818 2.81727 127.795 3.83053L129.084 0.0437632C126.302 -0.902975 122.846 -2.12127 119.506 -1.99006C117.776 -1.9221 116.029 -1.49669 114.383 -0.485859C112.74 0.522377 111.31 2.04474 110.105 4.14086L113.574 6.13343ZM127.798 3.83137C134.591 6.13323 141.427 7.72234 148.463 8.66928L148.996 4.70502C142.212 3.79195 135.628 2.26107 129.081 0.0429288L127.798 3.83137ZM147.608 8.34314C149.169 9.40046 150.807 10.504 152.528 11.3373L154.271 7.73698C152.852 7.05027 151.45 6.11384 149.851 5.03115L147.608 8.34314ZM152.527 11.3366C154.376 12.2336 156.403 12.8792 158.7 12.8671L158.679 8.86718C157.176 8.87508 155.763 8.46074 154.272 7.73765L152.527 11.3366ZM158.69 12.8671C160.775 12.8671 162.981 12.3332 165.347 11.1443L163.552 7.56997C161.659 8.52105 160.064 8.86715 158.69 8.86715V12.8671ZM165.342 11.1468C167.034 10.3028 168.598 10.5734 169.766 11.4708C170.977 12.4008 171.89 14.1195 171.83 16.3436L175.829 16.4507C175.919 13.0748 174.527 10.0835 172.203 8.29848C169.836 6.48091 166.635 6.03153 163.557 7.56754L165.342 11.1468ZM171.83 16.3493C171.74 20.0984 172.234 23.6983 172.783 27.1362C173.34 30.6235 173.942 33.8888 174.164 37.2202L178.155 36.9541C177.917 33.3855 177.269 29.8608 176.733 26.5056C176.19 23.101 175.749 19.8059 175.829 16.445L171.83 16.3493Z" fill="white" fill-opacity="0.3" mask="url(#path-1-inside-1_2922_6830)"/>
</svg>
