<svg width="97" height="207" viewBox="0 0 97 207" fill="none" xmlns="http://www.w3.org/2000/svg">
<path d="M60.2715 17.3131L57.5589 17.1975L56.2155 16.7031L54.5298 15.8749L53.0765 13.9808L51.6556 11.5217L50.112 10.122L48.2777 9.16537L40.1656 3.36116L38.383 2L38.3765 2.02567L31.4205 16.1317L26.2858 32.928L25.7239 36.1961L23.6571 41.7692V45.0629L24.2449 46.4691L25.9564 49.2427L26.2858 51.1882L26.0275 53.0951L25.3752 54.5654L24.5807 55.9715L23.8638 57.6858L22.7465 64.8127L21.9004 67.1626L21.8487 71.0728L24.2836 79.4324V83.7406L22.3525 88.3377L17.2695 95.9398L15.8938 101.32L15.8227 102.964L15.3771 104.171L14.7893 105.224L14.3243 106.405L13.4524 111.035L13.3426 119.311L12.8388 122.078L7.32307 136.948L6.43823 140.338L5.81174 147.985L4.68146 151.375L3.09262 153.943L2.24653 156.923L1.73629 160.621L2.29174 160.544L2.45321 160.743V161.102L2.55009 161.545H4.17768L6.64491 164.03L6.76117 166.187L4.17768 171.748L3.33159 175.298L2.55009 187.652L1 188.743V188.749L14.1887 191.048L28.3009 193.494L46.7858 196.679L63.3071 199.536L80.9459 202.567L95 205L94.9871 204.961L94.7158 203.799L88.8319 160.865L81.1267 129.564L74.8747 115.465L73.105 112.723L70.9672 110.437L68.6679 108.428L66.3363 107.137L64.1274 106.315L60.5816 105.622L57.5266 105.712L55.9959 106.02L54.4587 106.579L52.689 106.803L50.7902 106.72L48.8396 106.078L47.212 105.121L45.7588 103.779L44.6673 102.36L43.7502 100.787L43.1237 99.4518L42.5682 96.89L42.846 93.3009L44.2087 86.5143L51.1583 72.8256L52.1207 68.8448L51.8817 53.4418L57.152 36.7483L59.5869 25.8846L60.2715 17.3131Z" fill="#CCCCCC" fill-opacity="0.3" stroke="white" stroke-opacity="0.3" stroke-width="2"/>
</svg>
