<?xml version="1.0" encoding="UTF-8"?>
<svg id="_Слой_2" data-name="Слой 2" xmlns="http://www.w3.org/2000/svg" viewBox="0 0 542.2 542.23">
  <g id="_Слой_1-2" data-name="Слой 1">
    <path d="M514.81,542.23c.11-.93-.65-.8-1.14-.87-1.62-.24-2.91-1.15-4.34-1.84-3.95-1.91-6.82-5.08-9.87-8.04-3.94-3.82-7.81-7.71-11.68-11.59-4.69-4.7-9.33-9.45-14.02-14.14-5.21-5.2-10.47-10.36-15.68-15.56-4.31-4.3-8.56-8.66-12.86-12.97-3.78-3.79-7.63-7.51-11.41-11.31-3.38-3.4-6.64-6.92-10.04-10.3-4.78-4.76-9.68-9.41-14.46-14.18-4.72-4.72-9.32-9.56-14.04-14.28-5.15-5.15-10.43-10.18-15.58-15.33-4.76-4.76-9.38-9.64-14.13-14.4-4.84-4.85-9.76-9.62-14.64-14.43-.99-.98-2.15-1.14-3.12-.27-2.92,2.62-6.2,4.75-9.34,7.08-2.34,1.74-4.68,3.51-7.16,5.04-2.8,1.72-5.63,3.39-8.38,5.21-2.09,1.39-4.44,2.38-6.66,3.56-1.74,.93-3.44,1.92-5.19,2.83-1.57,.82-3.18,1.57-4.78,2.34-1.33,.64-2.66,1.3-4.02,1.87-1.29,.54-2.63,.95-3.93,1.47-1.21,.48-2.38,1.05-3.58,1.55-1.25,.52-2.51,1.01-3.76,1.53-1.36,.56-2.72,1.14-4.08,1.71-.17,.07-.33,.19-.51,.24-1.56,.44-3.12,.83-4.67,1.31-1.72,.53-3.41,1.15-5.12,1.71-.41,.14-.85,.19-1.26,.32-.69,.23-1.38,.5-2.06,.76-.12,.04-.22,.18-.33,.17-1.63-.06-2.98,.91-4.51,1.17-1.3,.22-2.56,.4-3.85,.82-2.13,.69-4.41,.86-6.61,1.35-2.32,.52-4.66,.95-6.99,1.43-1.55,.32-3.06,.68-4.65,.71-1.57,.03-3.16-.04-4.63,.72-.27,.14-.62,.14-.93,.16-4.92,.19-9.75,1.29-14.71,1.2-8.05-.15-16.1,.11-24.15-.07-4.73-.11-9.49-.45-14.14-1.23-2.37-.4-4.8-.35-7.08-.93-2.28-.58-4.61-.68-6.84-1.22-1.53-.37-3.08-.61-4.61-.94-2.06-.45-4.08-1.15-6.12-1.7-.48-.13-1.01-.11-1.5-.19-.62-.11-1.23-.24-1.84-.4-.84-.22-1.67-.46-2.5-.71-.53-.16-1.06-.33-1.58-.52-.29-.11-.54-.34-.84-.42-1.63-.43-3.3-.75-4.9-1.25-1.35-.42-2.64-1.05-3.96-1.58-.34-.14-.69-.28-1.04-.39-1.47-.46-3-.77-4.38-1.41-.79-.37-1.56-.67-2.4-.93-1.35-.41-2.6-1.12-3.91-1.65-1.2-.48-2.45-.86-3.65-1.33-1.12-.44-2.24-.9-3.33-1.42-1.98-.93-3.95-1.89-5.9-2.87-.87-.44-1.7-.92-2.63-1.29-1.94-.78-3.77-1.87-5.61-2.89-2.12-1.17-4.21-2.39-6.3-3.61-2.22-1.3-4.43-2.62-6.64-3.96-1.1-.66-2.14-1.42-3.25-2.05-2.7-1.53-5.07-3.53-7.57-5.33-3.15-2.27-5.99-4.99-9.23-7.11-3.46-2.27-6.08-5.41-9.2-8.01-1.72-1.43-3.42-2.88-5.06-4.4-2.9-2.68-5.59-5.55-8.14-8.56-2.66-3.13-5.61-6.01-8.32-9.09-1.39-1.59-2.54-3.39-3.82-5.08-.7-.92-1.46-1.8-2.15-2.72-1.79-2.4-3.53-4.84-5.33-7.24-2.05-2.73-3.74-5.68-5.43-8.64-.81-1.42-2.1-2.6-2.72-4.08-.95-2.29-2.57-4.15-3.64-6.36-1.05-2.17-2.06-4.38-3.23-6.49-.97-1.75-1.73-3.6-2.73-5.34-1.43-2.48-2.33-5.26-3.5-7.9-.86-1.93-1.6-3.87-2.2-5.91-.69-2.35-1.88-4.54-2.76-6.84-.53-1.38-.87-2.84-1.34-4.25-.53-1.56-1.11-3.11-1.66-4.66-.11-.3-.24-.59-.31-.89-.41-1.76-.49-3.69-1.3-5.24-1.06-2.02-.43-4.41-1.78-6.3-.29-.4-.15-1.11-.2-1.68-.08-.93,0-1.89-.74-2.67-.23-.24-.25-.71-.29-1.09-.17-1.62,0-3.3-.87-4.79,0-3.42-1.52-6.64-1.35-10.1,.05-.97-.36-1.97-.55-2.96-.12-.62-.29-1.24-.32-1.86-.08-1.65-.1-3.29-.14-4.94-.04-1.65-.13-3.26-.67-4.86-.36-1.06-.41-2.25-.42-3.38-.04-7.04-.06-14.07,.01-21.11,.01-1.44,.42-2.87,.65-4.3,.12-.75,.32-1.49,.35-2.24,.09-1.77,.03-3.55,.16-5.32,.09-1.25,.38-2.48,.6-3.72,.05-.31,.21-.62,.2-.92-.07-3.43,.85-6.73,1.32-10.08,.14-.98,.49-1.93,.68-2.91,.13-.68,.19-1.38,.24-2.07,.09-1.13-.01-2.3,.85-3.23,.08-.08,.13-.23,.13-.34,.09-1.77,.77-3.44,1.01-5.12,.3-2.14,1.26-4.05,1.5-6.2,.19-1.68,1.39-3.24,1.56-4.91,.18-1.75,1.11-3.17,1.47-4.82,.31-1.42,1.07-2.74,1.61-4.11,.38-.98,.74-1.97,1.09-2.96,.49-1.4,.93-2.82,1.44-4.21,.25-.69,.78-1.3,.9-2,.53-3.11,2.36-5.68,3.49-8.53,1.2-3.04,2.84-5.9,4.27-8.85,.72-1.48,1.54-2.9,2.14-4.46,.54-1.4,1.64-2.58,2.43-3.89,1.3-2.14,2.53-4.32,3.84-6.45,.85-1.39,1.79-2.72,2.67-4.09,.75-1.17,1.44-2.39,2.2-3.55,.79-1.22,1.61-2.43,2.46-3.61,1.46-2.03,2.92-4.05,4.45-6.03,2.08-2.7,4.18-5.39,6.36-8.01,2.81-3.36,5.77-6.59,8.92-9.65,1.19-1.15,2.05-2.64,3.22-3.81,1.88-1.89,3.9-3.64,5.86-5.45,2.07-1.91,4.13-3.85,6.23-5.73,2.19-1.95,4.26-4.09,6.69-5.69,2.2-1.45,4.17-3.17,6.36-4.63,2.16-1.44,4.05-3.26,6.14-4.8,1.28-.94,2.73-1.66,4.09-2.51,1.49-.93,2.95-1.92,4.46-2.84,1.41-.86,2.87-1.63,4.29-2.48,2.08-1.26,4.12-2.58,6.21-3.83,.84-.5,1.75-.88,2.64-1.31,3.61-1.74,7.19-3.53,10.83-5.2,1.56-.72,3.14-1.38,4.63-2.26,1.09-.64,2.44-.81,3.65-1.25,1.4-.51,2.76-1.11,4.16-1.61,1.51-.54,3.04-1,4.55-1.54,1.38-.49,2.74-1.06,4.11-1.57,1.45-.53,2.9-1.04,4.36-1.54,.59-.2,1.2-.35,1.8-.53,.59-.18,1.18-.35,1.77-.54,.7-.22,1.4-.45,2.09-.69,.3-.1,.58-.31,.88-.32,1.27-.06,2.41-.45,3.61-.89,1.8-.66,3.77-.83,5.66-1.26,.91-.2,1.79-.5,2.68-.76,.12-.03,.24-.1,.36-.12,2.6-.43,5.2-.89,7.81-1.25,1.18-.16,2.36-.06,3.47-.74,.54-.33,1.34-.29,2.04-.34,2.07-.15,4.14-.02,6.18-.73,1.16-.4,2.51-.24,3.77-.33,2.51-.18,5.05,.05,7.52-.76,.93-.31,2.01-.21,3.02-.21,7.04-.02,14.08-.05,21.11,.02,1.49,.01,2.98,.46,4.48,.61,1.57,.16,3.16,.2,4.74,.3,2.26,.15,4.51,.05,6.74,.81,1.33,.45,2.9,.13,4.34,.3,1.11,.13,2.19,.5,3.29,.72,.74,.15,1.49,.26,2.24,.32,1.32,.1,2.68-.02,3.86,.77,.1,.07,.24,.12,.36,.12,2.44-.11,4.7,.77,6.99,1.35,2.29,.57,4.73,.59,6.86,1.77,.36,.2,.86,.17,1.3,.21,.82,.06,1.65,.02,2.27,.73,.11,.13,.33,.19,.51,.23,1.75,.43,3.52,.8,5.26,1.28,1.25,.35,2.47,.8,3.68,1.27,1.78,.7,3.49,1.52,5.38,1.97,1.4,.34,2.67,1.19,4.03,1.73,1.15,.46,2.34,.83,3.52,1.22,1.64,.53,3.22,1.14,4.75,1.97,1.77,.97,3.71,1.63,5.54,2.49,1.04,.49,2,1.15,3.04,1.66,1.08,.53,2.21,.96,3.32,1.44,.89,.39,1.83,.71,2.67,1.2,2.67,1.58,5.48,2.91,8,4.74,1.38,1,3.07,1.58,4.5,2.51,1.88,1.23,3.84,2.34,5.71,3.57,2.77,1.82,5.39,3.88,8.08,5.83,2.51,1.82,5.07,3.56,7.52,5.45,1.96,1.52,3.8,3.2,5.66,4.86,1.85,1.64,3.64,3.34,5.47,5.01,1.69,1.53,3.36,3.1,5.11,4.56,2.62,2.19,4.77,4.83,7.06,7.34,2.46,2.68,5.02,5.28,7.45,7.99,1.26,1.4,2.3,2.99,3.47,4.48,2.44,3.12,4.79,6.31,7.15,9.48,2.1,2.82,4.25,5.65,5.83,8.87,1.03,2.11,2.76,3.86,3.85,5.95,1.25,2.39,2.81,4.59,4.09,6.95,.94,1.73,1.66,3.58,2.53,5.35,.9,1.82,1.89,3.59,2.78,5.42,.55,1.13,.98,2.33,1.49,3.48,.37,.84,.7,1.7,1.16,2.48,.88,1.49,1.6,3,2.02,4.71,.36,1.46,1.21,2.8,1.79,4.21,.44,1.09,.82,2.21,1.19,3.33,.44,1.35,.77,2.74,1.28,4.07,.52,1.38,1.26,2.67,1.77,4.06,.4,1.1,.58,2.26,1.03,3.38,.67,1.65,.89,3.49,1.36,5.23,.55,2.05,1.17,4.08,1.76,6.11,.07,.24,.2,.47,.22,.72,.09,1.51,.52,2.92,.95,4.38,.73,2.44,.9,5.05,1.34,7.59,.15,.86,.45,1.68,.61,2.54,.17,.93,.21,1.88,.36,2.82,.25,1.55,.56,3.09,.79,4.64,.13,.87,.19,1.76,.23,2.65,.1,2.47,.08,4.94,.84,7.34,.2,.65,.19,1.38,.19,2.07,0,11.03-.01,22.06-.04,33.09,0,.57,.02,1.19-.19,1.69-.78,1.87-.68,3.84-.82,5.8-.08,1.12-.38,2.22-.59,3.33-.08,.44-.28,.87-.26,1.3,.16,3.32-.94,6.48-1.21,9.75-.05,.67-.36,1.32-.54,1.98-.15,.54-.35,1.08-.4,1.63-.13,1.31-.06,2.65-.93,3.81-.2,.27-.16,.73-.19,1.11-.09,1.26-.01,2.54-.84,3.63-.14,.18-.21,.49-.19,.72,.21,2.15-.93,4.02-1.33,6.04-.31,1.55-1.1,2.99-1.65,4.49-.13,.35-.12,.75-.23,1.11-.21,.7-.44,1.4-.68,2.09-.06,.18-.22,.32-.27,.5-.44,1.68-.84,3.38-1.32,5.05-.27,.95-.63,1.88-1.02,2.78-.56,1.29-1.25,2.53-1.78,3.83-.39,.96-.64,1.95-1.12,2.91-.99,1.97-1.48,4.18-2.41,6.18-.9,1.93-1.57,3.96-2.78,5.77-.99,1.47-1.59,3.19-2.41,4.77-1.25,2.42-2.5,4.83-3.81,7.22-1.2,2.19-2.44,4.37-3.75,6.5-.82,1.35-1.95,2.52-2.66,3.92-.6,1.2-1.32,2.31-2.07,3.4-1.74,2.5-3.46,5.01-5.26,7.47-1.79,2.44-3.45,4.99-5.5,7.24-.88,.96-.71,2.02,.24,2.97,5.35,5.33,10.72,10.65,16.06,16,4.31,4.32,8.58,8.67,12.88,13,4.98,5.02,9.94,10.05,14.93,15.06,4.95,4.97,9.91,9.93,14.88,14.88,4.89,4.87,9.8,9.71,14.7,14.56,5.23,5.19,10.48,10.35,15.69,15.57,4.7,4.71,9.32,9.48,14.02,14.19,3.75,3.76,7.58,7.43,11.33,11.18,3.36,3.36,6.63,6.8,9.98,10.18,3.26,3.29,6.56,6.55,9.84,9.82,4.07,4.05,8.13,8.09,12.2,12.13,1.99,1.98,4.15,3.81,5.94,5.96,1.43,1.72,3.11,3.31,3.97,5.49,.4,1.02,1.1,1.91,1.56,2.91,.25,.55,.27,1.21,.4,1.82,.11,.53-.06,1.2,.74,1.36v9.51c-.21,.3-.59,.59-.6,.89-.02,1.43-.6,2.65-1.2,3.89-1.24,2.6-2.77,4.97-4.9,6.94-1.54,1.42-3.22,2.59-5.06,3.56-1.37,.72-2.69,1.54-4.29,1.72-.59,.07-1.32,.01-1.45,.88h-9.89ZM214.98,45.41s0,0,0,.01c-.44,0-.89-.02-1.33,0-5.99,.37-12.02-.1-17.98,1.04-3.51,.67-7.16,.68-10.65,1.42-1.79,.38-3.54,.82-5.37,.91-.31,.01-.65,.08-.91,.23-1.88,1.12-4.09,1.04-6.1,1.72-1.88,.63-3.97,.7-5.82,1.4-1.19,.45-2.49,.51-3.58,1.04-1.74,.86-3.57,1.4-5.38,2.01-1.29,.43-2.56,.92-3.82,1.42-1.32,.52-2.58,1.31-3.94,1.54-1.4,.24-2.34,1.31-3.7,1.54-.75,.13-1.44,.65-2.15,1.02-1.78,.92-3.55,1.89-5.34,2.79-2.32,1.15-4.72,2.14-6.97,3.4-2.11,1.18-4,2.77-6.12,3.94-2.95,1.63-5.75,3.47-8.47,5.44-.84,.6-1.56,1.36-2.39,1.97-1.83,1.34-3.78,2.52-5.53,3.96-2.66,2.18-5.25,4.45-7.76,6.8-3.81,3.57-7.65,7.12-11.26,10.89-5.1,5.33-9.5,11.25-13.89,17.17-.32,.43-.71,.81-1.01,1.26-1.01,1.52-1.99,3.05-2.98,4.59-.79,1.23-1.6,2.45-2.33,3.71-1.63,2.81-3.25,5.63-4.81,8.48-.97,1.78-1.86,3.61-2.67,5.47-.78,1.79-1.84,3.43-2.47,5.3-.36,1.07-1.24,1.95-1.64,3.01-.87,2.31-1.58,4.69-2.35,7.04-.06,.18-.06,.4-.16,.54-1.09,1.47-1.33,3.27-1.94,4.93-.54,1.46-.98,2.95-1.44,4.44-.56,1.83-1.1,3.67-1.64,5.51-.04,.12-.03,.25-.04,.38-.04,1.02-.14,1.99-.73,2.9-.29,.44-.24,1.09-.37,1.64-.18,.72-.38,1.44-.58,2.15-.13,.48-.34,.96-.41,1.45-.42,2.99-.8,5.99-1.2,8.98-.03,.25-.01,.53-.12,.75-.97,1.88-.74,3.93-.87,5.93-.03,.5-.14,1-.21,1.5-.25,1.75-.68,3.49-.7,5.25-.1,6.91-.13,13.82-.09,20.73,.02,3.35-.24,6.73,.92,9.98,.08,.23,.05,.5,.07,.75,.15,2.07,.32,4.09,.8,6.16,.6,2.6,.66,5.35,1.26,7.99,.5,2.19,.7,4.47,1.44,6.57,.43,1.21,.73,2.37,.83,3.63,.03,.37,.21,.72,.32,1.08,.24,.76,.51,1.51,.71,2.29,.16,.61,.14,1.27,.34,1.85,.5,1.46,1.14,2.87,1.62,4.33,.59,1.82,1.05,3.69,2.03,5.37,.15,.26,.13,.61,.23,.91,.47,1.46,.9,2.95,1.45,4.38,.48,1.26,1.11,2.46,1.68,3.69,.87,1.91,1.73,3.83,2.62,5.73,.55,1.17,1.15,2.32,1.71,3.49,.79,1.65,1.46,3.38,2.39,4.96,1.98,3.34,4.08,6.6,6.15,9.88,.89,1.41,1.76,2.83,2.74,4.17,1.77,2.4,3.64,4.71,5.42,7.1,1.59,2.12,2.98,4.39,4.7,6.39,2.16,2.51,4.62,4.75,6.83,7.21,1.71,1.9,3.24,3.95,5.29,5.54,1.23,.97,2.34,2.1,3.51,3.15,2.34,2.1,4.63,4.27,7.05,6.28,2,1.66,4.16,3.14,6.25,4.69,2.1,1.56,4.19,3.14,6.33,4.64,1.09,.76,2.33,1.33,3.46,2.04,1.39,.88,2.71,1.86,4.1,2.73,1.5,.94,3.03,1.83,4.58,2.68,1.71,.94,3.43,1.84,5.18,2.71,1.03,.51,2.2,.78,3.13,1.41,1.18,.81,2.49,1.27,3.76,1.87,.94,.45,1.87,.9,2.81,1.34,1.28,.59,2.54,1.25,3.86,1.74,1.4,.52,2.86,.86,4.28,1.33,1.06,.35,2.1,.76,3.13,1.19,1.3,.54,2.54,1.37,3.89,1.63,1.84,.35,3.43,1.63,5.41,1.36,.16-.02,.35,.13,.53,.18,1.97,.57,3.91,1.3,5.91,1.65,2.09,.36,4.02,1.49,6.22,1.31,.12,0,.26,.04,.36,.12,1.15,.87,2.51,.73,3.83,.83,1.07,.08,2.14,.19,3.19,.35,1.24,.19,2.46,.5,3.7,.68,1,.15,2.13-.07,3,.32,1.4,.63,2.82,.66,4.27,.7,3.61,.11,7.22,.18,10.84,.3,.69,.02,1.37,.23,2.06,.27,1.63,.1,3.27,.26,4.9,.21,1.5-.05,2.99-.46,4.49-.52,3.23-.15,6.46-.16,9.7-.26,.82-.02,1.73,.08,2.44-.23,1.87-.81,3.83-.7,5.77-.85,.44-.03,.92-.04,1.3-.22,1.6-.78,3.31-.72,5.02-.8,.75-.04,1.62,.02,2.22-.33,1.05-.61,2.14-.69,3.28-.78,.48-.04,.95-.25,1.42-.39,.66-.19,1.31-.42,1.98-.58,1.88-.44,3.85-.66,5.63-1.35,1.15-.44,2.25-.69,3.44-.81,.42-.04,.83-.25,1.24-.4,.58-.21,1.14-.44,1.72-.63,.41-.14,.87-.17,1.27-.34,1.37-.55,2.71-1.19,4.1-1.71,1.33-.5,2.83-.67,4.03-1.37,1.08-.63,2.27-.65,3.33-1.16,1.26-.6,2.51-1.21,3.77-1.79,1.73-.79,3.48-1.52,5.19-2.34,1.16-.56,2.23-1.27,3.38-1.85,2.3-1.17,4.75-2.1,6.92-3.49,2.1-1.34,4.26-2.57,6.32-3.96,1.55-1.04,3.25-1.83,4.74-3,2.04-1.61,4.22-3.03,6.3-4.59,2.2-1.65,4.39-3.33,6.52-5.08,1.67-1.37,3.21-2.88,4.85-4.27,3.36-2.86,6.66-5.78,9.63-9.04,1.94-2.13,3.76-4.37,5.69-6.51,1.2-1.34,2.62-2.49,3.72-3.91,2.5-3.24,4.9-6.56,7.28-9.9,1.3-1.83,2.47-3.75,3.67-5.65,.82-1.29,1.5-2.7,2.36-3.9,1.79-2.5,3.23-5.2,4.79-7.82,1.41-2.36,2.33-5.02,3.46-7.55,.4-.89,.67-1.89,1.25-2.65,.87-1.14,1.24-2.48,1.82-3.74,.54-1.18,.86-2.47,1.34-3.68,.55-1.41,1.21-2.79,1.76-4.2,.65-1.66,1.26-3.33,1.84-5.01,.47-1.35,1.12-2.7,1.25-4.09,.19-2.08,1.56-3.88,1.3-6.03-.01-.11,.07-.26,.15-.34,.78-.87,.78-1.95,.88-3.03,.04-.49,.24-.97,.37-1.45,.21-.78,.45-1.56,.62-2.35,.15-.68,.2-1.38,.34-2.06,.19-.91,.59-1.81,.62-2.72,.13-3.35,1.44-6.54,1.24-9.93-.01-.24,.06-.53,.2-.72,.81-1.18,.7-2.53,.73-3.85,.04-1.97,.04-3.93,.07-5.9,.05-2.85,.11-5.69,.63-8.52,.27-1.46,0-3.02-.1-4.53-.1-1.45-.4-2.89-.44-4.34-.11-3.29-.1-6.59-.18-9.89-.02-.81-.16-1.63-.31-2.43-.21-1.1-.55-2.18-.71-3.29-.16-1.06,.11-2.26-.29-3.2-.61-1.46-.56-2.96-.79-4.45-.34-2.23-.58-4.51-1.28-6.64-.42-1.27-.77-2.5-.85-3.82-.02-.25-.04-.57-.19-.72-.9-.91-.78-2.08-.9-3.2-.05-.48-.28-.95-.43-1.42-.17-.53-.38-1.06-.53-1.6-.44-1.62-.63-3.36-1.35-4.85-1.09-2.28-1.73-4.71-2.72-7.02-.79-1.83-1.36-3.81-2.15-5.69-.82-1.98-1.47-4.05-2.49-5.92-1.14-2.09-2.11-4.24-3.13-6.38-.39-.82-.73-1.66-1.14-2.47-.56-1.12-1.31-2.14-1.95-3.21-.83-1.38-1.61-2.78-2.45-4.14-.92-1.5-1.88-2.99-2.83-4.47-.89-1.38-1.76-2.78-2.72-4.11-1.52-2.12-3.08-4.2-4.65-6.27-1.68-2.21-3.34-4.43-5.12-6.55-1.85-2.2-3.83-4.29-5.78-6.41-1.72-1.88-3.4-3.79-5.21-5.58-1.6-1.58-3.39-2.99-5.05-4.52-3.02-2.78-5.98-5.62-9.38-7.95-2.3-1.58-4.4-3.45-6.67-5.07-2.52-1.8-5.1-3.54-7.74-5.18-2.11-1.32-4.49-2.26-6.47-3.73-2.79-2.07-6.05-3.19-9.02-4.87-1.89-1.07-3.93-1.87-5.91-2.77-1.9-.86-3.8-1.75-5.74-2.51-1.44-.56-2.99-.82-4.42-1.4-1.77-.72-3.45-1.66-5.39-1.92-.23-.03-.43-.23-.66-.32-.62-.25-1.24-.51-1.87-.71-.42-.13-.87-.14-1.29-.26-1.97-.58-3.91-1.25-5.89-1.75-1.93-.49-3.9-.83-5.85-1.24-.12-.03-.28-.04-.36-.11-1.09-1-2.48-.73-3.77-.9-.8-.1-1.59-.35-2.38-.53-.55-.13-1.09-.35-1.65-.4-2.13-.2-4.23-.33-6.35-.88-2.72-.71-5.6-.91-8.43-1.06-4.75-.25-9.5-.28-14.26-.4Z"/>
  </g>
</svg>