<svg width="215" height="28" viewBox="0 0 215 28" fill="none" xmlns="http://www.w3.org/2000/svg">
<path d="M214.141 11.6504C213.312 12.0636 212.404 12.2311 211.492 12.3634C208.603 12.7791 205.69 13.0185 202.829 13.6281C201.342 13.9456 199.937 14.4469 198.625 15.2065C197.111 16.0833 196.09 17.314 195.758 19.1129C195.208 22.0832 194.578 25.0385 193.982 28H4.40495C3.73477 26.6798 2.73764 25.6053 1.79938 24.4867C1.34215 23.9425 0.866133 23.4122 0.432706 22.8479C0.154611 22.4876 -0.171086 22.0744 0.104504 21.5932C0.383851 21.1057 0.903713 21.2002 1.34967 21.2745C2.75016 21.5038 4.15442 21.7166 5.53863 22.0265C7.42516 22.4485 9.35178 22.4082 11.2559 22.6211C11.5816 22.6564 11.9235 22.6589 12.2505 22.3402C11.8634 22.0467 11.4087 22.0228 10.9928 21.9144C8.75927 21.3375 6.80509 20.2705 5.2004 18.5888C4.9411 18.318 4.68054 18.0383 4.4726 17.7272C3.57192 16.3781 3.75606 15.1814 5.06261 14.224C6.90781 12.8736 9.04112 12.3118 11.2759 12.1404C13.1173 11.9994 14.9174 12.1921 16.7013 12.793C19.6162 13.7743 22.4999 13.6685 25.3485 12.3407C28.053 11.081 30.9267 10.7573 33.898 11.0508C37.6836 11.4262 41.4141 12.1039 45.122 12.9303C45.692 13.0575 46.2695 13.1507 46.8457 13.2402C48.3389 13.4682 49.4526 12.8849 50.1328 11.5446C50.4021 11.0143 50.5374 10.4424 50.6814 9.87426C50.8756 9.10081 51.0472 8.32105 51.2514 7.55138C51.8677 5.21969 53.6465 4.27618 56.1243 5.05089C58.8276 5.89488 60.8093 8.68637 61.0185 11.6164C61.1526 13.4757 60.758 15.0856 59.3675 16.4247C58.4706 17.2888 58.646 18.2071 59.7521 18.8899C60.7981 19.5336 61.9794 19.8372 63.1644 20.0879C65.3328 20.5464 67.5387 20.8097 69.7422 20.8664C72.4743 20.9369 74.9947 20.1622 76.7109 17.8443C78.5636 15.3426 81.1428 13.9431 83.8837 12.7627C85.1865 12.2022 86.5456 11.7688 87.9399 11.4829C90.1045 11.0382 91.8896 9.96748 93.3214 8.27697C93.7799 7.73404 94.306 7.24906 94.777 6.71494C96.4756 4.79013 98.5902 4.15651 101.093 4.5256C103.372 4.86193 105.641 5.28393 107.776 6.12667C110.656 7.26291 113.535 7.29692 116.502 6.68345C122.194 5.5069 127.756 3.88063 133.249 1.98353C137.184 0.624322 141.231 -0.120157 145.415 0.0158898C146.301 0.0448628 147.163 0.165794 147.996 0.456783C149.627 1.02742 150.36 2.30979 150.033 4.0003C149.945 4.45253 149.806 4.89595 149.727 5.3507C149.424 7.10041 150.137 8.01621 151.884 8.10691C152.676 8.14722 153.468 8.13336 154.25 7.957C156.286 7.49973 158.327 7.06136 160.361 6.59653C161.139 6.41766 161.918 6.30932 162.716 6.31814C165.176 6.34459 167.633 6.38994 170.093 6.49324C172.626 6.59905 175.178 6.41388 177.712 6.23626C182.413 5.90874 187.068 5.12647 191.753 4.64905C195.237 4.29381 198.748 4.12249 202.251 4.3379C206.66 4.60874 210.615 6.1758 214.093 8.92823C214.319 9.1071 214.532 9.32503 214.691 9.56563C215.246 10.4096 215.048 11.1995 214.141 11.6504Z" fill="white" fill-opacity="0.3"/>
<path d="M213.695 10.7554L213.696 10.755C213.967 10.62 213.995 10.5091 213.996 10.5038L213.996 10.5036C213.998 10.4963 214.028 10.378 213.855 10.115C213.766 9.98051 213.632 9.83864 213.472 9.71165C210.147 7.08093 206.386 5.59377 202.189 5.33602L202.251 4.3379L202.189 5.33602C198.758 5.12502 195.305 5.29205 191.855 5.64389L191.753 4.64905L191.855 5.64389C190.035 5.82934 188.179 6.0671 186.308 6.30681C183.476 6.66957 180.61 7.03679 177.781 7.23384L177.597 7.24678C175.132 7.4197 172.587 7.59829 170.051 7.49237L170.051 7.49236C167.606 7.38969 165.161 7.34449 162.705 7.31808L162.705 7.31808C162.005 7.31035 161.307 7.40506 160.585 7.5711L160.584 7.57141C159.399 7.84201 158.204 8.10563 157.013 8.36826C156.161 8.55617 155.311 8.74358 154.47 8.93269C153.56 9.13761 152.665 9.14796 151.833 9.10561L151.832 9.10556C150.816 9.05282 149.86 8.74859 149.249 7.96673C148.642 7.19 148.567 6.18628 148.742 5.17998L148.742 5.17971C148.788 4.91313 148.851 4.65703 148.906 4.43393L148.918 4.38587C148.971 4.17358 149.016 3.99187 149.051 3.81042L213.695 10.7554ZM213.695 10.7554C213.02 11.0916 212.251 11.2428 211.348 11.3737L213.695 10.7554ZM2.56501 23.8434L2.56555 23.8441C2.69866 24.0028 2.83649 24.1643 2.97712 24.3291C3.65709 25.126 4.40237 25.9994 4.99536 27H193.164C193.289 26.384 193.415 25.7695 193.54 25.1559C193.966 23.0781 194.39 21.0111 194.775 18.9314C195.168 16.7983 196.401 15.3388 198.124 14.3412L2.56501 23.8434ZM2.56501 23.8434C2.41391 23.6636 2.26752 23.4928 2.12502 23.3266C1.81856 22.9691 1.53004 22.6325 1.25116 22.2717M2.56501 23.8434L1.25116 22.2717M1.25116 22.2717C1.43612 22.3019 1.6202 22.3317 1.80349 22.3614C3.00285 22.5557 4.16809 22.7445 5.32016 23.0024L5.32033 23.0024C6.33704 23.2298 7.34926 23.3293 8.31834 23.3996C8.61535 23.4212 8.90472 23.4398 9.18926 23.4581C9.85553 23.5011 10.4953 23.5423 11.1447 23.6149L11.1482 23.6153C11.5598 23.6599 12.2923 23.696 12.9485 23.0563L13.7804 22.2453L12.8547 21.5434C12.5168 21.2871 12.1675 21.1645 11.8864 21.0907C11.7516 21.0553 11.6201 21.0282 11.5171 21.007L11.512 21.0059C11.3995 20.9827 11.3193 20.9661 11.2449 20.9467L11.2429 20.9462C9.16935 20.4106 7.38582 19.4306 5.92388 17.8985L5.92272 17.8973C5.66193 17.6249 5.45803 17.4019 5.30429 17.172L1.25116 22.2717ZM16.3822 13.7407L16.382 13.7406C14.7353 13.1859 13.0706 13.0059 11.3523 13.1375C9.23282 13.3 7.29998 13.8259 5.65367 15.0306L16.3822 13.7407ZM16.3822 13.7407C19.5304 14.8005 22.6802 14.6877 25.771 13.2471C28.2792 12.0789 30.9655 11.7661 33.7994 12.0459C37.5324 12.4161 41.221 13.0854 44.9042 13.9063C45.5094 14.0414 46.1157 14.1388 46.6924 14.2283L46.6948 14.2287M16.3822 13.7407L46.6948 14.2287M46.6948 14.2287C47.6071 14.368 48.4805 14.269 49.254 13.8685C50.0267 13.4684 50.6101 12.8137 51.0245 11.9972C51.3298 11.3959 51.4901 10.7586 51.6196 10.2434C51.6302 10.2014 51.6405 10.1603 51.6508 10.12L51.6513 10.1177M46.6948 14.2287L51.6513 10.1177M51.6513 10.1177C51.7374 9.77494 51.8144 9.4514 51.8898 9.13471C51.9956 8.69031 52.0982 8.25943 52.218 7.8078L52.2182 7.80693M51.6513 10.1177L52.2182 7.80693M52.2182 7.80693C52.4739 6.83969 52.9298 6.29337 53.4496 6.02426C53.9791 5.75012 54.7548 5.67043 55.8259 6.00532L55.8263 6.00545M52.2182 7.80693L55.8263 6.00545M55.8263 6.00545C58.083 6.71001 59.8369 9.1084 60.0211 11.6876L60.0211 11.6883M55.8263 6.00545L60.0211 11.6883M60.0211 11.6883C60.1403 13.3413 59.7932 14.6264 58.6739 15.7044L58.6737 15.7045M60.0211 11.6883L58.6737 15.7045M58.6737 15.7045C58.0821 16.2745 57.6801 17.0306 57.8221 17.8886C57.9583 18.7119 58.5487 19.3223 59.2268 19.7408L59.228 19.7415M58.6737 15.7045L59.228 19.7415M59.228 19.7415C60.4318 20.4824 61.7607 20.8131 62.9574 21.0662L62.9575 21.0662L59.228 19.7415ZM88.1411 12.4624L88.1408 12.4625C86.816 12.7342 85.5218 13.1465 84.279 13.6813C81.5783 14.8443 79.2041 16.1579 77.5145 18.4395C75.5435 21.1014 72.6568 21.9419 69.7165 21.866C69.7165 21.866 69.7164 21.866 69.7164 21.866L69.7422 20.8664L88.1411 12.4624ZM88.1411 12.4624C90.5287 11.9719 92.5104 10.7817 94.0845 8.92327L94.0854 8.92215M88.1411 12.4624L94.0854 8.92215M94.0854 8.92215C94.2903 8.67953 94.5149 8.44448 94.763 8.18821L94.8328 8.1161C95.0553 7.88663 95.2967 7.63753 95.5268 7.37663C96.9746 5.73609 98.7366 5.18895 100.947 5.51488C103.21 5.84898 105.386 6.25817 107.409 7.0568L107.409 7.05688M94.0854 8.92215L107.409 7.05688M107.409 7.05688C110.513 8.28141 113.597 8.30514 116.705 7.66275C122.449 6.47545 128.053 4.83609 133.576 2.92875L133.249 1.98353M107.409 7.05688L133.249 1.98353M133.249 1.98353L133.576 2.92873C137.416 1.60215 141.341 0.883966 145.383 1.01536L133.249 1.98353ZM4.9266 15.9912C4.88418 16.2487 4.94242 16.6298 5.30401 17.1715L4.9266 15.9912ZM4.9266 15.9912C4.96816 15.7389 5.13882 15.4079 5.65348 15.0307L4.9266 15.9912ZM59.7521 18.8899C58.646 18.2071 58.4706 17.2888 59.3675 16.4247L59.7521 18.8899ZM59.7521 18.8899C60.7981 19.5336 61.9794 19.8372 63.1644 20.0879L59.7521 18.8899ZM147.666 1.40068C146.955 1.15254 146.2 1.0421 145.383 1.01536L147.666 1.40068ZM147.666 1.40068C148.302 1.62344 148.678 1.95177 148.881 2.30636M147.666 1.40068L148.881 2.30636M148.881 2.30636C149.085 2.66105 149.178 3.15031 149.051 3.80995L148.881 2.30636ZM202.621 12.6501L202.621 12.6502L211.348 11.3738C210.459 11.5018 209.547 11.6148 208.625 11.7292C206.639 11.9754 204.602 12.228 202.621 12.6501ZM10.8203 22.5765L10.7407 22.8821C10.741 22.8822 10.7414 22.8823 10.7417 22.8824C10.742 22.8825 10.7424 22.8826 10.7427 22.8826L10.8217 22.5767C10.9665 22.5902 11.1113 22.6049 11.2559 22.6211L10.8203 22.5765Z" stroke="white" stroke-opacity="0.3" stroke-width="2"/>
</svg>
