<svg width="73" height="83" viewBox="0 0 73 83" fill="none" xmlns="http://www.w3.org/2000/svg">
<g clip-path="url(#clip0_1_1917)">
<path d="M1.55785 10.8391C0.283222 14.015 1.05429 17.9336 3.46192 20.3826C3.61929 20.5406 3.79238 20.7144 4.01269 20.7618C4.2802 20.8409 4.56346 20.746 4.83097 20.6512C6.75078 19.9876 8.67059 19.3398 10.5904 18.6762C11.4244 22.3261 11.6447 26.1024 11.2356 29.8313C9.04826 29.3257 6.86093 28.8359 4.67361 28.3303C4.42183 28.2671 4.13858 28.2197 3.90254 28.3303C3.60355 28.4883 3.50913 28.8675 3.44619 29.1993C3.08426 31.1428 2.76953 33.3232 3.90254 34.9191C4.46904 35.7249 5.33453 36.2621 6.16854 36.7836C8.59191 38.2688 11.0153 39.7698 13.4386 41.2551C14.6503 40.5125 16.0351 40.0859 17.4514 40.0069C17.7031 42.3295 17.9549 44.668 18.2067 46.9907C18.2382 47.3383 18.3011 47.7333 18.5686 47.9703C18.8047 48.1757 19.1351 48.2073 19.4341 48.2231C23.4311 48.4443 27.4596 48.2863 31.4251 47.7333C31.0317 51.3516 30.6855 55.2701 32.6053 58.3512C34.2261 60.9583 37.2002 62.4594 38.9469 64.9874C39.2459 65.4299 39.5921 65.9355 40.1272 65.9829C40.5835 66.0145 40.9769 65.6827 41.3074 65.3666C42.2515 64.4818 43.18 63.5812 44.1241 62.6964C43.6206 64.7978 46.1856 66.9151 48.1526 65.9987C48.8922 67.7525 49.6318 69.5222 50.3557 71.276C52.1024 75.4474 54.51 80.1717 58.9476 80.9459C59.3095 81.0091 59.7029 81.0407 60.0491 80.8827C60.4583 80.6931 60.6943 80.2665 61.009 79.9505C62.2522 78.6865 64.3923 79.1763 65.9502 80.0453C67.4923 80.9143 69.0345 82.0994 70.8127 82.0046C71.1588 81.9888 71.5365 81.894 71.7726 81.6412C72.3076 81.0723 71.8984 80.1559 71.4736 79.5081C69.5852 76.6324 67.6812 73.7409 65.7928 70.8652C65.4152 70.2806 65.0218 69.696 64.471 69.2694C62.9288 68.0527 60.7258 68.4793 58.8374 68.9692C55.0136 61.1479 54.3054 51.8414 56.8862 43.5304C57.61 41.1761 58.5857 38.5532 57.4212 36.3885C56.2567 34.1923 53.4085 33.5286 50.9222 33.5602C48.4358 33.6077 45.8708 34.0975 43.5262 33.26C39.5764 31.8538 37.7982 27.3507 36.4921 23.3531C36.3505 22.9265 36.2089 22.4683 36.319 22.0417C36.4606 21.4571 36.9799 21.0779 37.3891 20.6512C38.8211 19.1502 38.9627 16.5905 37.7038 14.9315C37.4992 14.6629 37.2317 14.3942 36.9012 14.3626C36.5708 14.3152 36.2561 14.5049 35.9728 14.6629C34.2576 15.6899 32.5423 16.7169 30.8271 17.744C30.4494 17.9652 30.056 18.218 29.8829 18.613C29.6469 19.1186 29.8357 19.719 30.056 20.2404C30.7484 21.8521 31.7398 23.3373 32.9672 24.5856C30.6697 24.1906 28.1677 25.4388 27.1134 27.5403C26.1377 25.6442 26.1692 23.2425 27.2235 21.3781C25.524 21.2517 23.856 20.7934 22.3453 20.0192C23.2423 18.6446 23.8088 17.0487 23.9976 15.4213C22.2981 16.4957 20.5986 17.5701 18.8991 18.6446C17.5458 18.3918 17.0737 16.4957 17.7189 15.2633C18.3641 14.0466 19.6859 13.3514 20.9291 12.7352C22.8331 11.803 24.7215 10.8549 26.6255 9.92271C24.5169 7.09442 22.5971 4.10813 20.9133 1.01123C17.6245 2.85989 14.1468 4.43994 10.5747 5.70398C8.49749 6.415 6.29443 7.09442 4.78376 8.69027C3.27309 10.2861 2.86395 13.1776 4.56346 14.5839C3.30456 13.5568 2.34466 12.198 1.79389 10.6811" fill="white" fill-opacity="0.35"/>
<path d="M0.613877 10.5706C-0.519125 13.7149 -0.0942491 17.27 1.87277 20.0035C2.51795 20.9041 3.24181 21.8047 4.42203 21.7573C5.35046 21.7257 6.38904 21.1569 7.25453 20.8567C8.45048 20.4459 9.64643 20.0351 10.8581 19.6243C10.449 19.3873 10.0556 19.1661 9.64643 18.929C10.4332 22.5316 10.6221 26.1499 10.2601 29.8156C10.6693 29.4996 11.0942 29.1836 11.5033 28.8676C9.92968 28.5041 8.34033 28.1407 6.76671 27.7773C5.90122 27.5719 4.75248 27.0821 3.83979 27.3349C2.12455 27.7931 2.10881 30.7478 2.14028 32.1699C2.20323 34.2081 3.03724 35.7882 4.68954 36.9732C7.31748 38.8535 10.2129 40.4019 12.951 42.0926C13.25 42.2822 13.6434 42.2664 13.9424 42.0926C15.0754 41.4606 16.1769 41.0971 17.4516 40.9865C17.1211 40.6547 16.7906 40.3229 16.4759 40.0069C16.712 42.2032 16.9165 44.4152 17.184 46.5957C17.3257 47.7966 17.546 48.792 18.8521 49.1238C20.646 49.582 22.8805 49.3134 24.7059 49.266C26.9562 49.2028 29.2065 48.9974 31.441 48.6972C31.1105 48.3654 30.7801 48.0336 30.4654 47.7176C29.8674 53.1845 30.1349 57.9405 34.4151 61.8116C35.3436 62.649 36.3349 63.4232 37.1847 64.3397C37.8771 65.0823 38.4121 66.2041 39.3091 66.6781C41.3705 67.7842 43.6208 64.5293 44.8482 63.36C44.2817 63.123 43.7309 62.9018 43.1644 62.6648C42.8025 65.5405 45.7452 67.8474 48.436 66.9309C48.0269 66.6939 47.6335 66.4727 47.2244 66.2357C49.1756 70.9285 50.8437 76.8695 54.998 80.1402C56.2884 81.1514 58.6173 82.4628 60.3326 81.7992C61.6859 81.2778 61.8432 79.9032 63.6529 80.1876C65.1006 80.4088 66.2808 81.42 67.5397 82.0678C68.9874 82.8104 71.6626 83.7427 72.7327 81.9256C73.8657 79.9822 71.2534 77.3593 70.2935 75.8898C69.3494 74.452 68.4052 73.0141 67.4453 71.5763C66.7686 70.5493 66.1235 69.3484 65.1636 68.5426C63.291 66.9942 60.726 67.4524 58.5701 67.9896C58.9478 68.1476 59.3097 68.2898 59.6874 68.4478C56.6346 62.017 55.5802 54.6856 56.8706 47.6701C57.4528 44.4942 59.2782 41.1761 58.8848 37.9054C58.6016 35.488 56.9178 33.8289 54.6833 33.0705C51.7721 32.0909 48.798 32.9441 45.8396 32.6913C42.2989 32.3911 40.2375 29.8314 38.8527 26.7819C38.302 25.5653 36.9329 23.0688 37.6725 21.7415C38.2705 20.6829 39.1045 20.1299 39.4035 18.85C39.8126 17.112 39.3248 13.8255 37.169 13.3831C35.8943 13.1145 34.5568 14.3469 33.5654 14.9473C32.2435 15.7373 30.3867 16.4326 29.3796 17.6334C27.4912 19.8771 30.8116 23.6692 32.2907 25.2492C32.5268 24.6804 32.7471 24.1274 32.9831 23.5586C30.2136 23.2268 27.6643 24.6014 26.2795 27.0031C26.846 27.0031 27.4125 27.0031 27.979 27.0031C27.208 25.2966 27.2552 23.527 28.0892 21.8521C28.4354 21.1411 27.9948 20.4459 27.2394 20.3669C25.6973 20.2089 24.2653 19.8139 22.8648 19.1503C22.9749 19.6085 23.1008 20.0509 23.211 20.5091C24.1237 19.008 24.7059 17.428 24.9577 15.6741C25.0679 14.8841 24.3125 14.0467 23.51 14.5523C22.314 15.3107 21.0079 16.4958 19.6861 16.9698C19.4815 17.112 19.2612 17.2384 19.0566 17.3806C18.5374 17.112 18.3485 16.7486 18.4744 16.2904C18.4587 15.3739 19.45 14.7261 20.111 14.2995C22.2983 12.9091 24.8161 11.9136 27.1293 10.776C27.5699 10.5548 27.7902 9.82796 27.4755 9.41715C25.3668 6.57306 23.4785 3.60257 21.7633 0.505669C21.4957 0.0316544 20.8663 -0.11055 20.41 0.158058C17.7978 1.5959 15.1069 2.92315 12.3216 4.01338C10.1972 4.835 7.88398 5.38802 5.91696 6.57306C2.9743 8.32691 1.02302 12.4982 3.85552 15.2791C4.31187 14.8209 4.78396 14.3469 5.2403 13.8887C4.12304 12.9091 3.28902 11.803 2.72252 10.4126C2.25044 9.24334 0.346363 9.76476 0.818447 10.934C1.52657 12.6404 2.48648 14.0625 3.85552 15.2791C4.79969 16.1008 6.16874 14.7735 5.2403 13.8887C3.77684 12.4508 4.53218 10.2072 5.90122 8.99053C7.34895 7.67909 9.39465 7.17348 11.1728 6.52566C14.7135 5.26162 18.1282 3.68157 21.4171 1.83291C20.9607 1.72231 20.5201 1.5959 20.0638 1.4853C21.7633 4.5822 23.6673 7.55269 25.776 10.3968C25.8861 9.93856 26.012 9.49615 26.1222 9.03794C23.8719 10.144 21.5115 11.1394 19.3556 12.4034C17.8922 13.2567 16.4917 14.5207 16.4444 16.3536C16.413 17.6176 17.0739 19.1503 18.4115 19.4821C19.3242 19.7191 19.8907 19.1345 20.646 18.6446C21.9206 17.8388 23.1953 17.033 24.4699 16.2272C23.9821 15.848 23.51 15.4845 23.0222 15.1053C22.7861 16.7012 22.314 18.0916 21.4643 19.4663C21.2125 19.8929 21.3384 20.5881 21.8105 20.8251C23.5414 21.6467 25.2882 22.1207 27.1922 22.3104C26.909 21.8205 26.6257 21.3149 26.3425 20.8251C25.1623 23.1952 25.1465 25.5811 26.2323 27.9827C26.5471 28.678 27.5856 28.5831 27.9318 27.9827C29.0019 26.1341 30.843 25.2808 32.9359 25.5179C33.8329 25.6285 34.1633 24.396 33.6283 23.8272C32.6369 22.7686 31.7557 21.6151 31.142 20.2879C30.6227 19.1661 31.0319 18.8184 31.9288 18.1706C32.7314 17.6018 33.6598 17.1436 34.4938 16.638C34.8872 16.401 35.9887 15.4529 36.4294 15.4845C37.2476 15.5319 37.4837 16.6538 37.5309 17.3016C37.641 18.9922 36.571 19.6559 35.7527 20.8883C34.5882 22.6264 35.9573 25.0596 36.6497 26.7503C37.4679 28.757 38.5223 30.7478 40.1116 32.2489C41.6852 33.7341 43.6365 34.4925 45.7766 34.6505C48.5305 34.8559 51.4102 34.0185 54.1011 34.9508C57.9879 36.3096 56.7919 40.1807 55.8792 43.2144C55.0767 45.8689 54.5731 48.6024 54.3843 51.3675C53.9752 57.5929 55.2498 63.8024 57.9249 69.4274C58.1138 69.8224 58.6331 69.9804 59.0422 69.8856C60.1752 69.6012 61.4498 69.2694 62.6143 69.4906C63.826 69.7276 64.4554 70.6757 65.0849 71.6395C66.3752 73.583 67.6499 75.5422 68.9402 77.5015C69.3336 78.0861 70.6397 79.4449 70.6869 80.1718C70.7814 81.7518 68.2321 80.2192 67.6971 79.9032C66.328 79.1131 64.959 78.2441 63.3224 78.1651C62.693 78.1335 62.0321 78.1967 61.4341 78.4495C60.8204 78.7023 60.5057 79.2553 59.9706 79.5555C58.0193 80.6774 55.6589 78.3389 54.5574 76.9643C51.9609 73.741 50.6391 69.4748 49.0655 65.6985C48.8766 65.2245 48.4046 64.8137 47.8538 65.0033C46.2802 65.5405 44.8639 64.2765 45.0685 62.649C45.1787 61.7484 43.9512 61.4166 43.3847 61.9538C42.6766 62.6332 41.7482 63.9289 40.8512 64.3555C39.7969 64.8611 39.5294 64.0553 38.8999 63.3442C37.6882 61.9696 36.1933 60.8794 34.903 59.5995C31.6298 56.3288 31.9131 51.9679 32.3694 47.6859C32.4166 47.1961 31.8659 46.6273 31.3938 46.7063C28.2938 47.1171 25.1623 47.3383 22.0308 47.2909C21.4013 47.2751 20.3627 47.4647 19.7805 47.2119C18.9622 46.8643 19.0409 45.9163 18.9465 45.0157C18.7577 43.3408 18.5846 41.6502 18.3957 39.9753C18.3485 39.4855 17.9866 38.9325 17.4201 38.9957C15.7993 39.1379 14.3358 39.5803 12.9195 40.3861C13.25 40.3861 13.5805 40.3861 13.9109 40.3861C12.1485 39.2959 10.386 38.2215 8.62358 37.1312C7.04996 36.1674 4.79969 35.251 4.23319 33.3391C3.99715 32.5807 4.04436 31.7432 4.12304 30.969C4.18598 30.4634 4.26466 29.942 4.35908 29.4522C4.32761 29.073 4.57939 29.0572 5.09868 29.4364C7.01849 29.5944 9.04845 30.337 10.9211 30.7636C11.5977 30.9216 12.1013 30.4634 12.1642 29.8156C12.5419 25.9761 12.3058 22.1681 11.4876 18.4076C11.3774 17.902 10.7637 17.5544 10.2759 17.7124C8.84388 18.2022 7.39616 18.7078 5.96417 19.1977C4.34334 19.7507 4.02862 19.9087 3.05298 18.2812C1.77835 16.085 1.65246 13.4779 2.51795 11.092C2.94283 9.89116 1.03875 9.38555 0.613877 10.5706Z" fill="white" fill-opacity="0.35"/>
</g>
<defs>
<clipPath id="clip0_1_1917">
<rect width="73" height="83" fill="white"/>
</clipPath>
</defs>
</svg>
