<svg width="75" height="85" viewBox="0 0 75 85" fill="none" xmlns="http://www.w3.org/2000/svg">
<g clip-path="url(#clip0_1_1371)">
<path d="M12.8415 0.693604C11.921 1.84711 13.5556 3.45011 15.0333 3.51168C16.5111 3.57326 18.0487 2.95545 19.4315 3.47679C20.5068 3.88318 21.2643 5.00179 21.2395 6.14503C21.2147 7.28827 20.4077 8.37404 19.3159 8.73323C18.7257 8.92822 18.0611 8.93232 17.5369 9.26688C17.0126 9.60143 16.7959 10.5004 17.347 10.7919C17.8795 10.5497 18.189 11.4076 18.1416 11.9885C17.6607 17.8956 17.1819 23.8027 16.701 29.7097C16.6783 29.9909 16.6453 30.2967 16.4492 30.502C16.3047 30.6539 16.0963 30.7237 15.8961 30.7832C13.1573 31.6103 10.208 31.7335 7.41137 31.1362C6.61677 32.2261 7.8097 34.0569 6.84793 35.0052C6.57343 35.2761 6.17922 35.3931 5.8717 35.6271C5.43416 35.9616 5.21745 36.4994 5.01725 37.0105C2.97399 42.2464 0.908029 47.587 0.55923 53.1923C0.482866 54.432 0.517952 55.7703 1.25064 56.778C1.55816 57.2029 1.97713 57.5498 2.20828 58.0198C2.55089 58.7177 2.41261 59.5407 2.35069 60.3145C2.03492 64.3538 4.28044 68.4793 7.85305 70.4251C6.8211 69.015 7.50012 66.8578 8.92421 65.8419C10.3483 64.8259 12.2533 64.7315 13.9828 65.0188C15.7124 65.3062 17.3738 65.9281 19.1054 66.2134C19.8649 66.3386 20.6657 66.4084 21.3097 66.8271C21.8401 67.1739 22.1992 67.7178 22.6079 68.2002C25.0742 71.1147 29.879 71.6976 32.9769 69.4563C33.7653 70.3758 32.56 71.7448 32.7251 72.9415C32.8365 73.7563 33.5548 74.3269 34.1822 74.8626C36.2089 76.5908 37.8023 78.8177 38.7806 81.2889C38.0912 81.4141 37.4019 81.5394 36.7125 81.6646C36.341 83.7253 39.2986 85.2441 41.0508 84.0824C42.8031 82.9207 42.9517 80.2114 41.7629 78.4832C43.7979 77.6827 45.3252 75.7287 45.6038 73.5716C45.6719 73.04 45.6802 72.4735 45.9732 72.024C46.9619 70.5072 50.0226 71.7038 50.7945 70.0659C51.1454 69.3229 50.747 68.3788 51.1268 67.6501C51.4735 66.9851 52.3362 66.745 52.7614 66.1272C53.1866 65.5094 52.2681 64.3866 51.8966 65.0393C51.6572 63.9413 51.4178 62.8411 51.1784 61.743C51.779 61.6938 52.3796 61.6445 52.9802 61.5953C53.8243 60.0641 54.6685 58.535 55.5126 57.0038C56.1813 57.6175 57.2834 57.3897 58.0326 56.8745C58.7818 56.3593 59.3514 55.6122 60.1275 55.1422C61.7579 54.1529 64.1541 54.7584 65.1097 56.4045C66.1891 56.5502 67.2933 55.6492 67.3614 54.5675C68.7711 55.1217 70.2674 55.4645 71.7782 55.5794C71.0207 53.8615 68.4429 54.4013 66.6886 53.7096C64.5504 52.868 63.8631 50.2511 63.4627 47.9995C63.2233 46.651 63.0644 45.046 64.0798 44.1224C64.9921 43.2952 66.4017 43.4409 67.5823 43.0879C68.7628 42.7349 69.7411 41.0518 68.7071 40.3807C68.4058 40.1857 68.0177 40.1569 67.7164 39.9578C66.7299 39.3031 67.5369 37.8048 68.3149 36.916C69.093 36.0253 69.5719 34.2847 68.4264 33.9789C67.5781 33.7511 66.3873 34.6419 65.9559 33.8804C66.8289 32.4396 66.1272 30.6149 65.5968 29.018C65.0664 27.4212 64.8971 25.303 66.3274 24.4061C65.861 24.2521 65.3966 24.0982 64.9302 23.9443C64.8703 22.37 66.6494 21.0256 68.1581 21.5018C68.7257 21.6804 69.2375 22.0662 69.834 22.1011C70.9031 22.1648 71.6832 21.1077 72.0671 20.1123C72.451 19.1189 72.7214 17.9797 73.5923 17.3578C73.8132 17.1998 74.067 17.0828 74.2466 16.8796C74.7605 16.2967 74.3601 15.3074 73.6728 14.94C72.9876 14.5726 72.1579 14.6424 71.3819 14.7121C66.6391 15.137 61.8611 15.1986 57.108 14.901C56.6044 14.8702 56.043 14.8045 55.7252 14.4145C55.4651 14.0964 55.4486 13.651 55.4445 13.2405C55.43 11.773 55.4156 10.3054 55.4011 8.83791C46.9164 8.82354 38.4318 8.80917 29.9471 8.79275C29.5219 8.79275 29.0348 8.76196 28.7768 8.42741C28.5436 8.12364 28.5993 7.69467 28.6675 7.31701C29.0782 5.05105 29.4889 2.78304 29.8975 0.51709C24.2218 0.662817 18.5461 0.808544 12.8724 0.952219" fill="white" fill-opacity="0.14"/>
<path d="M12.3959 0.434911C11.5786 1.54326 12.4104 2.85275 13.4052 3.49518C14.8148 4.40239 16.3854 3.83795 17.9313 3.78458C18.6929 3.7579 19.4421 3.89747 20.0035 4.44549C20.472 4.90319 20.7547 5.54768 20.7196 6.20448C20.6866 6.85512 20.3357 7.47497 19.8301 7.87931C19.2378 8.35139 18.5009 8.33497 17.8157 8.57511C17.1656 8.80294 16.6517 9.25448 16.534 9.95644C16.4515 10.4552 16.7714 11.4999 17.4834 11.2844C17.6403 11.2372 17.4814 11.2906 17.4587 11.2454C17.4669 11.2618 17.4958 11.2782 17.4938 11.2988C17.4876 11.3665 17.5949 11.5533 17.6093 11.6313C17.6795 12.011 17.5887 12.4317 17.5577 12.8135C17.4814 13.7515 17.405 14.6895 17.3286 15.6295C17.0232 19.3836 16.7177 23.1376 16.4143 26.8916C16.371 27.417 16.3297 27.9404 16.2864 28.4658C16.2472 28.942 16.2657 29.4716 16.1564 29.9375C16.0573 30.3603 15.37 30.4055 15.0068 30.4958C14.5527 30.6107 14.0945 30.7051 13.6322 30.7811C11.6199 31.1136 9.54156 31.0561 7.54783 30.6394C7.31049 30.5902 7.09997 30.6764 6.96581 30.8755C6.26822 31.912 6.89151 33.0388 6.71402 34.1533C6.61082 34.8081 5.90291 34.925 5.45917 35.3048C4.92256 35.7645 4.68314 36.4542 4.43548 37.0925C3.21365 40.2246 2.00008 43.3711 1.14562 46.6263C0.726651 48.2252 0.402619 49.8467 0.202421 51.4866C0.0249253 52.9378 -0.185592 54.5613 0.282913 55.9795C0.514069 56.6753 0.924785 57.1946 1.39329 57.7447C1.94229 58.3871 1.94435 59.0665 1.87418 59.8752C1.75447 61.2504 1.83084 62.605 2.19821 63.9412C2.99281 66.8393 4.94732 69.4049 7.59324 70.8684C8.01634 71.1023 8.60661 70.6077 8.29909 70.1664C7.18252 68.5655 8.39816 66.515 9.99562 65.8233C12.1751 64.8792 14.6291 65.6427 16.7941 66.2153C17.3596 66.3652 17.9251 66.5089 18.4989 66.6238C19.1015 66.7428 19.7207 66.7921 20.313 66.9542C21.3698 67.2436 21.8362 68.1611 22.5503 68.9C23.8196 70.2095 25.5636 71.0079 27.3654 71.2522C29.4086 71.5293 31.5489 71.1044 33.2413 69.9016C33.0328 69.8749 32.8244 69.8483 32.6159 69.8216C32.8946 70.1787 32.6572 70.7534 32.5396 71.127C32.3869 71.6134 32.2197 72.0999 32.199 72.613C32.1454 73.8506 33.1319 74.6244 33.9761 75.3633C35.8645 77.0156 37.3547 79.105 38.2855 81.4284C38.4052 81.217 38.5249 81.0077 38.6467 80.7963C37.9573 80.9215 37.268 81.0467 36.5786 81.1719C36.4218 81.2006 36.2422 81.371 36.2174 81.5311C35.9202 83.4378 37.6209 84.8561 39.4165 84.9916C41.4824 85.1496 42.8632 83.3311 43.0324 81.4449C43.1336 80.3263 42.8343 79.1625 42.2089 78.2286C42.1057 78.479 42.0026 78.7315 41.9014 78.9819C43.4576 78.3497 44.7558 77.1859 45.4926 75.6732C45.862 74.9179 46.0581 74.138 46.153 73.3067C46.2397 72.5535 46.4255 72.0178 47.1953 71.8002C48.3263 71.48 49.6658 71.7386 50.6606 71.01C51.3499 70.5051 51.48 69.7251 51.4697 68.9226C51.4655 68.5572 51.4222 68.1385 51.6306 67.8163C51.8453 67.4838 52.2416 67.2826 52.5491 67.0487C53.2343 66.5294 53.6533 65.809 53.1703 64.988C52.7802 64.325 51.932 64.0643 51.4531 64.7827C51.7669 64.8238 52.0826 64.8648 52.3963 64.9059C52.1569 63.8078 51.9175 62.7076 51.6781 61.6096C51.513 61.8251 51.3458 62.0426 51.1807 62.2581C51.5089 62.2314 51.835 62.2048 52.1631 62.1781C52.4562 62.1535 52.8421 62.1863 53.1187 62.0919C53.3953 61.9975 53.4943 61.7347 53.6244 61.4967C53.7833 61.2093 53.9401 60.922 54.0991 60.6367C54.7182 59.5119 55.3374 58.3892 55.9586 57.2644C55.6883 57.2993 55.4179 57.3342 55.1475 57.3691C55.9875 58.0731 57.1144 57.9807 58.037 57.4779C59.0338 56.934 59.6654 55.8728 60.7159 55.4151C61.5373 55.058 62.528 55.1175 63.3329 55.489C63.754 55.684 64.1379 55.9652 64.4309 56.3244C64.5671 56.4906 64.658 56.739 64.8499 56.8498C65.0687 56.9771 65.3989 56.9422 65.6404 56.9114C66.8457 56.7554 67.7621 55.7579 67.8776 54.5715C67.6609 54.7357 67.4422 54.902 67.2254 55.0662C68.6888 55.6327 70.216 55.9693 71.7805 56.0965C72.2056 56.1314 72.3769 55.6429 72.2263 55.3248C71.1881 53.1204 68.1686 54.0687 66.4081 53.0014C65.4195 52.4021 64.8726 51.2937 64.5259 50.2346C64.1461 49.0708 63.8551 47.7901 63.8056 46.5627C63.7829 45.9859 63.8241 45.3743 64.1317 44.8673C64.4701 44.3091 65.0749 44.0874 65.6858 43.9622C66.9055 43.7097 68.181 43.7303 69.0417 42.6896C69.7393 41.8461 70.0014 40.4771 68.8539 39.8736C68.3709 39.6191 67.6919 39.6232 67.793 38.9192C67.8735 38.3671 68.2347 37.8314 68.5794 37.4065C69.2584 36.5691 70.0385 35.2391 69.4359 34.1513C69.1387 33.6135 68.5278 33.3877 67.9334 33.439C67.6176 33.4678 67.3142 33.5458 67.0067 33.6135C66.8684 33.6443 66.5072 33.7777 66.4081 33.6238C66.4081 33.7962 66.4081 33.9686 66.4081 34.141C67.3823 32.4374 66.6331 30.5389 66.0841 28.8291C65.6961 27.6223 65.3308 25.6868 66.5939 24.8473C66.9695 24.5989 66.9014 24.053 66.4701 23.9093C66.0036 23.7554 65.5392 23.6014 65.0728 23.4475C65.1987 23.6117 65.3246 23.7779 65.4526 23.9421C65.4422 22.9426 66.2884 22.0723 67.2709 21.9307C67.8591 21.8465 68.3379 22.1257 68.8601 22.3494C69.4152 22.5875 70.0076 22.7086 70.5958 22.5013C71.733 22.099 72.3192 20.9558 72.703 19.8967C72.8991 19.3569 73.0745 18.8006 73.3924 18.3163C73.7267 17.8031 74.3129 17.6225 74.6844 17.1586C75.3944 16.2699 74.8185 14.9337 73.8815 14.4658C72.6618 13.8562 71.1159 14.2318 69.8198 14.3241C66.6992 14.5499 63.5662 14.6197 60.4394 14.5356C59.5539 14.5109 58.6685 14.474 57.7831 14.4247C57.2506 14.396 56.2104 14.5068 56.0267 13.8439C55.9318 13.499 55.9731 13.1029 55.9689 12.7499C55.9648 12.3414 55.9607 11.935 55.9566 11.5266C55.9483 10.6297 55.938 9.73272 55.9297 8.83578C55.9277 8.55869 55.6965 8.32265 55.4138 8.32265C50.8918 8.31444 46.3698 8.30623 41.8498 8.29802C39.6167 8.29392 37.3835 8.28981 35.1504 8.28571C34.0338 8.28365 32.9173 8.2816 31.8007 8.27955C31.2435 8.27955 30.6841 8.2775 30.1269 8.2775C29.8111 8.2775 29.2394 8.35344 29.1403 7.96141C29.0784 7.71101 29.1899 7.3785 29.2353 7.1281C29.2931 6.8038 29.3529 6.47951 29.4107 6.15727C29.518 5.5641 29.6254 4.96887 29.7327 4.3757C29.9576 3.13394 30.1826 1.89218 30.4076 0.652476C30.4654 0.336391 30.2714 -0.00637544 29.9102 0.00388704C24.2345 0.149614 18.5587 0.295341 12.8851 0.439016C12.2226 0.455436 12.2205 1.48168 12.8851 1.46526C18.5608 1.31954 24.2365 1.17381 29.9102 1.03013C29.7451 0.814623 29.5779 0.597058 29.4128 0.381546C28.9959 2.68855 28.5253 4.9935 28.16 7.30872C28.0857 7.78285 28.063 8.26929 28.3437 8.68594C28.6017 9.06976 29.0454 9.22985 29.485 9.28117C30.5686 9.40842 31.7161 9.3099 32.8058 9.31195C37.6064 9.32016 42.4071 9.32837 47.2077 9.33659C49.9424 9.34069 52.6791 9.34685 55.4138 9.35095C55.2425 9.1806 55.0691 9.00819 54.8978 8.83783C54.9122 10.3669 54.8916 11.9002 54.9453 13.4272C54.9659 14.0142 55.098 14.5992 55.5871 14.9768C56.0474 15.3319 56.6397 15.3853 57.2011 15.4202C60.3238 15.6193 63.4568 15.6501 66.5836 15.5331C68.1604 15.4735 69.7372 15.373 71.3078 15.2355C71.9353 15.18 72.6246 15.0815 73.2314 15.3032C73.6318 15.4489 74.0755 15.8964 73.9579 16.3643C73.8918 16.625 73.5988 16.7399 73.3944 16.8795C73.1365 17.056 72.9115 17.2572 72.7175 17.5014C72.3522 17.9591 72.1231 18.4928 71.9187 19.0367C71.5927 19.9049 71.1984 21.4299 70.0736 21.5838C69.3822 21.6782 68.7465 21.0851 68.0902 20.9517C67.4876 20.8285 66.8766 20.9127 66.3173 21.1569C65.2132 21.6372 64.4082 22.7271 64.4206 23.9442C64.4227 24.1802 64.5816 24.367 64.8004 24.4388C65.2668 24.5928 65.7312 24.7467 66.1976 24.9007C66.1563 24.5887 66.1151 24.2746 66.0738 23.9627C64.6435 24.9109 64.5424 26.6925 64.8561 28.2278C65.2049 29.9272 66.4886 31.9222 65.5165 33.6238C65.4278 33.7777 65.4154 33.9891 65.5165 34.141C65.8488 34.648 66.3545 34.7608 66.9303 34.6705C67.3307 34.609 68.0366 34.2744 68.4143 34.5207C68.7197 34.7198 68.5918 35.235 68.5092 35.5162C68.3523 36.0457 68.0366 36.4357 67.7043 36.8626C67.0665 37.6836 66.3091 39.0362 67.05 40.0193C67.2502 40.2841 67.5165 40.4545 67.8219 40.5756C68.0675 40.672 68.4349 40.711 68.5773 40.9614C68.7899 41.3309 68.4184 41.8625 68.1728 42.119C67.3101 43.016 65.8055 42.7471 64.7116 43.1679C63.4444 43.6543 62.8335 44.7688 62.7757 46.0804C62.72 47.3242 63.0151 48.6378 63.3329 49.8323C63.6384 50.9838 64.0925 52.1352 64.8871 53.0424C65.7828 54.0666 66.9984 54.4156 68.3049 54.5921C69.3554 54.7337 70.8166 54.7398 71.3347 55.8379C71.4833 55.5814 71.6319 55.3228 71.7805 55.0662C70.3089 54.9471 68.8745 54.6044 67.4999 54.0728C67.1594 53.9414 66.8746 54.2698 66.8478 54.5674C66.7652 55.4131 65.9211 55.9713 65.112 55.8913C65.2606 55.9754 65.4092 56.0616 65.5578 56.1458C64.6187 54.5941 62.6539 53.8388 60.8975 54.2739C59.8821 54.5264 59.1556 55.2242 58.4085 55.9077C57.8203 56.4455 56.6831 57.3116 55.8823 56.6405C55.6387 56.4352 55.2425 56.4332 55.0711 56.7451C54.227 58.2763 53.3829 59.8054 52.5387 61.3366C52.6874 61.2524 52.8359 61.1662 52.9846 61.0821C52.384 61.1313 51.7834 61.1806 51.1828 61.2298C50.8381 61.2586 50.609 61.5336 50.6854 61.8784C50.9248 62.9765 51.1642 64.0766 51.4036 65.1747C51.5027 65.6324 52.1157 65.6406 52.3468 65.2979C52.32 65.3369 52.1487 65.3307 52.1466 65.3492C52.1507 65.3184 52.1838 65.4477 52.1879 65.382C52.1858 65.4087 52.3179 65.5647 52.3303 65.5975C52.4149 65.848 52.2457 65.9752 52.0599 66.1332C51.544 66.5704 50.9248 66.8598 50.6338 67.5084C50.3077 68.235 50.6255 69.0293 50.3717 69.7497C50.2169 70.191 49.802 70.3552 49.3748 70.4517C48.3449 70.6816 47.2015 70.5359 46.2562 71.0818C44.9601 71.831 45.2532 73.4422 44.8115 74.6655C44.2811 76.1371 43.0882 77.3994 41.629 77.9905C41.3421 78.1075 41.1171 78.44 41.3215 78.7438C42.3039 80.2134 42.3926 82.7728 40.6301 83.7396C39.3608 84.4353 36.9563 83.4522 37.2143 81.802C37.0946 81.921 36.9749 82.0401 36.8531 82.1612C37.5425 82.036 38.2318 81.9108 38.9212 81.7856C39.175 81.7404 39.3793 81.3956 39.2823 81.1534C38.3185 78.7479 36.8407 76.5661 34.9131 74.8194C34.4734 74.4212 33.9699 74.0641 33.5922 73.6023C33.2207 73.1466 33.1753 72.6848 33.3156 72.1306C33.5818 71.0798 34.1061 70.0658 33.3466 69.095C33.2186 68.9308 32.8884 68.8959 32.7212 69.015C31.1939 70.1007 29.2683 70.5133 27.417 70.23C26.4903 70.0884 25.5904 69.7908 24.7773 69.3269C23.9166 68.8364 23.252 68.1796 22.6349 67.4161C22.282 66.9789 21.9022 66.554 21.4007 66.2831C20.8992 66.0121 20.344 65.8931 19.7868 65.8028C18.47 65.5934 17.2027 65.2507 15.9149 64.9182C13.6921 64.3435 11.1638 63.9535 9.0648 65.146C7.21555 66.1969 6.09898 68.8015 7.41162 70.6836C7.6469 70.4496 7.88219 70.2157 8.11747 69.9817C5.86782 68.7379 4.15891 66.632 3.35812 64.1998C2.95772 62.9847 2.77817 61.7142 2.86279 60.4376C2.91025 59.6987 3.04234 58.9454 2.83595 58.2188C2.63782 57.5169 2.11772 57.0858 1.70081 56.5194C0.852548 55.3638 1.01972 53.7567 1.13943 52.4144C1.2839 50.8093 1.57491 49.2186 1.95467 47.6526C2.71831 44.5102 3.84314 41.4684 5.00924 38.4574C5.28787 37.737 5.49838 36.8031 6.01229 36.2038C6.25377 35.9226 6.61495 35.8117 6.91215 35.6085C7.19078 35.4197 7.42194 35.1775 7.56435 34.8696C7.82027 34.3196 7.77486 33.71 7.71088 33.123C7.64896 32.5503 7.51688 31.9017 7.85948 31.3948C7.66548 31.4728 7.47147 31.5528 7.27746 31.6308C9.3393 32.0598 11.4403 32.1295 13.5249 31.8319C14.014 31.7622 14.5011 31.6718 14.982 31.559C15.4815 31.442 16.0635 31.3455 16.5155 31.091C17.3761 30.6066 17.2482 29.3895 17.3163 28.55C17.6754 24.133 18.0345 19.7181 18.3936 15.3011C18.4473 14.6382 18.5009 13.9752 18.5546 13.3143C18.5979 12.7889 18.7053 12.2265 18.6578 11.699C18.5938 10.9745 18.1088 9.97902 17.2131 10.2972C17.3452 10.3136 17.4772 10.332 17.6114 10.3485C17.4793 10.2664 17.5619 10.0447 17.6217 9.93181C17.7517 9.6773 18.0221 9.58083 18.2842 9.50694C18.9323 9.32427 19.5845 9.2668 20.1686 8.8994C21.2026 8.24466 21.8734 7.02137 21.7433 5.79398C21.6154 4.58506 20.8187 3.49108 19.6836 3.02927C18.2471 2.4443 16.7384 3.00464 15.2586 3.00464C14.369 3.00464 12.4806 2.05228 13.2896 0.954193C13.6797 0.420544 12.7839 -0.0925803 12.3959 0.434911Z" fill="white" fill-opacity="0.14"/>
</g>
<defs>
<clipPath id="clip0_1_1371">
<rect width="75" height="85" fill="white"/>
</clipPath>
</defs>
</svg>
